<mxfile host="65bd71144e">
    <diagram name="Page-1" id="fa1RPLKxEcNWOqLzGpbM">
        <mxGraphModel dx="1130" dy="1577" grid="1" gridSize="10" guides="1" tooltips="1" connect="1" arrows="1" fold="1" page="1" pageScale="1" pageWidth="850" pageHeight="1100" math="0" shadow="0">
            <root>
                <mxCell id="0"/>
                <mxCell id="1" parent="0"/>
                <mxCell id="0tJ8A37jzqX78EIoZ7ju-91" value="" style="rounded=0;whiteSpace=wrap;html=1;" parent="1" vertex="1">
                    <mxGeometry x="110" y="-90" width="1070" height="750" as="geometry"/>
                </mxCell>
                <mxCell id="0tJ8A37jzqX78EIoZ7ju-39" style="edgeStyle=orthogonalEdgeStyle;rounded=0;orthogonalLoop=1;jettySize=auto;html=1;entryX=0;entryY=0.5;entryDx=0;entryDy=0;" parent="1" source="0tJ8A37jzqX78EIoZ7ju-1" target="0tJ8A37jzqX78EIoZ7ju-7" edge="1">
                    <mxGeometry relative="1" as="geometry"/>
                </mxCell>
                <mxCell id="0tJ8A37jzqX78EIoZ7ju-59" style="edgeStyle=orthogonalEdgeStyle;rounded=0;orthogonalLoop=1;jettySize=auto;html=1;entryX=1;entryY=0.5;entryDx=0;entryDy=0;entryPerimeter=0;fillColor=#6a00ff;strokeColor=#3700CC;" parent="1" source="0tJ8A37jzqX78EIoZ7ju-1" target="0tJ8A37jzqX78EIoZ7ju-57" edge="1">
                    <mxGeometry relative="1" as="geometry">
                        <Array as="points">
                            <mxPoint x="1080" y="316"/>
                            <mxPoint x="1080" y="107"/>
                        </Array>
                    </mxGeometry>
                </mxCell>
                <mxCell id="0tJ8A37jzqX78EIoZ7ju-106" style="edgeStyle=orthogonalEdgeStyle;rounded=0;orthogonalLoop=1;jettySize=auto;html=1;entryX=0.5;entryY=0;entryDx=0;entryDy=0;entryPerimeter=0;fillColor=#d80073;strokeColor=#A50040;" parent="1" source="0tJ8A37jzqX78EIoZ7ju-1" target="0tJ8A37jzqX78EIoZ7ju-104" edge="1">
                    <mxGeometry relative="1" as="geometry">
                        <Array as="points">
                            <mxPoint x="1014" y="10"/>
                            <mxPoint x="619" y="10"/>
                        </Array>
                    </mxGeometry>
                </mxCell>
                <mxCell id="0tJ8A37jzqX78EIoZ7ju-1" value="Generate Image fn" style="outlineConnect=0;dashed=0;verticalLabelPosition=bottom;verticalAlign=top;align=center;html=1;shape=mxgraph.aws3.lambda_function;fillColor=#F58534;gradientColor=none;" parent="1" vertex="1">
                    <mxGeometry x="980" y="280" width="69" height="72" as="geometry"/>
                </mxCell>
                <mxCell id="0tJ8A37jzqX78EIoZ7ju-21" style="edgeStyle=orthogonalEdgeStyle;rounded=0;orthogonalLoop=1;jettySize=auto;html=1;entryX=0;entryY=0.5;entryDx=0;entryDy=0;entryPerimeter=0;" parent="1" source="0tJ8A37jzqX78EIoZ7ju-2" target="0tJ8A37jzqX78EIoZ7ju-4" edge="1">
                    <mxGeometry relative="1" as="geometry">
                        <Array as="points">
                            <mxPoint x="180" y="480"/>
                            <mxPoint x="180" y="319"/>
                        </Array>
                    </mxGeometry>
                </mxCell>
                <mxCell id="0tJ8A37jzqX78EIoZ7ju-22" value="api usage" style="edgeLabel;html=1;align=center;verticalAlign=middle;resizable=0;points=[];" parent="0tJ8A37jzqX78EIoZ7ju-21" vertex="1" connectable="0">
                    <mxGeometry x="0.5556" y="1" relative="1" as="geometry">
                        <mxPoint as="offset"/>
                    </mxGeometry>
                </mxCell>
                <mxCell id="0tJ8A37jzqX78EIoZ7ju-72" value="1" style="edgeLabel;html=1;align=center;verticalAlign=middle;resizable=0;points=[];fontSize=14;" parent="0tJ8A37jzqX78EIoZ7ju-21" vertex="1" connectable="0">
                    <mxGeometry x="0.1356" y="4" relative="1" as="geometry">
                        <mxPoint as="offset"/>
                    </mxGeometry>
                </mxCell>
                <mxCell id="0tJ8A37jzqX78EIoZ7ju-25" style="edgeStyle=orthogonalEdgeStyle;rounded=0;orthogonalLoop=1;jettySize=auto;html=1;entryX=0.16;entryY=0.55;entryDx=0;entryDy=0;entryPerimeter=0;fillColor=#60a917;strokeColor=#2D7600;" parent="1" source="0tJ8A37jzqX78EIoZ7ju-2" target="0tJ8A37jzqX78EIoZ7ju-23" edge="1">
                    <mxGeometry relative="1" as="geometry">
                        <Array as="points">
                            <mxPoint x="55" y="690"/>
                            <mxPoint x="1189" y="690"/>
                        </Array>
                    </mxGeometry>
                </mxCell>
                <mxCell id="0tJ8A37jzqX78EIoZ7ju-26" value="Image retrieval" style="edgeLabel;html=1;align=center;verticalAlign=middle;resizable=0;points=[];" parent="0tJ8A37jzqX78EIoZ7ju-25" vertex="1" connectable="0">
                    <mxGeometry x="-0.1186" y="-1" relative="1" as="geometry">
                        <mxPoint as="offset"/>
                    </mxGeometry>
                </mxCell>
                <mxCell id="0tJ8A37jzqX78EIoZ7ju-80" value="9" style="edgeLabel;html=1;align=center;verticalAlign=middle;resizable=0;points=[];fontSize=14;" parent="0tJ8A37jzqX78EIoZ7ju-25" vertex="1" connectable="0">
                    <mxGeometry x="-0.7374" y="-3" relative="1" as="geometry">
                        <mxPoint as="offset"/>
                    </mxGeometry>
                </mxCell>
                <mxCell id="0tJ8A37jzqX78EIoZ7ju-81" style="edgeStyle=orthogonalEdgeStyle;rounded=0;orthogonalLoop=1;jettySize=auto;html=1;entryX=0;entryY=0.5;entryDx=0;entryDy=0;entryPerimeter=0;fillColor=#1ba1e2;strokeColor=#006EAF;" parent="1" source="0tJ8A37jzqX78EIoZ7ju-2" target="0tJ8A37jzqX78EIoZ7ju-4" edge="1">
                    <mxGeometry relative="1" as="geometry">
                        <Array as="points">
                            <mxPoint x="150" y="480"/>
                            <mxPoint x="150" y="310"/>
                            <mxPoint x="270" y="310"/>
                        </Array>
                    </mxGeometry>
                </mxCell>
                <mxCell id="0tJ8A37jzqX78EIoZ7ju-83" value="8" style="edgeLabel;html=1;align=center;verticalAlign=middle;resizable=0;points=[];fontSize=14;" parent="0tJ8A37jzqX78EIoZ7ju-81" vertex="1" connectable="0">
                    <mxGeometry x="0.0765" y="3" relative="1" as="geometry">
                        <mxPoint as="offset"/>
                    </mxGeometry>
                </mxCell>
                <mxCell id="0tJ8A37jzqX78EIoZ7ju-84" value="api polling" style="edgeLabel;html=1;align=center;verticalAlign=middle;resizable=0;points=[];" parent="0tJ8A37jzqX78EIoZ7ju-81" vertex="1" connectable="0">
                    <mxGeometry x="0.3934" y="3" relative="1" as="geometry">
                        <mxPoint as="offset"/>
                    </mxGeometry>
                </mxCell>
                <mxCell id="0tJ8A37jzqX78EIoZ7ju-2" value="" style="verticalLabelPosition=bottom;verticalAlign=top;html=1;shadow=0;dashed=0;strokeWidth=1;shape=mxgraph.android.phone2;strokeColor=#c0c0c0;" parent="1" vertex="1">
                    <mxGeometry x="30" y="430" width="50" height="100" as="geometry"/>
                </mxCell>
                <mxCell id="0tJ8A37jzqX78EIoZ7ju-48" value="" style="edgeStyle=orthogonalEdgeStyle;rounded=0;orthogonalLoop=1;jettySize=auto;html=1;" parent="1" source="0tJ8A37jzqX78EIoZ7ju-4" target="0tJ8A37jzqX78EIoZ7ju-34" edge="1">
                    <mxGeometry relative="1" as="geometry"/>
                </mxCell>
                <mxCell id="0tJ8A37jzqX78EIoZ7ju-90" style="edgeStyle=orthogonalEdgeStyle;rounded=0;orthogonalLoop=1;jettySize=auto;html=1;entryX=0;entryY=0.5;entryDx=0;entryDy=0;entryPerimeter=0;fillColor=#1ba1e2;strokeColor=#006EAF;" parent="1" source="0tJ8A37jzqX78EIoZ7ju-4" target="0tJ8A37jzqX78EIoZ7ju-85" edge="1">
                    <mxGeometry relative="1" as="geometry">
                        <Array as="points">
                            <mxPoint x="310" y="136"/>
                        </Array>
                    </mxGeometry>
                </mxCell>
                <mxCell id="0tJ8A37jzqX78EIoZ7ju-4" value="" style="sketch=0;points=[[0,0,0],[0.25,0,0],[0.5,0,0],[0.75,0,0],[1,0,0],[0,1,0],[0.25,1,0],[0.5,1,0],[0.75,1,0],[1,1,0],[0,0.25,0],[0,0.5,0],[0,0.75,0],[1,0.25,0],[1,0.5,0],[1,0.75,0]];outlineConnect=0;fontColor=#232F3E;gradientColor=#FF4F8B;gradientDirection=north;fillColor=#BC1356;strokeColor=#ffffff;dashed=0;verticalLabelPosition=bottom;verticalAlign=top;align=center;html=1;fontSize=12;fontStyle=0;aspect=fixed;shape=mxgraph.aws4.resourceIcon;resIcon=mxgraph.aws4.api_gateway;" parent="1" vertex="1">
                    <mxGeometry x="270" y="277" width="78" height="78" as="geometry"/>
                </mxCell>
                <mxCell id="0tJ8A37jzqX78EIoZ7ju-24" style="edgeStyle=orthogonalEdgeStyle;rounded=0;orthogonalLoop=1;jettySize=auto;html=1;entryX=0.625;entryY=0.2;entryDx=0;entryDy=0;entryPerimeter=0;" parent="1" source="0tJ8A37jzqX78EIoZ7ju-7" target="0tJ8A37jzqX78EIoZ7ju-23" edge="1">
                    <mxGeometry relative="1" as="geometry"/>
                </mxCell>
                <mxCell id="0tJ8A37jzqX78EIoZ7ju-7" value="" style="shape=image;verticalLabelPosition=bottom;labelBackgroundColor=default;verticalAlign=top;aspect=fixed;imageAspect=0;image=https://upload.wikimedia.org/wikipedia/commons/thumb/0/04/ChatGPT_logo.svg/640px-ChatGPT_logo.svg.png;" parent="1" vertex="1">
                    <mxGeometry x="1215" y="409" width="60" height="60" as="geometry"/>
                </mxCell>
                <mxCell id="0tJ8A37jzqX78EIoZ7ju-8" value="" style="shape=image;verticalLabelPosition=bottom;labelBackgroundColor=default;verticalAlign=top;aspect=fixed;imageAspect=0;image=https://user-images.githubusercontent.com/2752551/30405068-a7733b34-989e-11e7-8f66-7badaf1373ed.png;" parent="1" vertex="1">
                    <mxGeometry x="280" y="-72.5" width="85" height="85" as="geometry"/>
                </mxCell>
                <mxCell id="0tJ8A37jzqX78EIoZ7ju-9" value="" style="shape=image;verticalLabelPosition=bottom;labelBackgroundColor=default;verticalAlign=top;aspect=fixed;imageAspect=0;image=https://5.imimg.com/data5/SELLER/Default/2021/8/NP/YN/DN/3775979/aws-logo-500x500.png;" parent="1" vertex="1">
                    <mxGeometry x="110" y="-90" width="160" height="120" as="geometry"/>
                </mxCell>
                <mxCell id="0tJ8A37jzqX78EIoZ7ju-13" style="edgeStyle=orthogonalEdgeStyle;rounded=0;orthogonalLoop=1;jettySize=auto;html=1;entryX=0;entryY=0.5;entryDx=0;entryDy=0;" parent="1" source="0tJ8A37jzqX78EIoZ7ju-10" target="0tJ8A37jzqX78EIoZ7ju-7" edge="1">
                    <mxGeometry relative="1" as="geometry"/>
                </mxCell>
                <mxCell id="0tJ8A37jzqX78EIoZ7ju-60" style="edgeStyle=orthogonalEdgeStyle;rounded=0;orthogonalLoop=1;jettySize=auto;html=1;entryX=1;entryY=0.5;entryDx=0;entryDy=0;entryPerimeter=0;fillColor=#6a00ff;strokeColor=#3700CC;" parent="1" source="0tJ8A37jzqX78EIoZ7ju-10" target="0tJ8A37jzqX78EIoZ7ju-57" edge="1">
                    <mxGeometry relative="1" as="geometry">
                        <Array as="points">
                            <mxPoint x="1080" y="439"/>
                            <mxPoint x="1080" y="107"/>
                        </Array>
                    </mxGeometry>
                </mxCell>
                <mxCell id="0tJ8A37jzqX78EIoZ7ju-107" style="edgeStyle=orthogonalEdgeStyle;rounded=0;orthogonalLoop=1;jettySize=auto;html=1;entryX=0.5;entryY=0;entryDx=0;entryDy=0;entryPerimeter=0;fillColor=#d80073;strokeColor=#A50040;" parent="1" source="0tJ8A37jzqX78EIoZ7ju-10" target="0tJ8A37jzqX78EIoZ7ju-104" edge="1">
                    <mxGeometry relative="1" as="geometry">
                        <Array as="points">
                            <mxPoint x="1014" y="10"/>
                            <mxPoint x="619" y="10"/>
                        </Array>
                    </mxGeometry>
                </mxCell>
                <mxCell id="0tJ8A37jzqX78EIoZ7ju-10" value="Edit Image fn" style="outlineConnect=0;dashed=0;verticalLabelPosition=bottom;verticalAlign=top;align=center;html=1;shape=mxgraph.aws3.lambda_function;fillColor=#F58534;gradientColor=none;" parent="1" vertex="1">
                    <mxGeometry x="980" y="403" width="69" height="72" as="geometry"/>
                </mxCell>
                <mxCell id="0tJ8A37jzqX78EIoZ7ju-12" style="edgeStyle=orthogonalEdgeStyle;rounded=0;orthogonalLoop=1;jettySize=auto;html=1;entryX=0;entryY=0.5;entryDx=0;entryDy=0;" parent="1" source="0tJ8A37jzqX78EIoZ7ju-11" target="0tJ8A37jzqX78EIoZ7ju-7" edge="1">
                    <mxGeometry relative="1" as="geometry"/>
                </mxCell>
                <mxCell id="0tJ8A37jzqX78EIoZ7ju-77" value="4" style="edgeLabel;html=1;align=center;verticalAlign=middle;resizable=0;points=[];fontSize=14;" parent="0tJ8A37jzqX78EIoZ7ju-12" vertex="1" connectable="0">
                    <mxGeometry x="0.6014" y="1" relative="1" as="geometry">
                        <mxPoint as="offset"/>
                    </mxGeometry>
                </mxCell>
                <mxCell id="0tJ8A37jzqX78EIoZ7ju-61" style="edgeStyle=orthogonalEdgeStyle;rounded=0;orthogonalLoop=1;jettySize=auto;html=1;entryX=1;entryY=0.5;entryDx=0;entryDy=0;entryPerimeter=0;labelBackgroundColor=#581ba1;fillColor=#6a00ff;strokeColor=#3700CC;" parent="1" source="0tJ8A37jzqX78EIoZ7ju-11" target="0tJ8A37jzqX78EIoZ7ju-57" edge="1">
                    <mxGeometry relative="1" as="geometry">
                        <Array as="points">
                            <mxPoint x="1080" y="569"/>
                            <mxPoint x="1080" y="107"/>
                        </Array>
                    </mxGeometry>
                </mxCell>
                <mxCell id="0tJ8A37jzqX78EIoZ7ju-78" value="5" style="edgeLabel;html=1;align=center;verticalAlign=middle;resizable=0;points=[];fontSize=14;" parent="0tJ8A37jzqX78EIoZ7ju-61" vertex="1" connectable="0">
                    <mxGeometry x="0.3648" y="-2" relative="1" as="geometry">
                        <mxPoint as="offset"/>
                    </mxGeometry>
                </mxCell>
                <mxCell id="0tJ8A37jzqX78EIoZ7ju-108" style="edgeStyle=orthogonalEdgeStyle;rounded=0;orthogonalLoop=1;jettySize=auto;html=1;entryX=0.5;entryY=0;entryDx=0;entryDy=0;entryPerimeter=0;fillColor=#d80073;strokeColor=#A50040;" parent="1" source="0tJ8A37jzqX78EIoZ7ju-11" target="0tJ8A37jzqX78EIoZ7ju-104" edge="1">
                    <mxGeometry relative="1" as="geometry">
                        <Array as="points">
                            <mxPoint x="1014" y="10"/>
                            <mxPoint x="619" y="10"/>
                        </Array>
                    </mxGeometry>
                </mxCell>
                <mxCell id="0tJ8A37jzqX78EIoZ7ju-109" value="Pulls s3 object" style="edgeLabel;html=1;align=center;verticalAlign=middle;resizable=0;points=[];" parent="0tJ8A37jzqX78EIoZ7ju-108" vertex="1" connectable="0">
                    <mxGeometry x="0.5947" y="2" relative="1" as="geometry">
                        <mxPoint as="offset"/>
                    </mxGeometry>
                </mxCell>
                <mxCell id="0tJ8A37jzqX78EIoZ7ju-11" value="Create Image Variant fn" style="outlineConnect=0;dashed=0;verticalLabelPosition=bottom;verticalAlign=top;align=center;html=1;shape=mxgraph.aws3.lambda_function;fillColor=#F58534;gradientColor=none;" parent="1" vertex="1">
                    <mxGeometry x="980" y="533" width="69" height="72" as="geometry"/>
                </mxCell>
                <mxCell id="0tJ8A37jzqX78EIoZ7ju-23" value="File storage" style="ellipse;shape=cloud;whiteSpace=wrap;html=1;" parent="1" vertex="1">
                    <mxGeometry x="1170" y="640" width="120" height="80" as="geometry"/>
                </mxCell>
                <mxCell id="0tJ8A37jzqX78EIoZ7ju-50" style="edgeStyle=orthogonalEdgeStyle;rounded=0;orthogonalLoop=1;jettySize=auto;html=1;entryX=0.5;entryY=1;entryDx=0;entryDy=0;entryPerimeter=0;" parent="1" source="0tJ8A37jzqX78EIoZ7ju-27" target="0tJ8A37jzqX78EIoZ7ju-34" edge="1">
                    <mxGeometry relative="1" as="geometry"/>
                </mxCell>
                <mxCell id="0tJ8A37jzqX78EIoZ7ju-51" value="Retrieve user information" style="edgeLabel;html=1;align=center;verticalAlign=middle;resizable=0;points=[];" parent="0tJ8A37jzqX78EIoZ7ju-50" vertex="1" connectable="0">
                    <mxGeometry x="-0.1532" relative="1" as="geometry">
                        <mxPoint y="1" as="offset"/>
                    </mxGeometry>
                </mxCell>
                <mxCell id="0tJ8A37jzqX78EIoZ7ju-74" value="2" style="edgeLabel;html=1;align=center;verticalAlign=middle;resizable=0;points=[];fontSize=14;" parent="0tJ8A37jzqX78EIoZ7ju-50" vertex="1" connectable="0">
                    <mxGeometry x="0.3247" y="2" relative="1" as="geometry">
                        <mxPoint x="1" y="1" as="offset"/>
                    </mxGeometry>
                </mxCell>
                <mxCell id="0tJ8A37jzqX78EIoZ7ju-27" value="Cognito" style="outlineConnect=0;dashed=0;verticalLabelPosition=bottom;verticalAlign=top;align=center;html=1;shape=mxgraph.aws3.cognito;fillColor=#AD688B;gradientColor=none;" parent="1" vertex="1">
                    <mxGeometry x="270" y="400" width="76.5" height="93" as="geometry"/>
                </mxCell>
                <mxCell id="0tJ8A37jzqX78EIoZ7ju-28" value="&lt;div style=&quot;text-align: left;&quot;&gt;&lt;span data-darkreader-inline-color=&quot;&quot; data-darkreader-inline-bgcolor=&quot;&quot; style=&quot;background-color: initial; --darkreader-inline-bgcolor: initial; --darkreader-inline-color: #dfdcd7;&quot;&gt;Features&lt;/span&gt;&lt;/div&gt;&lt;div style=&quot;text-align: left;&quot;&gt;&lt;span data-darkreader-inline-color=&quot;&quot; data-darkreader-inline-bgcolor=&quot;&quot; style=&quot;background-color: initial; --darkreader-inline-bgcolor: initial; --darkreader-inline-color: #dfdcd7;&quot;&gt;1. Generate an image based on a prompt&lt;/span&gt;&lt;/div&gt;&lt;div style=&quot;text-align: left;&quot;&gt;&lt;span data-darkreader-inline-color=&quot;&quot; data-darkreader-inline-bgcolor=&quot;&quot; style=&quot;background-color: initial; --darkreader-inline-bgcolor: initial; --darkreader-inline-color: #dfdcd7;&quot;&gt;2. Alter an image based on a prompt&lt;/span&gt;&lt;/div&gt;&lt;div style=&quot;text-align: left;&quot;&gt;&lt;span data-darkreader-inline-color=&quot;&quot; data-darkreader-inline-bgcolor=&quot;&quot; style=&quot;background-color: initial; --darkreader-inline-bgcolor: initial; --darkreader-inline-color: #dfdcd7;&quot;&gt;3. Draw areas on an image and modify the image&lt;/span&gt;&lt;/div&gt;&lt;div style=&quot;text-align: left;&quot;&gt;&lt;span data-darkreader-inline-color=&quot;&quot; data-darkreader-inline-bgcolor=&quot;&quot; style=&quot;background-color: initial; --darkreader-inline-bgcolor: initial; --darkreader-inline-color: #dfdcd7;&quot;&gt;4. Create backgrounds and animations for your images&lt;/span&gt;&lt;/div&gt;&lt;div style=&quot;text-align: left;&quot;&gt;&lt;br&gt;&lt;/div&gt;&lt;div style=&quot;text-align: left;&quot;&gt;&lt;span data-darkreader-inline-color=&quot;&quot; data-darkreader-inline-bgcolor=&quot;&quot; style=&quot;background-color: initial; --darkreader-inline-bgcolor: initial; --darkreader-inline-color: #dfdcd7;&quot;&gt;monetization&lt;/span&gt;&lt;/div&gt;&lt;div style=&quot;text-align: left;&quot;&gt;&lt;span data-darkreader-inline-color=&quot;&quot; data-darkreader-inline-bgcolor=&quot;&quot; style=&quot;background-color: initial; --darkreader-inline-bgcolor: initial; --darkreader-inline-color: #dfdcd7;&quot;&gt;1. Select styles are protected by pay wall&lt;/span&gt;&lt;/div&gt;&lt;div style=&quot;text-align: left;&quot;&gt;&lt;span data-darkreader-inline-color=&quot;&quot; data-darkreader-inline-bgcolor=&quot;&quot; style=&quot;background-color: initial; --darkreader-inline-bgcolor: initial; --darkreader-inline-color: #dfdcd7;&quot;&gt;2. Non paying members can watch ads to get free content&lt;/span&gt;&lt;/div&gt;&lt;div style=&quot;text-align: left;&quot;&gt;&lt;span data-darkreader-inline-color=&quot;&quot; data-darkreader-inline-bgcolor=&quot;&quot; style=&quot;background-color: initial; --darkreader-inline-bgcolor: initial; --darkreader-inline-color: #dfdcd7;&quot;&gt;3. Rate limiting and prioritization for paid members&lt;/span&gt;&lt;/div&gt;" style="text;html=1;align=center;verticalAlign=middle;resizable=0;points=[];autosize=1;strokeColor=none;fillColor=none;fontColor=#FFFFFF;" parent="1" vertex="1">
                    <mxGeometry x="120" y="1150" width="330" height="160" as="geometry"/>
                </mxCell>
                <mxCell id="MRQ85Tfam6KHoVeZtCjc-12" style="edgeStyle=orthogonalEdgeStyle;rounded=0;orthogonalLoop=1;jettySize=auto;html=1;entryX=0;entryY=0.5;entryDx=0;entryDy=0;entryPerimeter=0;" parent="1" source="0tJ8A37jzqX78EIoZ7ju-30" target="MRQ85Tfam6KHoVeZtCjc-1" edge="1">
                    <mxGeometry relative="1" as="geometry"/>
                </mxCell>
                <mxCell id="0tJ8A37jzqX78EIoZ7ju-30" value="generate image queue" style="sketch=0;points=[[0,0,0],[0.25,0,0],[0.5,0,0],[0.75,0,0],[1,0,0],[0,1,0],[0.25,1,0],[0.5,1,0],[0.75,1,0],[1,1,0],[0,0.25,0],[0,0.5,0],[0,0.75,0],[1,0.25,0],[1,0.5,0],[1,0.75,0]];outlineConnect=0;fontColor=#232F3E;gradientColor=#4D72F3;gradientDirection=north;fillColor=#3334B9;strokeColor=#ffffff;dashed=0;verticalLabelPosition=bottom;verticalAlign=top;align=center;html=1;fontSize=12;fontStyle=0;aspect=fixed;shape=mxgraph.aws4.resourceIcon;resIcon=mxgraph.aws4.dynamodb;" parent="1" vertex="1">
                    <mxGeometry x="580" y="277" width="78" height="78" as="geometry"/>
                </mxCell>
                <mxCell id="0tJ8A37jzqX78EIoZ7ju-33" value="Priority queue logic&lt;br&gt;Have an expected time to completion for paid vs free requests&lt;br&gt;queue must be reordered to prevent free request starvation&lt;br&gt;Estimated elapsed time for requests should be generated in terms of average &lt;br&gt;&amp;nbsp; openai latency + application processing ability * number of requests&lt;br&gt;Measurement must be taken to understand when the number of requests &lt;br&gt;&amp;nbsp; reach a point where the estimated time is too large (time to scale). Create custom alarms for these events to scale infra" style="text;html=1;align=left;verticalAlign=middle;resizable=0;points=[];autosize=1;strokeColor=none;fillColor=none;" parent="1" vertex="1">
                    <mxGeometry x="610" y="1170" width="660" height="110" as="geometry"/>
                </mxCell>
                <mxCell id="0tJ8A37jzqX78EIoZ7ju-35" value="" style="edgeStyle=orthogonalEdgeStyle;rounded=0;orthogonalLoop=1;jettySize=auto;html=1;" parent="1" source="0tJ8A37jzqX78EIoZ7ju-34" target="0tJ8A37jzqX78EIoZ7ju-30" edge="1">
                    <mxGeometry relative="1" as="geometry"/>
                </mxCell>
                <mxCell id="0tJ8A37jzqX78EIoZ7ju-46" style="edgeStyle=orthogonalEdgeStyle;rounded=0;orthogonalLoop=1;jettySize=auto;html=1;entryX=0;entryY=0.5;entryDx=0;entryDy=0;entryPerimeter=0;" parent="1" source="0tJ8A37jzqX78EIoZ7ju-34" target="0tJ8A37jzqX78EIoZ7ju-41" edge="1">
                    <mxGeometry relative="1" as="geometry"/>
                </mxCell>
                <mxCell id="0tJ8A37jzqX78EIoZ7ju-47" style="edgeStyle=orthogonalEdgeStyle;rounded=0;orthogonalLoop=1;jettySize=auto;html=1;entryX=0;entryY=0.5;entryDx=0;entryDy=0;entryPerimeter=0;" parent="1" source="0tJ8A37jzqX78EIoZ7ju-34" target="0tJ8A37jzqX78EIoZ7ju-44" edge="1">
                    <mxGeometry relative="1" as="geometry"/>
                </mxCell>
                <mxCell id="0tJ8A37jzqX78EIoZ7ju-75" value="3" style="edgeLabel;html=1;align=center;verticalAlign=middle;resizable=0;points=[];fontSize=14;" parent="0tJ8A37jzqX78EIoZ7ju-47" vertex="1" connectable="0">
                    <mxGeometry x="-0.7853" y="-3" relative="1" as="geometry">
                        <mxPoint as="offset"/>
                    </mxGeometry>
                </mxCell>
                <mxCell id="0tJ8A37jzqX78EIoZ7ju-56" style="edgeStyle=orthogonalEdgeStyle;rounded=0;orthogonalLoop=1;jettySize=auto;html=1;entryX=0;entryY=0.5;entryDx=0;entryDy=0;entryPerimeter=0;" parent="1" source="0tJ8A37jzqX78EIoZ7ju-34" target="0tJ8A37jzqX78EIoZ7ju-55" edge="1">
                    <mxGeometry relative="1" as="geometry">
                        <Array as="points">
                            <mxPoint x="445" y="199"/>
                        </Array>
                    </mxGeometry>
                </mxCell>
                <mxCell id="0tJ8A37jzqX78EIoZ7ju-105" style="edgeStyle=orthogonalEdgeStyle;rounded=0;orthogonalLoop=1;jettySize=auto;html=1;entryX=0;entryY=0.5;entryDx=0;entryDy=0;entryPerimeter=0;fillColor=#d80073;strokeColor=#A50040;" parent="1" source="0tJ8A37jzqX78EIoZ7ju-34" target="0tJ8A37jzqX78EIoZ7ju-104" edge="1">
                    <mxGeometry relative="1" as="geometry">
                        <Array as="points">
                            <mxPoint x="444" y="69"/>
                        </Array>
                    </mxGeometry>
                </mxCell>
                <mxCell id="0tJ8A37jzqX78EIoZ7ju-110" value="Stores s3 object&lt;br&gt;stores location info&lt;br&gt;in queue message" style="edgeLabel;html=1;align=center;verticalAlign=middle;resizable=0;points=[];" parent="0tJ8A37jzqX78EIoZ7ju-105" vertex="1" connectable="0">
                    <mxGeometry x="0.674" y="-3" relative="1" as="geometry">
                        <mxPoint as="offset"/>
                    </mxGeometry>
                </mxCell>
                <mxCell id="0tJ8A37jzqX78EIoZ7ju-34" value="Scheduler" style="outlineConnect=0;dashed=0;verticalLabelPosition=bottom;verticalAlign=top;align=center;html=1;shape=mxgraph.aws3.lambda_function;fillColor=#F58534;gradientColor=none;" parent="1" vertex="1">
                    <mxGeometry x="410" y="280" width="69" height="72" as="geometry"/>
                </mxCell>
                <mxCell id="MRQ85Tfam6KHoVeZtCjc-13" style="edgeStyle=orthogonalEdgeStyle;rounded=0;orthogonalLoop=1;jettySize=auto;html=1;entryX=0;entryY=0.5;entryDx=0;entryDy=0;entryPerimeter=0;" parent="1" source="0tJ8A37jzqX78EIoZ7ju-41" target="MRQ85Tfam6KHoVeZtCjc-1" edge="1">
                    <mxGeometry relative="1" as="geometry"/>
                </mxCell>
                <mxCell id="0tJ8A37jzqX78EIoZ7ju-41" value="edit image queue" style="sketch=0;points=[[0,0,0],[0.25,0,0],[0.5,0,0],[0.75,0,0],[1,0,0],[0,1,0],[0.25,1,0],[0.5,1,0],[0.75,1,0],[1,1,0],[0,0.25,0],[0,0.5,0],[0,0.75,0],[1,0.25,0],[1,0.5,0],[1,0.75,0]];outlineConnect=0;fontColor=#232F3E;gradientColor=#4D72F3;gradientDirection=north;fillColor=#3334B9;strokeColor=#ffffff;dashed=0;verticalLabelPosition=bottom;verticalAlign=top;align=center;html=1;fontSize=12;fontStyle=0;aspect=fixed;shape=mxgraph.aws4.resourceIcon;resIcon=mxgraph.aws4.dynamodb;" parent="1" vertex="1">
                    <mxGeometry x="580" y="400" width="78" height="78" as="geometry"/>
                </mxCell>
                <mxCell id="MRQ85Tfam6KHoVeZtCjc-14" style="edgeStyle=orthogonalEdgeStyle;rounded=0;orthogonalLoop=1;jettySize=auto;html=1;entryX=0;entryY=0.5;entryDx=0;entryDy=0;entryPerimeter=0;" parent="1" source="0tJ8A37jzqX78EIoZ7ju-44" target="MRQ85Tfam6KHoVeZtCjc-1" edge="1">
                    <mxGeometry relative="1" as="geometry"/>
                </mxCell>
                <mxCell id="0tJ8A37jzqX78EIoZ7ju-44" value="image variant queue" style="sketch=0;points=[[0,0,0],[0.25,0,0],[0.5,0,0],[0.75,0,0],[1,0,0],[0,1,0],[0.25,1,0],[0.5,1,0],[0.75,1,0],[1,1,0],[0,0.25,0],[0,0.5,0],[0,0.75,0],[1,0.25,0],[1,0.5,0],[1,0.75,0]];outlineConnect=0;fontColor=#232F3E;gradientColor=#4D72F3;gradientDirection=north;fillColor=#3334B9;strokeColor=#ffffff;dashed=0;verticalLabelPosition=bottom;verticalAlign=top;align=center;html=1;fontSize=12;fontStyle=0;aspect=fixed;shape=mxgraph.aws4.resourceIcon;resIcon=mxgraph.aws4.dynamodb;" parent="1" vertex="1">
                    <mxGeometry x="580" y="530" width="78" height="78" as="geometry"/>
                </mxCell>
                <mxCell id="0tJ8A37jzqX78EIoZ7ju-55" value="Analytics" style="sketch=0;points=[[0,0,0],[0.25,0,0],[0.5,0,0],[0.75,0,0],[1,0,0],[0,1,0],[0.25,1,0],[0.5,1,0],[0.75,1,0],[1,1,0],[0,0.25,0],[0,0.5,0],[0,0.75,0],[1,0.25,0],[1,0.5,0],[1,0.75,0]];outlineConnect=0;fontColor=#232F3E;gradientColor=#4D72F3;gradientDirection=north;fillColor=#3334B9;strokeColor=#ffffff;dashed=0;verticalLabelPosition=bottom;verticalAlign=top;align=center;html=1;fontSize=12;fontStyle=0;aspect=fixed;shape=mxgraph.aws4.resourceIcon;resIcon=mxgraph.aws4.dynamodb;" parent="1" vertex="1">
                    <mxGeometry x="580" y="160" width="78" height="78" as="geometry"/>
                </mxCell>
                <mxCell id="0tJ8A37jzqX78EIoZ7ju-58" style="edgeStyle=orthogonalEdgeStyle;rounded=0;orthogonalLoop=1;jettySize=auto;html=1;entryX=1;entryY=0.5;entryDx=0;entryDy=0;entryPerimeter=0;fillColor=#6a00ff;strokeColor=#3700CC;" parent="1" source="0tJ8A37jzqX78EIoZ7ju-57" target="0tJ8A37jzqX78EIoZ7ju-55" edge="1">
                    <mxGeometry relative="1" as="geometry"/>
                </mxCell>
                <mxCell id="0tJ8A37jzqX78EIoZ7ju-98" value="6" style="edgeLabel;html=1;align=center;verticalAlign=middle;resizable=0;points=[];fontSize=14;" parent="0tJ8A37jzqX78EIoZ7ju-58" vertex="1" connectable="0">
                    <mxGeometry x="-0.4211" y="2" relative="1" as="geometry">
                        <mxPoint as="offset"/>
                    </mxGeometry>
                </mxCell>
                <mxCell id="0tJ8A37jzqX78EIoZ7ju-65" value="" style="edgeStyle=orthogonalEdgeStyle;rounded=0;orthogonalLoop=1;jettySize=auto;html=1;fillColor=#a20025;strokeColor=#6F0000;" parent="1" source="0tJ8A37jzqX78EIoZ7ju-57" target="0tJ8A37jzqX78EIoZ7ju-64" edge="1">
                    <mxGeometry relative="1" as="geometry"/>
                </mxCell>
                <mxCell id="0tJ8A37jzqX78EIoZ7ju-57" value="Result fn" style="outlineConnect=0;dashed=0;verticalLabelPosition=bottom;verticalAlign=top;align=center;html=1;shape=mxgraph.aws3.lambda_function;fillColor=#F58534;gradientColor=none;" parent="1" vertex="1">
                    <mxGeometry x="911" y="70.5" width="69" height="72" as="geometry"/>
                </mxCell>
                <mxCell id="0tJ8A37jzqX78EIoZ7ju-69" style="edgeStyle=orthogonalEdgeStyle;rounded=0;orthogonalLoop=1;jettySize=auto;html=1;entryX=0.5;entryY=0;entryDx=0;entryDy=0;entryPerimeter=0;fillColor=#a20025;strokeColor=#6F0000;" parent="1" source="0tJ8A37jzqX78EIoZ7ju-64" target="0tJ8A37jzqX78EIoZ7ju-30" edge="1">
                    <mxGeometry relative="1" as="geometry"/>
                </mxCell>
                <mxCell id="0tJ8A37jzqX78EIoZ7ju-70" style="edgeStyle=orthogonalEdgeStyle;rounded=0;orthogonalLoop=1;jettySize=auto;html=1;entryX=0.5;entryY=0;entryDx=0;entryDy=0;entryPerimeter=0;fillColor=#a20025;strokeColor=#6F0000;" parent="1" source="0tJ8A37jzqX78EIoZ7ju-64" target="0tJ8A37jzqX78EIoZ7ju-41" edge="1">
                    <mxGeometry relative="1" as="geometry"/>
                </mxCell>
                <mxCell id="0tJ8A37jzqX78EIoZ7ju-71" style="edgeStyle=orthogonalEdgeStyle;rounded=0;orthogonalLoop=1;jettySize=auto;html=1;entryX=0.5;entryY=0;entryDx=0;entryDy=0;entryPerimeter=0;fillColor=#a20025;strokeColor=#6F0000;" parent="1" source="0tJ8A37jzqX78EIoZ7ju-64" target="0tJ8A37jzqX78EIoZ7ju-44" edge="1">
                    <mxGeometry relative="1" as="geometry"/>
                </mxCell>
                <mxCell id="0tJ8A37jzqX78EIoZ7ju-79" value="7" style="edgeLabel;html=1;align=center;verticalAlign=middle;resizable=0;points=[];fontSize=14;" parent="0tJ8A37jzqX78EIoZ7ju-71" vertex="1" connectable="0">
                    <mxGeometry x="-0.7282" y="-3" relative="1" as="geometry">
                        <mxPoint as="offset"/>
                    </mxGeometry>
                </mxCell>
                <mxCell id="0tJ8A37jzqX78EIoZ7ju-64" value="Err fn" style="outlineConnect=0;dashed=0;verticalLabelPosition=bottom;verticalAlign=top;align=center;html=1;shape=mxgraph.aws3.lambda_function;fillColor=#F58534;gradientColor=none;" parent="1" vertex="1">
                    <mxGeometry x="911" y="190" width="69" height="72" as="geometry"/>
                </mxCell>
                <mxCell id="0tJ8A37jzqX78EIoZ7ju-89" style="edgeStyle=orthogonalEdgeStyle;rounded=0;orthogonalLoop=1;jettySize=auto;html=1;entryX=0.5;entryY=0;entryDx=0;entryDy=0;entryPerimeter=0;fillColor=#1ba1e2;strokeColor=#006EAF;" parent="1" source="0tJ8A37jzqX78EIoZ7ju-85" target="0tJ8A37jzqX78EIoZ7ju-55" edge="1">
                    <mxGeometry relative="1" as="geometry"/>
                </mxCell>
                <mxCell id="0tJ8A37jzqX78EIoZ7ju-85" value="Status fn" style="outlineConnect=0;dashed=0;verticalLabelPosition=bottom;verticalAlign=top;align=center;html=1;shape=mxgraph.aws3.lambda_function;fillColor=#F58534;gradientColor=none;" parent="1" vertex="1">
                    <mxGeometry x="356" y="100" width="69" height="72" as="geometry"/>
                </mxCell>
                <mxCell id="0tJ8A37jzqX78EIoZ7ju-92" value="" style="shape=image;verticalLabelPosition=bottom;labelBackgroundColor=default;verticalAlign=top;aspect=fixed;imageAspect=0;image=data:image/png,iVBORw0KGgoAAAANSUhEUgAABysAAAI2CAYAAADgsWQvAAAAAXNSR0IArs4c6QAAAARnQU1BAACxjwv8YQUAAAAJcEhZcwAADsMAAA7DAcdvqGQAAOePSURBVHhe7N0JnBTVvff/H/eJkGUG8odhF3TYhjiAATEXleWPWQQkss6g4KMSc/W6DKsBBM0KIgEUWVxIHkWv4DAgEYxZ8K+GHQNCFDQgOKOyDIt6AwMqmOfy53uo0yna7mFmmKF7hs/79apXd5+urjp1qqq7un/9O6daWlr9EwYAAAAAAAAAAAAA59i/BbcAAAAAAAAAAAAAcE4RrAQAAAAAAAAAAACQEAQrAQAAAAAAAAAAACQEwUoAAAAAAAAAAAAACUGwEgAAAAAAAAAAAEBCEKwEAAAAAAAAAAAAkBAEKwEAAAAAAAAAAAAkBMFKAAAAAAAAAAAAAAlBsBIAAAAAAAAAAABAQhCsBAAAAAAAAAAAAJAQBCsBAAAAAAAAAAAAJATBSgAAAAAAAAAAAAAJQbASAAAAAAAAAAAAQEJUS0urfyK4H9fPfvZTS0+/OHhUeQ0dequdOHHGzQXOiXHjxljr1q2DR8lv+PCRdujQoeARkPx++cufW9OmTYNH57cZMx6xv/3tzeARULGeeur/WLVq1YJHVcvChXn2xz/+KXhUMvPmPRncQ3lYsuR3tmzZi8EjVEWV6Zz5+OOP7Z57xvAdE1VK585X2Y9/fGvw6Pzwz3/+8+Q23xY8QmVWvfoF9sQTj1f6a9FXXnnV/uu/ng0elUxVvgavzPgtOrn069fX+vS5LniEc+311/9qjz32ePCoZGbPnmkpKSnBIySLW275UXCvfJU4WLlixQrLzy8ISiqfX/3qF64R+YBAslCwcvPmv9nf/74tKEles2Y9YjfddAvBSlQqClYuX/6yffjhrqDk/DRy5HB7+ulnCFbinFm27AXLyRle5a65rr8+27Zs2VrqYOVLLy2zO+64O3iEs9G/f7+T30fyCVZWcX/60x/sttv+M3iUvNLS6tiQIYMJVqLKUbDymmt+YL/5zf8JSqq2Cy64wO69dyzByipCwcoXX1zmPkcq63vz9753tX3xxT9LHazUn31++tOfB4+QDBRk6dOnH9cJSUTByiZNLrQXXlgWlOBc6dTp361OnTplClbOmfOYHT16NChBoj399JPWvfv3gkflq1TByr/8ZUVQUrk0adLEJk78JcFKJBUfrPzzn5cHJclr6dLfEaxEpeODlatXrwlKzk8PPzydYCXOKQUrhwz531ZUVBSUVA1jxtxT5mDlwIGD7LPPPgtKUFYjRgwnWHkeULDyuuv62vHjx4OS5NShQ3uClaiSfLDy/vt/FpRUbc2bNydYWYX4YGWPHr0q7Xvzj350S5mDlTpvd+06v/+smyyUCbZgwbMEK5OMD1bOnDk7KMG5kp2ddVbByr///e9BCRLttdf+vwoLVjJmJQAAAAAAAAAAAICEIFgJAAAAAAAAAAAAICEIVgIAAAAAAAAAAABICIKVAAAAAAAAAAAAABKCYCUAAAAAAAAAAACAhCBYCQAAAAAAAAAAACAhKixYuXr1Sjt4cJ+bCgp2WnZ2liufMeMhe+utzXbnnXe4Wz2uVq2ae66ktKxt2962cePGBCVA1aHjes+eXe7c8Lp06ezOF39O+cmfP6tWrXDnnD+X/DL8fOFzUPM9//yiyLwPPzz9tGX5dYXXD1RlOjfy83ecdr4MGpQdPPtlOjfONE884fMr3mef6rN9+zt8xuG8oM+vkp57ZaFzTeeczj199ukzsDLw7xVnW1+/zfHebxYvznPPl8dnf/S1hyYts2vXLsU+r3UDJRV9HBV3fAOoWHr/fvPNTae9r/vzsrz4zzG/ruKuoYGS0nEUPmbDv4+UN/+5Fb7G8sdzRa63pGJdn2k6m2vCaOHzN97vucXVo7zaKHzd6+sDlFS8Y7QizmMdo/qeFL2u8rzuLc/vgcmquN/6/PVFcXwbnU2b+/eb8H7UdKZ1l0ZVu1Yq92ClP8ilbt0Gblq6dJlNmTI5EiyRrVu3Wrt27W3EiFF24sSJoLRkmjVLtxo1agSPgKqlY8eOVli419q2bRuU/MvKlasi59Wzz863Pn2uc+dV+E1IH6A5OTm2aNGiyLybNm22++4b787P/fv3W/369YO5T61v+/Z3rUmTJu5xw4YN3fm1b98+9xio6nJy7ra9ewutXr2G7nzZvXuPTZhwrztfAFQMf72ozy9/7r3wwlJ78MEHyjVgqetMXW+uWrX6tM++ZHfVVVe6269+tcZp18/lzbeJ2sdfl5+N48eP2fTpD0WuPw4dOmyzZ8+MBCzDz/fvP9CVDRjQ390CZ6Iv3rrGnTVrVuQYSk1NcV/K/TEG4NzTd1T/Wa6pc+euwTNnL/w5demlHcr0+xEQps+SrKysyPXIXXflWPv233Y/SlfEj7uXX3553N93kkX09ZvO6auv7l4h34eL+z03uh6ayvOc9+8nq1evibyfAKUR6xgdMCCrwj6Xwr8Ba9Lna0WcD+XxPTAZFfdbX0l+GyjJPCV1Lq6Vwu9tlflaqdyDlfpxRR88M2fOCkpO/VD0xBNzg0entGnTJhK51wVB+J/1igiLnlN2iSaVa35lZA4efIOlpKS4W76YoirRG+ZFFzW1P/95udWqVfNL/zYLW7duvR07dszS0y8OSk659tprbf369ad90CxcmOduFYjcsGGD+/FT69IPoDVrptrGjRvdelWmi8eioiJbs2atew1QlemY1zmgIL7XpUu3SHAj/O85fQZpfk8XOb7cfxbpS67/LAv/U0r3Vfbb386NfDnLyhro/uXlPwf9v7ai+ddq8v/a07xar/4ZVhH/5AMqWvh60V9Ijxw52l0v+sc6tsPHvugc1LGvMt36LORY14yaV+W6n5u7wDIyWrlJZXrO/8NR53hxn7eJoB+2duzYaR988GEkeOvrHH5P8O8f4fcqTb69PF1n+/cKzat2Wrr0d9a6dYZrE7WP2knLk1jrCL+/ad6SXIPPmjXbqlevbldeeUVQApSNjn/9cKpr3ClTproyfU5PmjQ5cozpWNXnoq5v/XuFP6bD7yc6vnVMq3cR/w/r6PnD55RfJoCSi3c+aor+vPafJ9GfPZr8Z3f4c8qfv35evU5iLVvrBrzwZ8mDD/7aleXlLXIJFh06tHfHqz4vNm583R0/4eNLwseov64Kfy/z86tctL6S/r6TTPSbka7T9fuRxPoMVVuFM5Z0/vlzXfOLyvRYgVq9pkGDBmX6Pde3sebXen1mptYT3fZeeF+pHpr8de9zz813r1OZhLcvXPd471VANH9c6r1Dx6O+Z/njR8eiPzd0LPnvnirz3+1K8300+vrVZ9LFOmb1vJTmfNCtn9efU1pn9LKT/XzQtsf7rU9/lvXXF9re8HW/Jr0PxGqj6Pc2rSP82tLsR/HvYVpO+L1Ny4/X3rH2pd+W8L4szbVSsu3Lcg9WKktLAZTCwsKg5BRdCOgiIBZ98KgRFWHWv5ratMmM7NyUlFR76ql5rjw1NdVatWppCxY8Z0eOHHG3ikwDVYV+vD18uMjuu++n7gdK/VgZzxVXdHIXkAUF7wclZp07X+XejHft2hWUnKJzT2/IulUQUj8E60cdBSY/+ujjk2+QSyJlWqfWrR+AgKpOx/lzz+Vap06d7MCBwtM+qHXBoC9R+jKrfz7p3BwxYrh7Tl+wXn31NffZpPv9+/dzH/r6jNI/65TtoXNRZZoaN27k5tXnmT7XSspfDGn9/vNx7NifuM9MfSaOGze+Qv/JB1QUfdboejE6i99fL+rCWj8a6bjXpPs6l/w5qHNM52D4fIq+Zgxn7M2Z8+jJC/J33aQ/8zzwwCQrKjrirj3z8vLs9ttvK9eMzrOh9x79O1J/NNKPRf7PRGGq94oVKyP/etf2Xn/9De69Yv78BdayZYvTXqM/Jfl/XOpa/eDBj6xv3/4nvxBtd22i9vHC71n653DPnj1s6tQp1rZtG/dYba/3HL3vnYm+D2g/68cpqV69ho0ePcp9MVqyZLELyFbFf/Gi/PmeP3ROhD/z/DFW3DWzjmmdEzp2fTam3mP0WRqLfiwYOvSWSAaneigZNiwn7vzA+U7XzrqO1nu7D1AWJ/x5Hb6Ojv7sWbt2XeSzW59T/tzXtXDfvn0in0k6p/01c3HXAoA+S3RcRP9eEv1H8IYNG7nfG3Uc6bjU8VmS72U6JjW/ykW/76iXiQkT7j/j7zvJxF+n6zM23meorpt9xpJ6/dI16ZmyR3XdX9zvueHrxPCP68VR248de2+k7f0P/SV9P9G8sb5zSKz3Kq4Fzm/Rx6gmf7zoz3M6z9PTW5z8LCyIHD/KoJs8+QH3e5LeP/x3z27dukWOpwsvbBr5A0WYPl/9enyAsrhjMNZnoD8f7r57WNzzwdP5ox78/OerftPSe5/WWdnOh+J+69P3T7/9uq+2iv4uvWTJ7077rhzvN7fevXtHfjPUrR7HapdkvlZKtn1Z7sHK6A/9ktCPJ4oAa6fNmTPLateuHfkQV4p1fn6B+5BUthdQlekHxC1btrj7sX6gDH9Q3XjjEPcPQP2oG+9NU29+ehP0r9Ebm96wP//81A+HOs/+8Y9/nLwIXBMp0/lYlvMYqKx0Udi4cRN3caEvk/oA1xej8A+jootMBQZFX7D0pTb82aSulPUavV4/wuu+zmlNe/bsjfxZ4OOPP3Lzl4T/fNT5G/35qPVq/UBldKbPGZ1P/rzRpPv6AURfHBTg0meZLsyLig4Hrzh1zag/8JzpmlGfq/ripQCexOupIFH0w5bq498zfJnn/x0abkP9CKZ59G/OIUMGB6X/orbSFxRldOuz3m97LOG21/tjRsYlds89Y05epx90X871XpSTM7xMQcZw10n60qT96b80AWejuPcU//msz2ZNjRo1cp/N8ejPfPoS73+M0vW3fhg4048KwPkq3LWZfqTV50dxYn1ex/rsibccfY7pdfps0/WArgv8H3L4/QjlQYEGZfHrGNRxqeOzJN/LdOzpGs7T88X9vpMsogMw+nFfwUSdX/E+Q7U96enp7ndc/citP8f7bS2r8HWippJ0kxhu++PHj7uyeO8nsX43C88b3t9S0u8WOH9EH6Oawt+Jwtej/vMo3nfPhg1P/ZkznPkXLdwNrD5f9WfWeL//SqzPwNKcD/7zVd9BY32+VrbzId5vfdHO9F06TO934bbTftV3Bb1W74vxuurlWqnkyj1YqZMs3F2Ap4OhuB8jwjtNk/9BGDhf6AcQ/YtLb4y64NPFov7RF/6BMvxBpUkfiuE3QQUd9W8df3GlNy29CeoHQb0JeXozVQaYLpb1Zqpl+DLRmxlwPlK3EKcuPtPsO98p/T9f9W+m8GdZefRDH33ek0mJqkD/rNb1oi6iw8LdlZ6v9G/Mdu3auh+L9KPQRRddFPkxLB5dZ+sfuiNHjnL/Bo22aNFid31w3XU/dF+W9Tlf2vcRvT/qekKv0z4qSZBR3we0n2ONgx39pQkojq5j9cOOzgW9P+i6Wf8YLu4YC9Pnc/izNN4PCd6RI0Xu38Z+fv8DEQCg8vI/zPrfS7xYvVbFUprvZeHfd3RNF+v3nWShH659AEbbqD/XhocFivUZ6oMAyqrUNupP8soUA4BkFP6tL/oPiGf6Ll0c/S6v90VlVep9Phm7Va1syj1YqQ80fZFUVzmeT1ON9wVPAU59iOtg0aQPOb0GOJ/oAlnZWrrg9ReBPoW8NF566SX3T7jwOaQL4jp10oJHp865evXquWxKfxHqyw4d+scZ/+EBVBX6zNFYG9HBEX2J9f+M9UECXcDE+heWp3/R6d+l+vFU/57TRYqWqz8C+IyM8LkY/rKsLpyVYRQt3ufj+RzIQdUQvl70x7O6lLrwwsbuM0jnkz9vNOm+/q2t4JbOFZ1j6ro8NbWme21pKEimwJ3PrCrpD1TngrZVX6DC/9jVfXU1Fu4qKBZ1Vam2i5cxpusDBUG17QpexhNue3UFpPedZ56Z597TFBjSoP3qEqckcnLuNv3LPdafoLQPtS/1Pgecic5bdf2sa1x9ziqj5Uc/GuqyW95++x2XAeMDlsqMDH/e+s9nHc867jS2jz6f/bGnrOrw/Pr8V1devmtozcsPD0DpxDsf44n12aPbWLRsdVum6wA+S1Aa4c8Sf3zpmFO3h/46SsHH6GtQHZ+l/V6m41Pf9fRHr7P5fedc0+9RulZUt5US7zPUT6NG3eOuVXW99+6777rX+j+iFdeLQWmoDjrndR1akuv/eO8nsfZVeN7w/gbKS7zvnoWFxf/RLp7o69e0tLrucTylOR/856uWW9k/X7W98X7rCyfzeMV9l/aJQbHe2/QboT4L9N5Z2kBneb23xVKZr5XKPVipk1D/QtW/tn0XAvrgVx/i8QIgAwdm2+7de2z27JnuC6cOkOK6ltIXSF1AlGZAZiDZ6c1ux45TXdt5ynrUj5al+Yea/uGmf4PovPPnoP7dsWjRosh5pR+JL7jgAvdGpTfdcJkCmMD5Qp9Lc+f+JtKPvc4X/aNq6tTp9uijj9nEiQ+4L6Uq10XBzJmzgld+2ciRo23dunXufFM2lC5mdMGi805dNejzTWNgKVtDdO7pnNfnWG7uc/bFF1+48jC93r/Wfz5qPcVlgwCVgb9eVNek/tzTmAoa70d/btN5o+M9fOyrbMaMR9zrdY5pbBx/PpWEPvPUfZe+TIwfPyGy7uzsbHviiblJkTWlLxMK4vo/EokP7CpgGY/vfkbtePjwIfcFWF96wrQcvXdoXs+3yV133RmUnPp3qG97vZ/p/s03D7VXXnnVlWkdtWrVtEcemRm84l+iuxHTfBofRf/Sj35e+1D8PgXORMemxpHMycmxX/3qF66r1j//ebn7DFdWto5x/QChYyz8eavX+X8767jTeLX6/qn5Dx8+/KX5dW2g9wQtV8eqrgN0PeCPYwBnFu98jEfXt9GfPfpeG/6c8j826s8JL7yw9LRzWtfMQEmEP0v0Hq9jbvPmv7nPhfB3rIcemu6e03cxvaa038vO9PtOvCBnMtB3Xn331Y/w8T5Ddf3WokXzSK9gf/zjn9znp64zfXe5sZTl91x1m6nX6Dfjklz/q87R7yf+T03R7yfhef1+VRkQS6wxK/WHtlatWhV7Tt977/hInMR/91yxYkXc94/ixLt+jccf4zp/4p0Pnj53NdyY5tP57n/TKks9E6243/r0vhz+bSDWd2n1AHXgwAE3j/5U/cYbb7j7WlZ4X+v90v/+npWVFXM83nj8H3r13lOS97bz5VqpWlpa/TMecT/72U/dSfSXv6wISioXZa1MnPhLu+WWH1XKEwxVk/79oIti/ciS7JYu/Z3ddNMtdujQoaAESH6//OXPbfnylyMB+fOVLqyefvoZ+9vf3gxKgIq1bNkLNmTI/3Y/UlYkHdvhAGdFGzPmHtuyZav7MaY0XnppmQ0cOMg+++yzoCQxdN2hL7T33/+zuH8gTHYjRgy3/Pz8k8fYi0EJqqI//ekPdt11fV2WRjJTEFNd32lMV75joipRjx/XXPMD93lxPmjevLnde+9Y+/GPbwtKUJlVr36BvfjiMuvRo1eZ3psXL85zw+OE/2x1rv3oR7fYF1/80/7rv54NSkpm3rwn3XlLZmBySElJsQULnrU+ffpxnZBE+vXra02aXGgzZ84OSnCuKCOwTp069thjjwclJXMque0x+/vf/x6UINFee+3/s+7dvxc8Kl/lnlkJAAAAVAR146J/LWq68cYh7p+flTXwdi4psKt/VW7d+naxXcACAAAAAAAkAsFKAAAAVArqusSP+6NJ3drwT+UzU5cxaq/K2o0PAADAuaAuTtu1a0/X3wAAJADBSgAAAAAAAAAAAAAJQbASAAAAAAAAAAAAQEIQrAQAAAAAAAAAAACQEAQrAQAAAAAAAAAAACQEwUoAAAAAAAAAAAAACUGwEgAAAAAAAAAAAEBCVEtLq38iuB/Xz372U8vM/FbwqPz9P/9PbXf73//9ibutCJ999rndcsuP7MSJM24ucE6MGzfGOnRoHzwqHykpKXbBBdXL/VyqUeOrdtNNt9ihQ4eCEiD5/fKXP7fWrTOCR4mhz7cvvvjCjhwpCkoS44EHHrS//e3N4BFQsZYte8E+//yz4FHF0jl27Njn9umnnwYlFeupp562P/7xT8GjknnppWV29OjR4FFyqqjrh4rw7LMLTh5jLwaPUBX96U9/sMOHy/eas6K+b+7atdvuuWcM3zFRpXTufJUNG3Z38Ojc+cY3vmHVq9dIyGfR4cNF9uMf3xY8QmVWvfoF9uKLy+zQoX8EJeXvXFx/vvjiS/Zf//Vs8Khk5s170r7+9a8Fjyqvc/Eb8bnyta993a67ri/XCUmkX7++dsMNg4JHlY/OD/02+z//83+DksrltddW2GOPPR48KpnZs2davXp1g0eVV1V6b6tbt6517/694FH5KlGwUhWoSLoYbty4kS1cuCgoqRgHDx4M7gGJVxHn1be+1frkm0V3e/TRx4KS8nP8+HGClahUKvqzqyTuuOM/bcWKFfbOO38PShKHz0CcK+fy3Bs1aoQtWfKCvf/++0FJxSvtuZQM70Vnoj92fPe7V9ucOeV//VAReD+r2irinBk8+HrLzy+w9etfD0rKD8cjqppEfW61aNHcevXqaTNnzg5Kzi3O5apBwcpatb4ZPKoYI0cOtxdeWGYFBQVBScWoitecJfHd73a3lJRUW7p0WVBSufHeklwq+3ny4IMP2C9+8Sv77LNz8+fginC+vrddcUUnu/jii+y55xYGJZVbRb23lShYWdEUXGnatIk9/fQzQQmAsmjTpo316HGNTZs2PSgBkEijR4+y5ctfti1btgQlAMrThAnjbeHChbZz53tBCcoiMzPT/UA8deq0oASoWm69dajt2LHTVq5cFZQASDb644wyXiZPnhKUAMlJ1595eXnucwXlr2fPHlarVk3Lzc0LSgB4c+bMsjFjxtrRo+emZyGUn27dulrz5s3sySfnBSWIhTErAQAAAAAAAAAAACQEwUoAAAAAAAAAAAAACUGwEgAAAAAAAAAAAEBCEKwEAAAAAAAAAAAAkBAEKwEAAAAAAAAAAAAkBMFKAAAAAAAAAAAAAAlBsBIAAAAAAAAAAABAQhCsBAAAAAAAAAAAAJAQBCsBAAAAAAAAAAAAJATBSgAAAAAAAAAAAAAJQbCygqxevdLeemuzdenSOSgxe/jh6Xbw4L7TJj/PuHFjrKBgp7tNRosX57ltqlatWlByZtquN9/cZDNmPGTZ2Vm2bdvbbvv0WNuqsnjUVmqbrl27BCUAAAAAAAAAAACoaghWVgAF4WrWTLXjx4/bVVddGZSecuTIEbv77mFWt24D699/oCsbMWK4u01m9evXD+6V3KpVq+3SSzuc3L5R1qxZutWoUSN45sxGjhxt7dq1t5UrVwUlAAAAAAAAAAAAqGoIVlaAK6+8wg4fLrLVq9dY796942YjKpi3Y8fOYgOBPiNx48bXXTbioEHZLsPRZ2Y+//wiN5+yGJWJ6LM1t29/57QsRr0unOkoeq1fjpYpWp/m9+WaV1Pr1hmWkdHKZTx6Kg9nhmqder2v85w5s9zzubkLbPDgGywlJcXdNmjQwL3+vvvGR+qrZYT5zMo777zD3f7hDy/anj273Pxz5z7uysL11vr985q0bWp3v81+Pb5dJLodS5M1CgAAAAAAAAAAgLNHsLICtG3b1n7/+9/b2rXrXIZlVtapDMpoCqS1bNnC9u/fH5TEVr16dfvggw+tWbOWkWXVq9fQ7rorx9q0yXTBN5+dqWzNV199zVJSUt3jeBRo1Lo1vybVU2UKau7Zs9ct/9ln59vVV3e3JUt+Z9u2bbft2991GY+etk/ZksoeVQDy4MGPXKBWWZQK/BUW7nPz7du3zxYseM5llepWjxW4VD21DampqTZgQH83bzwXXnihXX/9DS7T8tprr3XLmT9/gTVu3MgFR7UMPa+MVdVb26b2VbuoLtHt4oO8ml91yMy8xMaO/YkrAwAAAAAAAAAAwLlBsLKcKXCmAN6aNWstL2+Ry7BUAM9n7SlIN3v2TJfNt2TJYlc2Y8Yj7rY4u3btcrfKwlSG44EDhS5zsXbt2vb973/fBeeUpalsTQURjxwpcvPH06RJE2vYsKGrgybd79ixo23YsMHS09Pd8lVndeMaryvWwsJCO3bsmAtUKkD7/vvvW1paWiRwuWLFCjtx4kQw9+kUuFQ9tYyiouLrKn7b1A4ff/yRa18FPdXVrkyYcL8Lmiq78sYbh7iyNm3axG0X347aD2rHOnXq2OWXXx7ZTwAAAAAAAAAAAKh4BCvLmTITFQRTAFCBMN1XENALj1mpSeMyKpBWGgoeKvPRL+PnP/9F8EzpKFPSL0NT585d7cEHf22NGzdx2YlDhgy2/PwdbptiBfF8N7atWrW0Y8c+d93eXnzxxSeXc5Vt3LgxmOvcUJeut99+m40aNdplXJaE2jG8/QMGZMUNrgIAAAAAAAAAAKD8EawsR75bVwXLfABMXYympdVxXYyWR9aeuozt0KF9ZGxIjS+pLlQVNPRdnyqT03d3quxDSU+/2GUepqXVdY+VoagMSnUhq9doPEd1jeqnUaPusenTH3KZi8UF8LScb33rW1ajxlft8cefcJmWqak1I+s9lzZt2uyyWS+77DL3eOvWrXHbJbodFZRVN7hkVgIAAAAAAAAAAJw7BCvLkYKB6gJW3Y16Cp6pS1R1MVoeBg7Mtt2797iuZNV9qQJ0I0aMinQlq4xOjTPpuztVd6mHDx+20aNH2dCht0TK9Zr169e7cr1G3dUqs1DLUXBP3cDquT/+8U+2aNFiF3xUlujDD093r/f8tv7jH/+I3CrLMtwGkp9f4IKegwff4LqJLW/K5OzatYurd1HRYbcftB5tj9Yb3S7aVo3NqTbUtHnz39x4nGRWAgAAAAAAAAAAnDvV0tLqJzw60717d2vatIk9/fQzQQnOhjIFf/WrX9hTT81z3briFGVO9ulznY0de68LIldFGqezR49rbNq004PKABJDf/pYvvxl27JlS1ACoDxNmDDeFi5caDt3vheUoCwyMzOtV6+eNnXqtKAEqFpuvXWo63El3lj8ABKvdesM69evr02ePCUoAZKTrj/z8vLc5wrKX8+ePaxWrZqWm5sXlADwlHAzZsxYO3r006AElUW3bl2tefNm9uST84ISxEJmJaq0xYvz3NihmjQG59Kly6psoBIAAAAAAAAAAKCyIVhZBSkYl5FxCVmVJ6nbXD9+qCZ1fwsAAAAAAAAAAIDkQLASqOR69742uAcAAAAAAAAAAFC5EKwEKrlf/OJn9tJLywhaAgAAAAAAAACASqdaWlr9E8H9hOnevbv95Cej7P33PwhKAJRUr1497Rvf+Ia7/49/HLJVq1bZj370Y/cYQGKNHj3Kli9/2bZs2RKUAChPEyaMt4ULF9rOne8FJSiLzMxMdz0xdeq0oASoWm69dajt2LHTVq5cFZQASDatW2dYv359bfLkKUEJkJx0/ZmXl+c+V1D+evbsYbVq1bTc3LygBIA3Z84sGzNmrB09+mlQgsqiW7eu1rx5M3vyyXlBCWJJmmBlixbNbf78BUEJgJJatWqF/du//Zv99rf/x/7617/a97//PXvggQeDZwEkEsFKoGIRrCwfBCtR1RGsBJIfwUpUFgQrKxbBSiA+gpWVF8HKkkmabmCPHz9un376KRMTUymnxx9/wtq3v+zkB9aj9tlnn588l74IzioAAAAAAAAAAIDkxpiVQCX3m9/8NrgHAAAAAAAAAABQuRCsBAAAAAAAAAAAAJAQBCsBAAAAAAAAAAAAJATBSgAAAAAAAAAAAAAJQbASAAAAAAAAAAAAQEIQrAQAAAAAAAAAAACQEAQrAQAAAAAAAAAAACQEwUoAAAAAAAAAAAAACUGwEgAAAAAAAAAAAEBCEKwEAAAAAAAAAAAAkBAEKwGU2qpVK+zgwX2nTc8/vyh4tuxmzHjI3nprs3Xp0jkoqbzUHqtXr7Rq1aoFJacsXpznysub2kxtp/VGr7MksrOzbPv2d2zcuDFByZed7f7RdutYKa/tV11VZ9U9XnsDAAAAAAAAAJIbwUoAZbJ9+7tWr15Dq1u3gU2f/pB16NC+2EBXSYwYMcratWtvq1atDkoqr/r16wf3ThevvKpTQLFu3TR3rHTu3DUoPTsNGjSw6tWruwDlgAFZbrknTpwIngUAAAAAAAAAVAYEKwGctTVr1trhw4dd8EjZd8p206RMN5/xp4y6PXt2uYCmpoKCne5Wz7/55iY3bzhzT8EtzRN+nSgz0Wdzat6uXbu4ci96/RLOBPWZh369fjmaX+vQ8+E6bNv2dsx1+2WH66lJ69eUkdHKTQ8/PD2S7af7rVtnuHLNE6ttoqlMz0XPo9f7dfq6yEUXNbXduz+M1MWvO7oNJLz+++4b78rEt4HaNroNvHC9tP2az7ep6hOuq8q1/Nq1a9vtt99m06b92r1G9ROfFenXtXHj6265xW2v5u3T5zpLSUmxnJy7I8vQ9uq5/Pwdp9VNk/ZxrGUDAAAAAAAAABKHYCWAs3bVVVdazZo1bd++fe5xSkqqPfXUPJfpNnnyA3b4cJHLwMzLy3PBqoKC923p0mXWu3dvGzCgvxUVHTkt265t27YuuKV59LpFixbZ4ME3nCybcPK5Ni47r3//gS6Lrn//fsGr/iW8fgWxFMBSFuhdd+VYZuYlNnbsT2zEiOGuXMt59dXX3GuKo2BZq1YtXQafXpOamuLKBg3Ktj179rp6zp+/wK6+uvvJdS4xZZ5qGjlydCTbT/e3bdvuypVFGm4bbaPaRkG1sGuvvdbWr1/v6r9u3TrXZj5Qp/WpLjVrpp7ctjvd/Mo0vOGGwbZy5SpXFwUKo9ugTZtMF6hTG0hJ28Dr1q2bDR16i82aNcvVfdOmzTZsWE7w7CkXXtjUHnzw1+6+MmUnTnzAPvnkE3viibn2179ucOWxqP4ffPChq2t+fn7c7b3yyivc8XHkyJGT9ZgdvNpO7vOrbMKEe23z5r+5ZahuOpZatWoVWbbqXFBQ4Jbtg7kAAAAAAAAAgMQgWAmgTJQdeOBAoctSGz16lAsK+eDU8ePHLD+/wAXKFFjauHGjK1+3br0dO3bM0tMvdsE6BTcVhAoHm0QZeKmpqTZkyGC3fN3WqZNm//znFycff+TWN2fOLMvJGe6WE82vX9Ttqq+rXlOnTh37/ve/by1btrAdO3a6QNratevsyJEiN388TZo0sYYNG7rA35Ili61Ro0bWsWNH27Bhw8ntSXf1lJJ2YxvdNqrD8ePHrVmzdPfY0/PKcNy9+0N3XwFYzaN59RqtS+ucM+dRN7/fpg8//NA9lnr16p3WBmrfsrSB17BhAxfY1H7Qdqt+jRs3ckFMBf/2798fzFk2u3btcrd+ObG2N9Z+F+2jGjVquP2iILFu9fib36zlno9eNgAAAAAAAAAgsQhWAiiT8JiVmpRxWFoKJFavXsMFL6MpOKUMSr/8xo2buGCognXKrlMgSoFDTWeiLMNwXX/+81+UaWzD6G1WXVQn1U1Zfwqq+m5Hy4uyMbUuZVUqOKjuWRU4La1YbXA2FNhUlqZfXnp6C1uxYkWZ2hUAAAAAAAAAcP4iWAmgwigLTt2cKgNRrriik8tyUzew6kJVWXjqSnTgwAEu09BTd6HKwFQ3naJ5FQTUWIcK1il77tJLO7guVc9EGXQdOrR3AURNGstQXc/u3PmeyyzUetWlqO8CVZl3yurUOlSemlozUq4MSnUhq9dobEYfLNWkTD8FVxVkLYnottG61E2pzwj1NNaktj8ra5A9++x8V1ZYuM/Nq9eoLmqTn//8Z+65WA4cOHBaG6gt1QbKqixNG3h+/eoCV7T9qoO67y1Jt6qFhYVWVFTkgq5at+pQHLVJ9PbGC1Jr2Tp2Lr/8clcX3erxP/5xKJgDAAAAAAAAAJBMCFYCqFD33jvedXeq7kKzs7PdmIUKWvruX5WZ+Nlnn7vxG70tW7a4MQ7Vtahel5WV5V53zz1j7JVXXnVdmaq8Vq2a9sgjM4NXxaaMz92799js2TPd6zSWobIVZ8x4xGUBqktXje3ou0BVV6OiecPlCkb67Ea9RuNsatlajoJtqo+e++Mf/2R5eYtckFRdrz788PTTAni+XAHIcNv4bdRrw9RG1133Q9eFq9pvwYLnTrbNJDevXqO6iMbJjCe6DdRlr7ZHdZdYbaC20fzhck8ZlFp/p06dXN0VCNX+0n4rSWalArUKlKr72Nzc584Y4FWbRG+v6q5uhJWZm5NztyuT1avX2KRJk619+2+7NvN1e/fdd4M5AAAAAAAAAADJpFpaWv2E99nXvXt3a9q0iT399DNBCYCyaNOmjfXocY1NmzY9KEFJKNvwV7/6hT311LzIuJtAeVAAe/nyl10gF0D5mzBhvC1cuNBly6PsMjMzrVevnjZ16rSgBKhabr11qPujlLrFB5CcWrfOsH79+trkyVOCEiA56fozLy/Pfa6g/PXs2cP9MT03Ny8oAeApAWHMmLF29OinQQkqi27dulrz5s3sySfnBSWIhcxKAAAAAAAAAAAAAAlBsBLAeU/djGZkXEJWJQAAAAAAAAAA5xjBSgAAyknv3te6MUkBAAAAAAAAACVDsBIAgHK0atUKmzHjITfuDgAAAAAAAACgeNXS0uqfCO4nTPfu3a1p0yb29NPPBCUAyqJNmzb2wAMT7eOPPwpKAJxLDRo0tI4dLwsemR08eNAGDRpsW7ZsCUoAlKcJE8bbwoULbefO94ISlEVmZqb16tXTpk6dFpQAVcuttw61HTt22sqVq4ISAMlGf/Tr16+vTZ48JSgBkpOuP/Py8tznCspfz549rFatmpabmxeUAPDmzJllY8aMtaNHPw1KUFl069bVmjdvZk8+OS8oQSwEK4EqRMFKXdhNn/5QUALgXOrVq9fJC4/f2OLFz9vjjz9hP/jBD+zPf15OsBKoIAQrywfBSlR1BCuB5EewEpUFwcqKRbASiI9gZeVFsLJk6AYWqGJOnDhh//M//8PExJSA6eQZaFdf/X2788677a23trjzEQAAAAAAAAAQH8FKAADKye9//5Jt3bo1eAQAAAAAAAAAOBOClQAAAAAAAAAAAAASgmAlAAAAAAAAAAAAgIQgWAkAAAAAAAAAAAAgIQhWAgAAAAAAAAAAAEgIgpUAAAAAAAAAAAAAEoJgJQAAAAAAAAAAAICEIFgJAAAAAAAAAAAAICEIVgIAAAAAAAAAAABICIKVAAAAAAAAAAAAABKCYCUAAJXUuHFjbM+eXXbw4L7IVFCw07Kzs4I5vkzPbdv2tnvt888vstWrV1q1atWCZxNnxoyH7K23NluXLp2Dki/z26tJ9yvaqlUrXBupTm++ucnV8WzbSu2t/aTbiqS6l/SYKIvw/kqm4wgAAAAAAACVD8FKAAAqsePHj9n06Q9Z3boN3LRnz14bNiwneLbyGDFilLVr195WrVodlHxZx44draCgwC68sKk9+OCvg9KKoSBczZqp7v7q1Wvs0ks7uDqeOHHClZWFAoZ166a5/dW5c9egtHz5wKoCh/XqNXTHxAsvLLUpUyaXa8AyvL/q1asXlAIAAAAAAAClR7ASAIAqZOPGjS7Idt99E1xGnTLgxGe/xeMz/uJl/S1enOcy6bp27XJadmY4uzOc8RguVz0GDcqOvG7jxtcjZZ7P1FO9t29/x80TXqae79atq2VktHJ1UVBO84fn8WWqv8qeeWaeW9Yf/vBiZD4tR+vWY7WJX7ce+0mPR4wYbo0aNbJOnTrZ7Nkz3XJVriCgXufnDS9D69Kkct9Wnuo2YcK9Vrt2bbv99tts6dLfReb37R29XK1L26q28Nuqef18sTImr7rqSvvqV79qM2fOigRWR44cbU88Mdfdl1j190FOlWldqpdv9+jt0rwq1/3c3AXWunWG2y8PPzz9tOX4/QIAAAAAAAAUh2AlAABViLIPDx8usnfffTcoObOxY3/iMv7uuivHTbpf0iBT7969bf369S6DT7d6rADa0KG32KxZs1z5G29sspycu9381atXtw8++NCaNWtpCxfmubJofh69Nj8/3y1TAbcVK1ba9u3v2sCB2fbAA5PcdmqeRYsWuQBgt27dgiWYNW7cxH7/+5fsggsusJo1a7ksQy2rT5/rTm7beFu5cpW1bNnCBddEy9GkcrXhjBmP2N69e9025eYujAT+FJDr0KF9pK10X4E7SUlJtaeemufKU1JSrH//fpGuUZWBOGnSZPvkk09c4FAZon5+ZVlqGVrW3XcPc69v3/7bbl16fcOGjWzBgudcRmZ6erpbnuaRK6+8wt16qvuxY8ds3759QckpykTNy1sUWU90/RWc1boGDMiyV199zdXNC29XamrqyXn6B8+YzZnzqG3btt3tF+0j7ZeioiOuvfPy8tx+Kc+MTgAAAAAAAFQ9BCsBAKjEqlevYaNHj4pkyjVu3Mhl1ZXGmjVrXYBrzpxZrgvZjIxLStzNqjI5lUGoLLoNGza4wFuzZukuwOXrpYxI1es737ncBcR27doVvDo+P8/+/fvdbVjnzle57FGtW9auXWfHjx+3hg0buMfRr/HzqVzd5CpoF66DujRVwE51DWdDxtKkSZPIMjTpvspEXfLm5xdYYWGhFRUVubLi+PmluOV+/PFHbhs175EjRa6d463jTG0baz1t27Z1gdsdO3a6oKrWVVR0OHhFybcrer+sW7fe7RcdDwAAAAAAAEA8BCsBAKjEosesTE9v4YJQpaExGTX+oDLnFFRU0M5nC56JAn1arzIQFZxU16AKiCmopuWF6/XXv244qzEfK4ICdarz1Vd3t/79B7rMyspMAdkaNWpYgwanAree7z4WAAAAAAAASDYEKwEAqIJ8FpwCh+rqVJlz8agbWI2LqNfcdNMt7jaaMvbUBWjDhg1d16OpqTVduYJgCmyq+9D58xe4ssLCfa4rVz8mpR/vslWrVpFuUc+GgqvqAlZdnorqo/VpvWWlrk+luHYStYMCuuraVJPunymbsSTKa7nKkv38889dhqxva3Unq+Wp291Y69myZYvLqvTd4ob3b2lE75crrujk9ovPHgUAAAAAAABiIVgJAEAVpO48FYBSt6a5uc+57jjjmTJlqhsjcsmSxW5SwEkZk2Hq0lNZkbNnz3RZiMqcFHU5q3EglY2ZlZXlxlacOHGSG5exU6dOrvyyyzq48Ro1jmZ5ZVaOHz/BdTnq16v1rVixIni25HygbsiQwa6ddu/e7ZarQJ/aQdtw/fWDIoE/jcu4adNm12WuJt2Pbquy0DK0LLWvlrt589/cukrbXtrvGvcyNTXFDhwodO3Tt28fGzv2Xpdx69cTXX+N0al1KfsyvH9L4sCBA5aR0coFRbVf/Lqzs7Pdfiltpi8AAAAAAADOL9XS0uonvD+27t27W9OmTezpp58JSgCURZs2baxHj2ts2rTpQQmARFK3qMuXv+wCYkBloaCjApzjxo132ZjJbMIE1XGh7dz5XlCCssjMzLRevXra1KnTghKgarn11qHujymVvatvoCpr3TrD+vXra5MnTwlKgOSk68+8vDz3uYLy17NnD6tVq6bl5ib39xAgEfSH4zFjxtrRo58GJagsunXras2bN7Mnn5wXlCAWMisBAADOc+qqV1mYmm68cYgtXbqMjEgAAAAAAACcEwQrAQAAznMDB2Zb3boNIpO6hi2vLnsBAAAAAACA4hCsBAAAQKWg8UPVZSkAAAAAAACqDoKVAABUkP/1v/7NLrjgK1a9+gVMTEzlMH3lK1+xv/zlFXv00dn27W9f6h4DAAAAAACgcquWllY/4X18de/e3Zo2bWJPP/1MUAKgLNq0aWM9elxj06ZND0oAJNKkSb+yli1b2qFDh4ISAGejadOm1qFD++CR2b59+6x//4G2Y8fOoARloWzVXr162tSp04ISoGq59dah7n1i5cpVQQmAZNO6dYb169fXJk+eEpQAyWnChPGWl5fH9WcF6dmzh9WqVdNyc/OCEgDenDmzbMyYsXb06KdBCSqLbt26WvPmzezJJ+cFJYiFYCVQhRCsBJLL6NGjbPnyl23Lli1BCYCzoW5gZ816xH7zm9/aY489bjfffLPl5ubazp3vBXOgLAhWoqojWAkkP4KVqCwIVlYsgpVAfAQrKy+ClSVDN7AAAACoNDp06Gjjx99nu3btthMnEv6fOwAAAAAAAJwlgpUAAACoFHJzF7ogJQAAAAAAAKoOgpUAAAAAAAAAAAAAEoJgJQAAAAAAAAAAAICEIFgJAAAAAAAAAAAAICEIVgIAAAAAAAAAAABICIKVAAAAAAAAAAAAABKCYCUAAAAAAAAAAACAhCBYCQAAAAAAAAAAACAhCFYCAAAAAAAAAAAASAiClQAAAAAAAAAAAAASgmAlAAAo1vPPL7KDB/dFJj2uVq1a8GzZLV6cZ6tXrwweVQ6rVq1w2x+WnZ1l27e/Y+PGjQlKvqxLl8725pubIu1X0VQX1Ul10/rKo521jHNR92hnqv/MmY+453VMnu0xpXbbs2fXacf7W29tdvuvuOe7du3ingcAAAAAAEDpEawEAABxKTjToUN7mz79Iatbt4G77dSpkz388PRyCVhWJgpY1ayZGjz6l7y8RZaRcYk9+OCvg5Ivu+qqK+2rX/2q3XVXjg0YkBWUVpz69etb9erV3T7S+jp37ho8Uzbxtj0ZpKXVCe6ZDRyYfdbbevz4scjxrunw4SKbM2dWJGAZfr5//4F24sSJk7f9zrvzAQAAAAAAoLwQrAQAAHE1aNDA3RYUvO9uFZBr3LiJjRgxygVplMnmM8x8RpvPNNy48XVXrkw0n3WoIKcvu/jii1yZ6LXRywnTepTBVlCw02XaaR26H738cOablqPX3HnnHe5Wr1NASXUIZ8uF1+0zB8PL8csfMWK4NWrUyAVr/foknFmp1/t6+jro+dtu+w+rXbu23XffeLdezRe9zhkzHnLL0bRp00a3nD/84cVIPebOfdyV+eVKuJ5+WVpfnz7XWUpKiuXk3O3K/PzhdtOtHmvatu3tmPvL07Y3bNgwsu3aBl+XWPNLrLr514XbXNut/aLnfPapJs3n95FoPl/m57355pssPT3dMjJauf0a3tbodYieDy+/JBmRM2fOsho1ariAMwAAAAAAAMofwUoAABCXgpJ79uy12bNnRoI+PoNMwaFWrVq67DJNyrzzQSFl9X3wwYcu+yw/P9969+4dCaLNn7/Arr/+BrvgggvcvApq1a2b5rIONel+rOBXamrqyfLxJ9fxiE2YcK8tXbrMLX/RokU2ePANLiip2/Xr17tyBVPPRMEr0fxad5s2mW7dqq+WU69eQ1u3bp17rPXu3bvXlReXRenrqey7xo0bWbNm6TZ37m/sk08+sYkTH7ABA/q7bFW/vbrv2y0lJdWeemqeDR8+wtX/wgsvtBtuGGwrV66ya6+91hYseM61n5ar9tS61Jaq/7PPzreWLVvYvn37bNmyF+3IkSM2a9Zst1xRgE/B0k2bNrv5davHrVq1csE47S9tr99f4UxBbXthYWFk2ydPfsBlHGo5eXl5dvvtt9mgQdnB3KcoWOrrpjqrbm3btg2ePdXmK1astKuv7u7qlpmZaY899oQrV7tEBwjXrl3nbhU09ZmqGzZssIKCAtu+/V0bOXJ0ZJ+rPdVGWo72Q8+ePWzatF+7/avHpcmI1HYfO3YsErivXr2GjR49yp0PS5Ystp073ztt3QAAAAAAACgdgpUAAKBY6lZTASQFebKysmz37g9dQK9p06YucKSAjSbd79ixY/Aqs127drnb/fv3u9srr7zCBYbWrVtvq1atth07drryNWvWumCQutocNiwnbpeqRUVFLnCk9ShIN2TIYBcw0m2dOmkuIKVyBbBk48aN7rY46i5VWXlajtav7MfLL7/cvVZZd9pW3S9N16K+nvn5BW67ojVp0sQFgNV9rCbdV5moi1GfxSpqI7XVhx9+aB9//JFrKwUjjx8/7p6fMOF+F7hTBuONNw5xZfGo3RQA9O2jWz3+5jdrucfR+yseBRYVmPbtq/2p7UxPv9g99u6776eRumkfhfl1+HXK448/YW+//bbLmNS+UOA2TG2lAKmOIwUODx78yP7+923Bs6cLt7GOJR1T99wzxr1GgUYtPydneCRDuDSiu4Ft0aK5y/w9U9ATAAAAAAAAsRGsBAAAJeK7gFXmnQJ6oow2BW38VJbxAhWMa9fuVKahsuF8BmdxFKzzASNNqteaNWuCZ0tHWYvhbdAYjwpi6b6yKhXcUpehygpMtoCUujpVVuPIkaNc9mIyWbVqRanqpn2uoPdrr/3FHQtHjhQFz/yLAqQKiGsqSTA6mo5Pn1WprFpNZ9qnPsirIHE0H3RX0BsAAAAAAABlQ7ASAADEpWCOxjaM7uJTGXGaNF6gsiyVbaeAnu9WNRZ146kg0RVXdHLzq1tQ0es1XqKyEW+66RZ3WxzfLae6KhUFuVTHr3zlApfV6AOpPstz69atdujQ4UhAKZz9qQw/dcPqx27UcrQ8BQF1m5U1yHWvWp7Ubr4bV026H84wLC1156oMwssuuywoic23m28f3erxP/5xyD0uKQXolOHo21H7U8G8cEao5+sWbvPiqI5LlvzOZU9GZ1bK888vcbfqKth3CxtLuI11fGm/PvPMPHeMKvh46aUdbNu27cHcxVO2r9pJWa3R/HF8pmxUAAAAAAAAxEewEgAAxKUsw/CYlZoOHDjgxuhT9qHPPFRGnAJYmj+eRYsWu3Em1SVobu5z9sUXX7hyZWxqvETfnayWo2XHo2DZpEmTI1mY6pr2iSfm2sSJk9yYjp06dXLl4Yy5N954w3X3euBA4WnlfvvULagmBde07pkzZ9l11/3QzZ+dne2W++ijj7mgp5avAFhZaflaT/Q6y8J3V6vtLSo67IKG6iJVWYAaWzEn5+5gzlPtpjEzFZzV/LrV43ffffeMXaH6AKXf9nvvHe+6gtVy1D5q/4UL84K5TwnX7fDhQ65u6mY3HgUfNc6lAt6dO1/lur3140R6qocCg+rOVceT6v3RRx+7fasxVP2+Dbexjk/dVyD81Vdfc2WqU61aNe2RR2Z+advDY1Jq0nYq01Prjn5ex6vWGWs5AAAAAAAAKJlqaWn1E/7LSvfu3a1p0yb29NPPBCUAyqJNmzbWo8c1Nm3a9KAEQCIpoLF8+cu2ZcuWoATnkoJX3/3u1Xb33cNcV6+o/JTJqGCjgo4KmI8ff68tXLjQdu58L5gDZZGZmWm9evW0qVOnBSVA1XLrrUNdl818FgDJq3XrDOvXr69NnjwlKAGS04QJ4y0vLy8y/j7KV8+ePdyfCnNzT/8jJABz34XHjBlrR49+GpSgsujWras1b97MnnxyXlCCWMisBAAAQNJTl67qylXUHSyZjAAAAAAAAFUDwUoAAFAlKfOuXbv2ZNJUERr7Mj29hdunvktWAAAAAAAAVH4EKwEAAIDzzF133Wn/9m98FQAAAAAAAInHmJVAFcKYlUBymTDhXnvllVftnXf+HpQAKE8/+clo1yVsfn5BUIKSeu21V+yrX61h/+f/PGVr1661733vezZx4qTgWaBqYcxKIPkxZiUqC8asrFiMWQnEx5iVlRdjVpYMwUqgCiFYCSSXSZN+dfLzran94x//CEoAlKdLL23nApVFRUVBCUrqhz/sbd/4xjfc/U8++cQFLIcO/bF7DFQ1BCuB5EewEpUFwcqKRbASiI9gZeVFsLJkCFYCVQjBSiC5jB49ypYvf9m2bNkSlAAoT/qxaOHChbZz53tBCUpq48bXbffuPfbYY4+72169etrUqdOCZ4GqhWAlkPwIVqKyIFhZsQhWAvERrKy8CFaWDAPVAAAAAOeZCRPut759+9uf/7w8KAEAAAAAAEgMgpUAAADAeYYgJQAAAAAASBYEKwEAAAAAAAAAAAAkBMFKAAAAAAAAAAAAAAlBsBIAAAAAAAAAAABAQhCsBAAAAAAAAAAAAJAQBCsBAAAAAAAAAAAAJATBSgAAAAAAAAAAAAAJQbASAAAAAAAAAAAAQEIQrAQAAAAAAAAAAACQEAQrAQAAAAAAAAAAACQEwUoAAM5zq1atsIMH9502Pf/8ouDZ89e4cWNs+/Z3LDs7Kyg5ZcaMh+yttzZbly6dg5KS02v0Wi2jrFQf1Uv1i0fzbNv2drHzlIWOi9WrVwaPqg6dA9q2atWqBSXJryT7uCTHSlksXpyX0OOgLOdRuM66PZfvcSWtb2U8DgEAAAAAKA8EKwEAgG3f/q7VrdvATdOnP2QdOrQv9wBHZVO/fn2rXr16pQwcNGuWbjVq1AgelZ8BA7Ksc+euwaOqQYGkmjVTg0dVi44DHcPlbeDA7IQeB6tWrbZ27drbiBGjgpIz83VO1v1dlY9DAAAAAADOhGAlAAA4zZo1a62oqMgaNGgQyQjyGZe637VrF5f9o/sFBTvdfU3hefQ6UQaTL/cZQ8r2ys/fESmPzjby69Rr9+zZ5YKm4eWr3AcQ9VqVab6NG193z2n5qpee03w+o0r3tSzNq9doHs0r0fW/774J1rdvH0tJSbGcnLu/FLBUIPC3v50bmd9vr6+PpnA9ffaqXuODiJrXv9Zvs69zNP+8lnHffeOD0lOi20bz3nDD9a7ugwffENlf4XnEZ92p3dQWqqPu+/VoPv8631Z6rPLwa/W8309S0jb2bRYWzvJVW0h42/16VPbmm5vspptutJUr/2Kvvvqyq48mv3269cvSuiXWskaMGG6NGjWyTp062dixP3HzeX5/al5/fPl1a5naVw8/PN0tU+2sbdU2R9dVz8eaX8Lb7OsZj1+35tVxED5Wwu3r66n9X9xxoNdrG5cuXXLyOL/LlWme4o6DQYOy3WOVl+Y40OtE56PKNGkdqmeYPy/8Mn1bqdzv402bNrpyf4z4/aTJb5faOXxM+Dprfzds2NDtbx03vg5+P2lZ4Xb1tDx/PIfn1aT70fWVWOe9hOurSY+jj8Po9vPnkbbBv073o6lu/hhRXbT9WpbWEav+2tbwPgm3X6z5Jd6+BQAAAACgrAhWAgCA01x11ZWWmppq+/bts8zMTHv00cddxuVdd+W4LK0rr7zCzad5xo0bbwsX5lmbNpkuI7N//4HuuQED+rvggNSr19C9NjPzEvcjvH7Y3ru30JXPn7/Arr66u/sxPJYLL2zqMhxbtmzhsvq0/NTUFPdDun5E79PnOreM66+/4YwZZFlZA+2WW262WbNmue3ZtGmzDRuW45YTXf+0tDq2dOkyO3LkyMn5Z9uJEydcuVe7dm374x//FJlfgQb9gK/6+OWongoC6Af+Cy9sbHffPcyeemqepaScyp5au3adu1XgRG2uYIbKotclw4cPc7da7quvvhZZhpattlG5X6fa/rnncl3dFyx47mR5v9PmUfaWDzqozT744ENr1qyl7d+//2RdGrnXaBvS09PdPNp34ve751+r/Zifn2+9e/d2bVnSNlY9w0Eh7VPfTpqvZ88e7nWTJz9ghw8XueUtWrTIbr/9NuvWrVvktd26dbe33tri2kTtq+w5f+z541br1v7RfhIdS1qWgnivvPKqFRYW2vr1623KlKnueSnt8dWmTRsXQNRx4+uq5bdt2zaY48tUT22HP0d8PePRcaD5Vf/ijgPtY7Wv9mX0cRB9HsnXv/5127z5b5FsyXjHgY7NK67o5B57/jjQNhcUFESOg6FDb4kcB2+8sckF/eMdB9F0TqxevcbNo3X649/v4+HDR7jHEn3eadt13qmdwseEP69mzHgksr8ff3yuKyvJOVicWPWNd957ahdNK1euso4dO7p67d2719UrP78g5nmkba1bN83tC026H328xDtG4tEx0KpVyy8dF/78ihZv38abHwAAAACAkiBYCQAALCOjVSSzZvToUe7H8Qcf/LU9/vgT9vbbb7tMnTlzZllqas3gFeayL/Wjf16esq4+cq/TPPoRXd0zKsio5R44UOjK69SpY5dffrlt2LDBBUBULurOUd06RlPwTJo0aeKCAQrsLFmy2GUf6cd9HzxTcEGv37Fjp3scj7rEVP1VT22nsp8aN27knotV/+ICFgoAhderbVUmqtokulx13bNnr2snZa1+/PFHbhl6rCCctkOvVR0WLVrsngtTIFdBJi1Py9Xyjxwpcs/5tlG7hNsmLHoe3Q/Ps2vXruCeubpp+QqWFBUddvtK+1jbFYt/rd9XZ9PGqqdvJx17GRmXuHUr+LRx40Y3j+p2/Pjxk9vQwD0+evSou5Xjx49ZQcH77r4/9lQHrU/BZR17KvftqPXr2NuyZUvMfV3a40vrUAB/yJDBbr26rVMnzQXp46lXr95p54ivZyyxjgPtIznTPpZ455F88cUX9t///d/uvug40LF6NseBgmT+OOjWras7DhTQ+uijj790HETTupYs+d1p55GE97HnzzvVtyTzh5X0HDwT1ff555ectv54571omxXM9OdItHjn0Ve+coEdO3bMtZ2ClzpHdK54xb1XxFPccRFLvH2rICYAAAAAAGVFsBIAAFh4zEpNyrIR/aCuH7Bfe+0vLrDggyPRlLnkM6U0v89sU9aQssbCy9WP640bN7Fnn53vAjrhLg7jUf3Cy/EZYKWlH+61HX456ektXDAhVv3PRaaQgnAKDGjyAbnSit53sdqmJPOUl2RpYx174W32x3RFUiBVGX5+nTrOc3MXBs/GFuscKYuSHgflcR6VRKzjQFnYsY6DRCqPc7A0fJeqyihXO2j/xxKr/SZOnOQC7CpXgFDBQr1Hn+15FOu4KP7PGrH3LQAAAAAAZUWwEgAAFMtnOSn7KJxZ6SnQqB/flZ2jH9L1w7coy6pDh/bueU0ap1I/rCs4oWnUqHtcYEcBnuIoa0uZmOpCVj/0+/EClTUkqpfPKBKfAaaMoc6dr4qUK0vsggsuiIyvpmWo3hqfMlb9i6NxAMPr1baq21xl1kWXKwDiM4/U1aSy7TxlY4m6c9T2xAoQ+GwtLU/L1fJ9146+bdQVZLhtwqLn0bZGz1Newm2sAEpp2lj19O2kuiqIrfZS5pvP9NK2q9vRwsJ97nE80ceelqVjT+W+HfVY5eEuZcPiHV/q7lN18tl7vm6ffPKJy3pTN6jil69tjjW/HDhwIGY9Y4l1HPjzsST7ON55VBF0HGg/+eNA3bKW9DgQnSPR51E8/rzTsVKS+aOV5BwUv0xlFkafx7ofvf7izntRF63ij6uweOeRMio1Nqbe42666RZ3G1bce4XaSaLrH++4iLe98fZtrAxRAAAAAABKimAlAACISz/eKxCgH68V+FNXhuouMUxZc/rhXT+kK9Pn1JiIj7gMMXWDOHv2TPecxsQbOXK0e65Fi+au60t1JaixH7WMePSadevWuXmViVVUdMQGDsx2r9H4gMrOzM19LhL09D/Y68dzlauLS1H3jnPn/sY6derk6qkg0cSJD7hspej6P/LITPfjfvXqNWKOx6ZuYJUZpfqItkkZo6pPdD3V5ePu3XtcO2isN2UleaqrggLqflLbo2CTghHRP/yrPqLlar1+GVq2xriLXqcCCgq6aMxEBZrD8yhwVlFZhuE21v4tro3VZuHAkPazxr9TO6muvivie+8d7+bX67KysuyJJ+baihUris388see1qdJy1JbqVzbr+NZx43216RJD9ihQ4ddnRWw8eIdX6JAlO++1R8bW7duddvqM958XbWcWPOL6uOPjXA9/XGg4FGYjgNtt+pf3HHg97GOA4l1HPhjpSJom7Xt/ji47LIOJ9t5sjsONEZo9HEQi8YmVT3VXv74jyX6vNO2a7viHR865zSP6qZ2Luk5qK5c9ScIrSf6PJbo+sY77/37kz+udu/e7dpBr/P1UoAw1nmkbEaND6r1+G3VesLbGu8YiVf/eO+v8eaPt2/jZYgCAAAAAFAS1dLS6sf/pecc6d69uzVt2sSefvqZoARAWbRp08Z69LjGpk2bHpQASCT9yLt8+ctuTDxUPP04r+y1iuzasrwpGKXAjQJ5CjrIf/3X0y5QoaAGijdhwnhbuHCh7dz5XlBScfzx1aVLt2IDpeXl2WefcUGhc3EcZGZmWq9ePW3q1GlBSeLMmPGQ9elznY0bp31b8V2Lnu056Os7duy9LpCXTJTV+atf/cKeemreaWNbno9uvXWoCxITVAWSV+vWGdavX1+bPHlKUAIkJ11/5uXluc8VlL+ePXtYrVo1LTeXLuaBaPreMmbMWDt69NOgBJWFxvpv3ryZPfnkvKAEsZBZCQAAkAAKJDzzzKkLVd8Vpco+++wz19Uozl86Dj799FMC1hWMcxAAAAAAgORAsBIAAFQJ6vayMmVVKgsrPb2FG7vPB6VUdttt/3lOMvdQOv74Ohf7xh8H5yNlN+q8OBdZleVxDvr66nXJRnXKyLjkvM+qBAAAAAAkP4KVAAAAAIAqQ2NpqjtJAAAAAEDlwJiVQBXCmJVAcvnpT++3FStW2Dvv/D0oAVCeRo0aYUuWvGDvv/9+UIKy0Dhh3/3u1TZnzmNBCVC5tWvX1nJzF9jWrVtt3rxn7JvfrGWbN/+NMSuBJMaYlagsGLOyYjFmJRAfY1ZWXoxZWTIEK4EqhGAlkFwmTfqVNWzY0D7++OOgBEB5UvbUzp3v2aFDh4ISlEXt2rVPXos3tb/97W9BCVC5paWlWe/e1waPzAoLC+3uu4cRrASSGMFKVBYEKysWwUogPoKVlRfBypIhWAlUIQQrgeQyevQoW778ZduyZUtQAqA86ceihQsXuoAlyi4zM9N69eppU6dOC0qAyk1/ZPjTn/5gjz32+MnpiZPHdw/3ozLBSiB5EaxEZUGwsmIRrATiI1hZeRGsLBnGrAQAAAAAVBn/8z//Y23bftt++tOfu6xKAAAAAEByI1gJAAAAAKgyND7lvn37gkcAAAAAgGRHsBIAAAAAAAAAAABAQhCsBAAAAAAAAAAAAJAQBCsBAAAAAAAAAAAAJATBSgAAAAAAAAAAAAAJQbASAAAAAAAAAAAAQEIQrAQAAAAAAAAAAACQEAQrAQAAAAAAAAAAACQEwUoAAAAAAAAAAAAACUGwEgAAAAAAAAAAAEBCEKzEeWXGjIfs4MF9p0179uyycePGBHPEpue3b3/HsrOzgpKq7/nnF9nq1SuDR/+yatUKV16tWjV3P7o91cax+OXpdWX18MPT7a23Ntudd97hbrWu0i5P+3DbtrfPuM8BAAAAAAAAAEDFI1iJ886RI0fsrrtyrG7dBm4qKCiw3r17Fxv0atCggVWvXj14dH6oX79+cK9427e/a/XqNXRtOX36Q5aVlRUzYFnS5ZXE1q1brV279jZixCg7ceJEUFoyzZqlW40aNYJHAAAAAAAAAAAgkQhW4ry3ceNGq1kz1bp06eweh7MFlQ2oTLw+fa6zlJQUGzYsx5Upq0/zh7P0fHlBwU575ZWX3X1lEkZnHGo+X6Z5unbt4so9ZQ8qi1OTz2wML0evF63/zTc3RZaj+X/0o1vs+uuzT6ufyn0WYXjdPstR8+Tn74iUq56aMjJauSlW4DGeBx/8ta1fv946duwYlJwSXp62L1z3eJmtKtNzmse3kw8ot2nTxpVpuSqL3i7Rc74d/TKUkTl48A1uX+o2uu0BAAAAAAAAAMC5RbAS5z0F1g4fLrJVq1bb4sV5LvilTEFlX2ZmXuIy8ZYuXeYyMmfOnBW8KrbU1FQbN268/fznv4hk/CnjcOXKVXb11d3tvvsmWJs2mS4DsX//gW6e/v37fSmrMyUl1Z56ap517tw1EpzUclQnvV6BvBEjhrvXDRiQZa+++pp7TXEUvGvZsoVbr6bU1BQXOBw0KNv27i102/zss/NdPZ9/fokpY1KTshdLY9euXacFf0XL8MsbOXK0PfDAJCsqOuLWmZeXZ7fffpsLmnp6rYKJCnxqu7V/hg8fFjx7Om1DeLu0bm2r+HZUuylA2apVS1uw4Dm3L3Wr/QIAAAAAAAAAABKHYCXOOwpazZkzK5KJ17hxI5s1a7YLHKqrUmX/HThQ6OapU6eOXX755cErz6yoqMgKCwuDR2b79+93twrgyYoVytr8yEaPHuWWn5MzPGZXpsePH7P8/AJ339dJddVrateubd///vddgG7Hjp0uyLp27bqT6z7s5o+nSZMm1rBhQ1uyZLGbGjVq5AK1GzZssPT0dLfNCn6qe1Uts6J07nyVCygqo1XWrVtvx44dc0FhT/VUV62qmyhoq6BsrC5fo7dL931mp29H7RPtGwAAAAAAAAAAkFwIVuK8Ex6zUpl+e/bstby8U9mLomw7PwajJgXJypMCb8oAFGVNaorOrIymOvn6aApnbpaGtje8HNVFXbc2btzEZVUOGTLYdWMbznIsLQUPfabquRJruwAAAAAAAAAAQPIjWInz2r33jndZfr77V2VCdujQ3gXr/FiOvktRT1mS6u5VGXxXXnnFyfs1g2fOrFu3bm7sRL1WGYzbtm0Pnokvuk4KJg4Y0N927nzPZVeqy9RwPQ4dOnxa/Xz3sKq3MijVhawfM9IHSzWNGnWP6572+PHjbv6y0LI7deoUyZqMZfXqNS6Y6bMfr7iik8ui9JmkokxIZVv6rFaNQ+nH2IwWvV1qX20PAAAAAAAAAABIfgQrcV5T9p/GLlSATQHLrKxBtnv3Hps9e6brcnXz5r+5blr37dtn1avXsGHDclyXq6LnNb7jkSMl715U3cBqfEm9Vt261qpV0x55ZGaxWZLK7FT2p16jadOmza5OM2Y84l6nwFy4Hh9++KG7ja6fXqMxINUFrbpL1ZiRAwdmu+W0aNHcdQOr5/74xz+5TFMFSdX9bHSwNprvNlfbo9cvWrTIrSuaX57GmBw/foIbM1Ovy87OtieemHtadqv2y8SJD7ggbbir3lg0BmZ4uxQILS4bVkFRtZvGxOzatUtQCgAAAAAAAAAAEqFaWlr90vclWc66d+9uTZs2saeffiYoAVAayrj85S9/bn/4wx9t795CmzZtevAMgERSEH358pdty5YtQQmA8jRhwnhbuHCh620AZZeZmWm9evW0qVOnBSVA1XLrrUPdWO8aWgFAcmrdOsP69etrkydPCUqA5KTrz7y8PPe5gvLXs2cP98f+3Ny8oASAp8SUMWPG2tGjnwYlqCy6detqzZs3syefnBeUIBYyKwEAAAAAAAAAAAAkBMFKoApQF6qtW2fy7wwAAAAAAAAAAFCpJGWw8qab/re1adMmeAQAAAAAAAAAAACgKkqaMSsvvbTdyXsn7MYbh9hFF11kN9wwxLZvf/fUDABKJCOjlesDe+7c3wYlABLpP/7jVlu06HnGrAQqCGNWlg/GrERVx5iVQPJjzEpUFoxZWbEYsxKIjzErKy/GrCyZpAlWTps2xRo1amRf+cpXXNmiRYvt448/dvcBlEydOnXs4osvtjfeeCMoAZBI3/72t238+PsIVgIVhGBl+SBYiaqOYCWQ/AhWorIgWFmxCFYC8RGsrLwIVpZM0gQrmzZtYsuWLbM777zD7rjjP61Hj2tt69atwRwASkLdJ/focY1NmzY9KAGQSKNHj7Lly18mWAlUEIKV5YNgJao6gpVA8iNYicqCYGXFIlgJxEewsvIiWFkySTVm5X//9z9s0qTJ1q7dt+348WNBKQAAAAAAAAAAAICqKKmCld4nn/y3vfvujuARAAAAAAAAAAAAgKooKYOVAAAAAAAAAAAAAKo+gpUAAAAAAAAAAAAAEoJgJQAAAAAAAAAAAICEIFgJAAAAAAAAAAAAICEIVgIAAAAAAAAAAABICIKVAAAAAAAAAAAAABKCYCUAAAAAAAAAAACAhCBYCQAAAAAAAAAAACAhCFYCAAAAAAAAAAAASAiClQAAAAAAnIUZMx6ygwf3RabVq1cGz5itWrXCnn9+kVWrVi0oOXfirVtl4Tri7C1enOfaNDs7y7Zte9vGjRsTPFN2Wl708XQ2/H7v0qWzvfnmJnfcJuK4BAAAAKIRrAQAAAAAoIwUnOrT5zqbP3+B1a3bwO66K8caN27kAkMKCtWsmRrMeW4Vt+4BA7Ksc+euwSOUp0WLFlvr1pn24IO/DkrKRsdV3bppNn36Q+W2r+rXr+9uV69eY5de2sFGjBhlJ06ccGUAAABAIhGsBAAAAACgjJo1S3e3+/btc7d5eYssPb2FCwiOGDHcGjVqZJ06dbKnn37Ktm9/xzZufN0KCnbaoEHZLqAZKxvTZ9Rp8vMqC+6ttza716tc9+fOfdzd37Nn15cy+YYPHxZ33cq49OvzWaFahp5XubLtHn54esxyBdG0jPB6FRhVfTSPLwtvg39tmH9NeDni1xt+ndYZXX+9VvfVhno+P3/Hl5albEe/LM2vdcZqx65du7j5z7RulYeXH267iy++yJVlZQ2MZFaqbr6efpkS3nbdavl+maLn77tvvNWuXdtuv/02W7r0d24Zqot/rdatSa/V5JfltyXc/n7ejIxWbnruufmRZYT3tSZfx1jL1roBAACAikCwEgAAAACAMlIG3aZNm2306FEuqKMAlTdjxiO2d+9eW79+vf3+9y/ZBRdcYB988KE1a9bSOnX6d2vZsoX17z/QTcqCVIBIAakXX3zRZWmq/PDhw3bFFZ3c8ho2bGjKilP2Zmpqql1yySVuno8//sguv/xyN4/3yCMz4677wIEDbh6ty2eFXn/9DVa9enVXroBbuFyvlc6dr3JBtKVLl7n6LVq0yAYPvsHatm3rnpcLL2zqbpUVqHpqSkurY2PH/sSVewrkiurvlzNnzizr27ePyyZUeWpqigs4iuqm+isQrPpr+8eOvde1seq0bNmLVq9eQ8vLy3PLuu++CSfr1SayLBkwoL+79e3oyxXYVbDwTOvWNhcUFFjv3r2/1Ha+jaL5emq5yrjVevy2K6D96quvWUrK6Rmwq1attokTH7BPPvnEnnhirltnPHrtU0/Nc+2ckpJysu793HGkdalM6+3Zs4etXbvOtm9/101z5jwayajUfonebn8Mh5et7VD7RQedAQAAgPJAsBIAAAAAgLOgoJPvArZDh/aRbLZYdu3a5W6bNGnigmZLlix2k+537NjRZWZOmTLVZbipXNmR3pEjR2zduvVWWFhoRUVFtnHjRhfYOny4KJijeH7d3pVXXuFuFcjScnbs2Okeq1xBKa0rXK46Kmg1ZMhgt426rVMnzTIzL3HP79+/392uWbPWPv/8cxd8HDYsx771rTZf6hZVXZJquVq+uiNt1669HT9+3G1XuD6+61IJ11/zqR3CdTpwoNBuvHGIq9M///nFyTp+5ILIqof2jdYjet3zzy85bR0NGjQo0br9Nvq2i26jaL6e+fkFbvu03xWk9tuu9RUVHQ7mLr3jx49ZQcH7kWNCtI49e/a6Y0ntnpFxibsfS3HbrWWr3uFlAwAAABWBYCUAAAAAAOXAdwG7cuUqF3g8E2W5KcjpJ41NqMw7dSuqoJgy3ZQdmUwUcFMWnq9z48ZNLDd3YfDsKQp6aUxEBQgbNWrogojxgrflIVadFKRTe/rsSQV+w1mvAAAAAJIHwUoAAAAAAMpIQbjwOIaez8CLR5l66enp7nV+HEIfTDtypMgWLsyzq6660tLS6rqyiqBsOlGWoOqgjD9RuboJVfez4XJl2B07dsx1gyrado2l2K1bN/fY0zZpjEeN43nzzUNjBlzVPlqulu+XU6dOHZclGa7PmdoxXCc//qKWNW3ar12bKvNSWZsKDHvKvFTbhtehupZm3b7totvoTLTflb3ot13rS02tGTwbmx8PVeOjqt6qf3G0DnUDq65qtS/UHtHHp1fa7QYAAAAqAsFKAAAAAADKSF2LalxIP2alJnWjqa5hlWGoLlo7depkvXtfe9p4fyNHjo68Tll/mk+vUReqCr6p61KNvVhYuNd161laxa3bUyaoxp9UF6q5uc+5DEVZtGjxaeVffPGFK9c4jxpLUYEwbWdWVpYbU3HFihXueU9Zje+//4ELvmrbioqOuO0N07aqfnpe69H6FNh84YWlkTbR6wYOzA5eEZu2U3XyGZzZ2dmuTvfcM8ZeeeVV146q66kxQR8JXmV2++23uXWIxvdUnUuz7ui2821UEr4eap+rr+7ugtPF0TGhblhVt6FDbznj/GprjaOqbddrdF/bpyBkRkYru+uuOyPHg7ocjt5u7RsAAADgXKqWllb/1KjqCdS9e3dr2rSJPf30M0EJgLJo06aN9ehxjU2bNj0oAZBI+tFn+fKXbcuWLUEJgPI0YcJ4W7hwoe3c+V5QgrLIzMy0Xr162tSp04ISoGq59dahLpNNXbMiPmXVKbiltlKQTpmVvnz27JnuvTZcXlkpi7NPn+ts7Nh7447jeC4pE7Rv3z42bpw+0/KC0vNP69YZ1q9fX5s8eUpQAiQnXX/m5eW590qUv549e1itWjUtN/f8fT8E4tF12pgxY+3o0U+DElQW3bp1tebNm9mTT84LShALmZUAAAAAAJyH1E2oughV5qHPMlTWX1bWQMvP3xEpVxaesg8re6AyWSijUm2r6cYbh7gMzWQInAIAAACJQrASAAAAAIDzkAJk6ektrG7dBm7S2I7qVlXlzZq1PK28qmSmqttebXMig4PqZtW3rSbViUAwAAAAzmcEKwEAAAAAAHBOTZ06xZo3bx48AgAAwPmMMSuBKoQxK4HkwpiVQMVizMrywZiVqOqGDbvbDhw4aG+88UZQAiAZPPfcfLvooovshReW2urVa05+Hl1iY8aMC54FkhNjVlYsxqwE4mPMysqLMStLhmAlUIUQrASSC8FKoGIRrCwfBCtR1SlYqeP8ww93BSUAksFNN/1vq137/3H38/PzT14zb7Uf//g29xhIVgQrKxbBSiA+gpWVF8HKkiFYCVQhBCuB5EKwEqhYBCvLB8FKVHW33jrU/ahcVcZcBKqKtWtX2xtvbLLHHnvc/ud//q/169fXJk+eEjwLJCeClRWLYCUQH8HKyotgZckwZiUAAAAAAADOKWVR5uQMs3feeScoAQAAwPmKYCUAAAAAAADOKYKUAAAA8AhWAgAAAAAAAAAAAEgIgpUAAAAAAAAAAAAAEoJgJQAAAAAAAAAAAICEIFgJAAAAAAAAAAAAICEIVgIAAAAAAAAAAABICIKVAAAAAAAAAAAAABKCYCUAAAAAAAAAAACAhCBYCQAAAAAAAAAAACAhCFYCAAAAAAAAAAAASAiClQAAAAAAAKjUsrOzrKBgpx08uM9Nuq+ys6VlbNv2to0bNyYoiU/zbt/+TrHzdunS2d58c5Or4/PPLwpKK47qojqpblrf6tUrg2fKrizLUT327NkV2T/lUY94fBtrHdWqVQtKzT2uyPUCAICyI1gJAAAAAACASm3YsBzbs2ev1a3bwE26f999461r1y7BHBUvL2+RZWRcYg8++Oug5MuuuupK++pXv2p33ZVjAwacfTD1TOrXr2/Vq1d3QTutr3PnrsEzZadlloYClTk5ObZo0SK3b/r3H2g1a6ZWWOBQbazt/epXa1hW1sCgFAAAJDOClQAAAAAAAKi0lEmn4Nf+/fuDEnNBuXbt2tvKlavc41WrVkSy+pQZqGDW4sV59tZbmyMZmT54puWpXGUKePrsvHB2oG6jMyjDmZVaR/Sy9fxtt/2H1a5d2y1X65kx4yH3fHj9Dz883S1H06ZNG91y/vCHFyPrnjv38Uj9YtVZk+7fd98E69u3j6WkpFhOzt2nZUSqLr5uPgtVk7JIN2583ZXH2kbVNyOjlZt0P7zeWPPLtddee3IdBTZixCj3eNWq1bZgwXPWuHEjN7+Wo2X49eq+DzLreb/d4XqqbeLVs2PHjrZjx0774IMPbdCg7KAUAAAkM4KVAAAAAAAAqLR88KtTp06RYJeCaJ6Ckgo41qvX0GU0ZmZeYmPH/sSVpaamnrx/r02f/lAkeDZixHD3OmUivvrqa5aSkuoe9+7d29avX++Ws27dOve4OFr2uHHjI8tu1izd5s79jX3yySc2ceIDLgOwT5/r3PM+29AHUrXOp56aZ8OHj7ATJ07YhRdeaDfcMNgFXxX80/bOn7/ALVfBu8zMTHv00cdd5qK2UdmU//znF7Z06TI7cuSIzZo1O6jVqcCmgqWbNm128+tWj1u1amU1atRwQT5tY35+vttGH6wVBRy3b3/XTbo/efIDdvhwkZs/Ly/Pbr/9ttMChFpXdCBZ1qxZa0VFRdagQQP3uGHDhrZ69RrXDtre4cOHue265ZabT9Z9VqSeyqAVbV+semp9yvxcuDDPNmzYYBdd1PS0YwEAACQngpUAAAAAAACo1NT1auPGTVxQS8GzJUsWuyxCBbAUvFIm4IEDhTZnziyrU6eOXX755e51CpgVFhZafn6BHT9+3Jo0aWItW7ZwmXkKgq5du+7kPIfdvBs3bnQZf7t3f+jun6lL1fCyjx07FpT+iwJ1mkeBO61L6/RdrB4/fswKCt5398XX58MPP7SPP/7IvWbfvn2uzvL440/Y22+/7cZq1DamptZ05bEoMKigpIJ5ols9/uY3a7nHu3btcrfRAcZoPhCptpB169a77UxPv9g9Lg2105IlvzutHRTc1XaMHj3KBaHV9grOfuc7p/ZdrHoqAKw2WbRosWsjBT5VBgAAkhvBSgAAAAAAAFQZCiIqW7Fu3TQ3ZqEClspIVBaegpmalDWpQFZpKJNQr1VWpQJo0RmciaSuVBWgfe21v7jMSh9gTTQFHxU8jh7nUgFEZZ4q4FqcI0eK3Pb4/Zae3sL++tdTQdZYlHXarl1bF5hWe1x88cWRwDQAAEheBCsBAAAAAABQaam7UI1nqC5Uw5S1qGCYMu86dGgfGe8wP3+HC+6Fuzf1lK2nzD5lVyoQeeWVV0SyFJWpqddlZQ2yZ5+d78rOhuqmgJ0Cd1qX1nmmbMbi+OzEcJ1j0XzKgPRBPN3q8T/+ccg9LikfiNQYkXLFFZ1chmY4I1ReeuklS09Pd20n2tbBg2+wPXv2uoxYBY3r1Elz9Q63gzJSL7jggki3sn4cUHVXG4sC0wpQnwpUnwpu6n6bNpluvwMAgORFsBIAAAAAAACVVl7eInviibmRMSs1aezEX/96msuoVBbl7t17bPbsma6L1M2b/2YjR46Om1k5Y8Yj7lbBsauv7u6y+2TmzFl23XU/dFl72dnZbtxIBezKSoE6jSmpLE1lASrwV5aMT1F3tQp8qs6dO1/luopVN7MKiFavXsNycu4O5jwVZNSYmQrgqq10q8fvvvtuidatQKK61VXw8d57x7uuYH2baD9ovMgwbefIkaPc+Jxan9/W6G50tc/0nILIjzwy0+1XjfHp92u4nrEo2KkuYNUWnrqCVSBWzwEAgORVLS2tfumvgMpZ9+7drWnTJvb0088EJQDKok2bNtajxzU2bdr0oARAIulHh+XLX7YtW7YEJQDK04QJ423hwoW2c+d7QQnKIjMz03r16mlTp04LSoCq5dZbh7osKQUsACSn1q0zrF+/vjZ58pSgBOeThx+ebn379rFx43Rtd3qgM9no+jMvL899rqD89ezZw2rVqmm5ucl9HACJoD/bjBkz1o4e/TQoQWXRrVtXa968mT355LygBLGQWQkAAAAAAAAAAAAgIQhWAgAAAAAAAEgIdcmbnt4i6bMqAQBAxSFYCQAAAAAAAABRBg3KtltuuTl4BAAAKgpjVgJVCGNWAsmFMSuBisWYleWDMStR1TFmJZD8NGbl7bffxlhOSDo/+MH3bdy4MbZ79x5bvHix1atXz2bPnsOYlRWEMSuB+BizsvJizMqSIVgJVCEEK4HkQrASqFgEK8sHwUpUdQQrgeSnYOWUKQ9yniLptGmTab17X+vu79u3z4qKjtjNN99CsLKCEKwE4iNYWXkRrCwZgpVAFUKwEkguBCuBikWwsnwQrERVR7ASSH4KVvbr19cmT54SlADJQd3A/sd//Ngee+xxe/75Je76My8vj2BlBSFYCcRHsLLyIlhZMoxZCQAAAAAAAABRCgsL7Xvf+4ELVAIAgIpDsBIAAAAAAAAAopCVDwDAuUGwEgAAAAAAAAAAAEBCEKwEAAAAAAAAAAAAkBAEKwEAAAAAAAAAAAAkBMFKAAAAAAAAAAAAAAlBsBIAAAAAAAAAAABAQhCsBAAAAAAAAAAAAJAQBCsBAAAAAAAAAAAAJATBSgAAAAAAAAAAAAAJQbASAAAAAAAAAAAAQEIQrAQAAAAAAADO4OGHp9vBg/si0+rVK4Nnzs6MGQ/ZW29tti5dOgcl8akOZ5p33LgxtmfPLjfpfkV7/vlFri1Upzff3OS2p1q1asGzZbNq1Qq33JIsx683vG/8/jnbeoSpPjfddKO7H6t+xdWjvCxenBfZrvB9AAAqO4KVAAAAAAAAQDGys7OsT5/rbP78BVavXkO7664ca9y4kQtYnUsjR462du3a26pVq4OSL+vYsaMVFBTYhRc2tQcf/HVQWnHq16/vblevXmOXXtrBRowYZSdOnHBlZaGgX82aqcGjklu5cpXbN3XrNrDp0x9y+2fs2J8Ez5afyy67rNj6heuhqXPnrsEzZ8+3tQwcmO2WfTZtDQBAsiBYCQAAAAAAABSjWbN0l8G2b98+FxzKy1tk6ektbMCALPe8z2ZUJl1BwU4bNCg7kmmn7DefZeezDsPzK7joKfjp51UGZdeuXYJnTvGZlXfeeYe7jV62pm7dulpGRiuXeRfO9gtnWmo9er3qqizB7dvfsT/84cXIfFqOntNjn0EYrrMv13xal6bnnpvvlum3MZyJ6rML9ZzWpUnlsbZx+PBh1qhRI+vUqZMLNipQ7OuiWz0+kzVr1trhw4etQYMG7nH0/vHL0LaH66h6q918vTSf6urbTW6++abT6lcSvj21PL9PVFZce+i5cN30uHXrDNfWalu1v69zrLb2dd+48XVXHt7/AAAkG4KVAAAAAAAAQDGUofjGG5ts9OhRLvCjQJGnoNDQobfYrFmzXCbdpk2bLSfn7uDZU5Rpt2LFSrv66u52xx3/aYMH32Dr169383vdunWzNm0yXVZg//4DXVC0f/9+LhhVHC1D2Xxa9pIlv3P3t29/12XePfDAJCsqOuLWn5eXZ7ffflskUJeammpjx957st6zrXr16lazZi03X35+vssiHTduvFtWy5YtXIBN819//Q1ufcowVfnzzy9x69I0Z86jkSw/BfH69u0T2RZlIvo2S0lJtaeemueyU7XM6G185JGZtnfvXtc+CjpOmHCva1PftvfdN97VpzhXXXXlyXXWdMHlWPtn2LAcF7irV6+uq4emtLQ6rt5nau+nn34mUr8pU6YGpf+iYOOBA4XuOClJcDXcHikpKa499BqfyevbT3xbK8O2JG2t/frBBx+67dZ+7d279xm3DwCARCBYCQAAAAAAAJyBgn8K+iio1L79t10wStluyrpUwMkHMhWsUhekCj4qMLR//373+l27drnbzMxLXJBuw4YN7vHGjRvd7YoVyvL7yC1nzpxZlpMz/IxdqkYvO6xz56tc4Movf9269Xb8+HFXXykqKrLCwkJ3X/x8WuaePXtd9uiHH37oymTChPtdEFAZekOGDA5KY1NGo5a/du0612Xtjh07I12YHj9+zPLzC9y6NU9xGjZsaDVq1Ii0lW71WOXRwkFCtaGCkgomxts/X/nKBXbs2DHX1gpefutbbVxQurj2LolwN7DKvlU7FkftUVDw/mntoTprX/n2U9e/8Y6F4tpa/LHhjxUAAJIRwUoAAAAAAACghBR8ataspQtK+S5cjxwpckFMBah8kErBx9IGvjQGoc+qVHacpmTJhFP3osrMHDlylMv4SzY+SKgMwyNHjrjApm//WPtn4sRJLgio8kaNGrpAp4LPZB4CAHDuEawEAAAAAAAAiqExAWON+adsNWUJqrtNjVMpCjBq7MG2bdvGDHy9/fY7LhPu8ssvd499wFOZmHqdsgYvvbSDbdu23ZWX1erVa+zw4aLI8q+4opOrp+pbVspWVLA2PM5mLOp+VdmjV155heuyVV3GliWzT9mGyn70baVbPQ5nhEZTduQLLyx1gVXtk3j7RxmVGs9Rdb355qGua1dRJqLqrv2g+isr82xpHaKMSWWnpqXVdY/j8XX27af6xgtcl1dbAwCQSAQrAQAAAAAAgGJojMB169ZFuhLVpK42BwzIcsG7J56Ya506dXLlHTq0t0mTJtuWLVtiZlZu3brVFix4LjK/p0zMV199zQXRVF6rVk03fmNpszPDxo+fYKmpKS5rMDs729XzTN2SxqNuYtWFqup2+PChSHesCoxlZLSyu+66MxJMU/erChiqvZYsWeyCpmqrklBXpppf7aPAntpSberbduLEB9w8xdH+2r17jz344APucfT+0TKUUfn++x+4IKDqqLE99Tp1p6o2nz17phsHVFmZYW+88UakfhovsiQ09qYC1GoPjZ8Zvcxo/pjKyspydZMZMx6JtLWC5+XR1gAAJItqaWn1y37FU066d+9uTZs2cQNUAyi7Nm3aWI8e19i0adODEgCJpC+Ly5e/7H6kAFD+JkwYbwsXLrSdO98LSlAWmZmZ1qtXT5s6dVpQAlQtt9461I3fpe4BASSn1q0zrF+/vjZ58pSgBEhOuv7My8tznysofz179nBB+tzcvKAEgKc/sowZM9aOHv00KEFl0a1bV2vevJk9+eS8oASxkFkJAAAAAAAAAAAAICEIVgIAAAAAAAAAAABICIKVAAAAAAAAAIBzKjU11aZOfdCaNWsWlAAAzleMWQlUIYxZCSQXxqwEKhZjVpYPxqxEVceYlUDy05iVd911pz3zzH8FJUByuvnmm+yVV1613bt3ByU4G1//+tdt0aKFVq1aNXvppT9YQcH79t5779mzz84P5gDgMWZl5cWYlSVDsBKoQghWAsmFYCVQsQhWlg+ClajqCFYCyU/BykmTJtprr70WlADJ6bvf/a69+eab9tFHHwUlOBs1anzVxo0b4+4XFRXZe+/lu9+HCVYCX0awsvIiWFkyBCuBKoRgJZBcCFYCFYtgZfkgWImqjmAlkPwUrOzXr69NnjwlKAGSk64/8/Ly3OcKzp66gV29eoU9/vjck9MT7jetWrVqWm5uXjAHAI9gZeVFsLJkGLMSAAAAAAAAAHBOKZvy0ks72GOPPW4nTiQ8nwYAkEAEKwEAAAAAAAAAAAAkBMFKAAAAAAAAAAAAAAlBsBIAAAAAAAAAAABAQhCsBAAAAAAAAAAAAJAQBCsBAAAAAAAAAAAAJATBSgAAAAAAAAAAAAAJQbASAAAAAAAAAAAAQEIQrAQAAAAAAAAAAACQEAQrAQAAAAAAAAAAACQEwUoAAAAAAAAAAAAACUGwEgAAAACA81x2dpYVFOy0gwf3uUn3Bw3KDp4tu4cfnm5vvbXZunbtEpTEpzps2/a2jRs3Jij5si5dOrvlqY7PP78oKK04ixfn2erVK919rc/fPxtahpZVrVq1oKTi+XabMeOhuOv12xqet6y0D/fs2RU5njSFjwMdF+HnVq1aYbfccrN7DgAAAOcfgpUAAAAAAJznhg3LsT179lrdug3ctHv3Hpsw4d4SBRnLS17eImvdOtMefPDXQcmXXXXVlVajRg27664cGzAgKyitOPXr1w/umVtf585dg0dlo0BgzZqpwaPk4rd11arV1q5dexsxYpR7XFbHjx+z6dMfihxThw4dttmzZ7pjSgHTI0eO2N13D3PPTZw4yb72ta8VG6gGAABA1UWwEgAAAACA85gPoO3fvz8oUVk3F7BauXKVy3jMz9/hMuCULaeAks++Uyaez47zWXvhrLrLL788WOLp2XZ+OWE+s3LOnFkxl63nb7/9Nqtdu7bdd994VwdlKPp5fLaiMgT1emWHvvLKy+7+H/7wYmTdc+c+7sp0X+uIrrNfltbZunWGZWS0cvfDmZV67Of1y/D137jxdVceaxtHjBhuDRs2tE6dOtnYsT85rW3jZbPGqpu2/c03N52x/f38Ycpi9G2lebdvf8eWLv1dZFtzcxe49tHyJNY61Ma+TPOWJKg9a9Zsq169ul155RVBCQAAAHAKwUoAAAAAAM5jyqRbsOA5F0CLDj4pKKYMy2XLXrR69RpaXl6eDR58g7Vt29Y9L8qMU1Dz6qu72x13/Kd7fv369W7+EydOBHOZXXvtta5c8+u2d+/ewTPxaRkrVqx0yy4sLLQnnphrn3zyiU2c+IANGNDfOnRo77IsNbVv/23XvaiCaampqTZu3Hj7+c9/4epw4YUX2vXX3+DqqXpoe+fPX2CNGzdyAUPNr+dVt2efnW8tW7awJUt+Z9u2bbft2989LctQAb4+fa5zWYP9+w88+doUF7wTBeM++OBDV+/8/PwvbeOMGY+47dD2r1mz1rXt5s1/c/O/8cammNms4bqpzqqb2l/bKeE20v6KN7+3cePGSBZlx44dT+7zj6xv3/6RbZ0z51H3nCg4qTZS+2p7e/bsYVOnTjm5vDaR7Vf79u/fL1KfeLTdx44dswYNGrjHKSkpLtNSx9x9902w9957r9isWgAAAFRdBCsBAAAAADjPKUjUuHETF+BSd50+i1BZgAp+DRky2A4cKLQbbxxideqkWWbmJe51Phtz165d7lblmn/Dhg0uiKXAmPfGG2+4QJyy/vT8mbpUjV52tCZNmpxc1l7Xfawm3VeZFBUVueCYt2PHTheU1bI+/vgjFyjct2+fHT9+3NVzwoT7XRezqpu2sTgKtmn5WoaWqWWHu4v19Q1nqsaitlWXtuG20mMfzPPCddN+CIvVRsXNL2vXrnMB1qysgW5d4X0ULdzGOkYyMi6xe+4Zc/JYOGijR49yWbA5OcNdMFfbUBrR3cC2apURyeYEAADA+YVgJQAAAAAAiFAXsKfGGkyz73zncvviiy9OG3tQQc3c3IXB3CWngJZer6xCBbqUwalMwGSgwKy6mB01arTLRkwmvm4jR44qUd3UzWtx8y9atNgOHy6y6677oev+V8HL0gYadYz4rEoFtn23ssXxwVkFiaP9+c/L7ciRokiwGQAAAOcXgpUAAAAAAJzH1A2qxkuMHttQ2YP5+QWu6051Z6pglLpZ1bzdunUL5jrd22+/416nsSo1v7oZ9RREU+bcgAFZ5RIQVDah78ZVk+7Hy8IsiU2bNrsMwssuuywoiU3BNmWPKntRwVZ1s3qmLMpYfLeo4bbS41jBPF+3cHsW50zzv/TSS9auXVsXtFTwMp5wG6v7W+37Z56Z5wLNCj5eemkH131sSeTk3O0yWRUcjXbNNT+wlJTUs9p/AAAAqLwIVgIAAAAAcB5TUEtjQfoxKzUpM2/q1On26KOPufEhGzVq6LqBzc7OdvOuWLEiePXptm7dGhn/UvOHs+1mzZrtxnrU8rOystx86ka1rJSpqaCcuiLVpLEfR44cXeosQVFXqOqiVnUuKjoc6Y71wIEDlpHR6rTuSdUd6tKly1x26JIli0/Of8QGDswOni2etlcBQrWPgp2TJk12Y21qvZdd1sE91riaYb5uarfDhw+5utWuXTt49st8d7vFza8ubH3Xs54CrtrWu+66Myg5vY21vbp/881D7ZVXXnVlWketWjXtkUdmfqndq1ev4V6jefx86vZV26d5o8esVGZleGxQAAAAnD+qpaXVL/1VfDnr3r27NW3axJ5++pmgBEBZtGnTxnr0uMamTZselABIJP04s3z5y7Zly5agBEB5mjBhvC1cuNB27nwvKEFZZGZmWq9ePW3q1GlBCVC13HrrUDemYHQACDifKUty6NBb7P77f+aC1YnWunWG9evX1yZPnhKUAMlJ1595eXnucwXlr2fPHu6PDbm5eUEJAE9/EhozZqwdPfppUILKolu3rta8eTN78sl5QQliIbMSAAAAAADgPKGufPWnuq1b3y62C1gAAADgXCFYCQAAAAAAcJ5QV7l16zZwY4eWpctcAAAAoLwRrAQAAADg1KpVy3UN+MMf9g5KAAAAAAAAKhZjVgJVCGNWAsmFMSuBisWYleVDY1YOG3a3/fOf/7Q+fa6zGjVquPEr161bH8wBVG4a/2rPnr321ltvBSUAkk2TJk2sc+er7LnncoMSIDkNGTLY/vKXFSc/V/YEJShP3/nOd2z//v327LPzgxIAHmNWVl6MWVkyBCuBKoRgJZBcCFYCFYtgZflQsFLjl6WkpFjLli1c2fz5C2zr1q3uPlDZXXHFFXbgwEF7772dQQmAZFO/fn279NJ27toZSGY/+MEPbPPmzXbw4MGgBOXpkksusU2bNhOsBGIgWFl5EawsGYKVQBVCsBJILgQrgYpFsLJ8KFjZq1dPl0159dVX2x133G7PPPNf9uKLvw/mACq3W28dajt27LSVK1cFJQCSTevWGdavX1+bPHlKUAIkJ11/5uXluc8VlD/1hlCrVk3Lzc0LSgB4BCsrL4KVJcOYlQAAAACcV1991bKyBtm7774blAAAAAAAAFQsgpUAAAAATrN9O8FKAAAAAABwbhCsBAAAAAAAAAAAAJAQBCsBAAAAAAAAAAAAJATBSgAAAAAAAAAAAAAJQbASAAAAAAAAAAAAQEIQrAQAAAAAAAAAAACQEAQrAQAAAAAAAAAAACQEwUoAAAAAAAAAAAAACUGwEgAAAAAAAAAAAEBCEKwEAAAAAAAAAAAAkBAEKwEAAAAAAAAA542HH55uBw/u+9JUULDTBg3KDuYy69Kls7355iabMeMhq1atWlB6bvk6RNf1rbc2u+fK26pVKyp0XePGjbHt29+x7Owse/75RbZ69cqzatvofeTrr+UCqDwIVgIAAAAAAAAAzhsjR462unUbuGn79ndt5cpV7n56egtbuDAvmEuBu9V26aUdbMSIUXbixImgNDF8Hf3Url17V7+KoDapV69hhayrQYMGVr16dRdYHDAgyzp37npWbRveR1lZA0/WN82mT3/ILRdA5UGwEgAAAAAAAACAkxYvznOZhMqyfOWVl919Ze2FMxxVpuxAZQmKsvhUrjJNPstPy/LZiT6DUM/5+VSmZezZs8vNo1u/zJJQnVQXLUevfeaZeW65Gze+HskSVfair4PuS3QdSpLZqExILVOvFZ8VqfJt295264zehnAGq5+3T5/rLCUlxXJy7j4ts1LP5efvcPP6uoe3zy/Ht63n90tu7gK7777xVqdOHbv99tvc8sLC7eDXqfqF20Hz+H2v+36bo+uk9Wn+0u4vAPERrAQAAAAAAAAAIJCammrjxo23n//8F5GsvxEjhrsAl7IBX331NUtJSXXlCp41btzI7rorx556al6kXIGwVq1auvn79x94cpkprkw0j+ZV9l/v3r1t/fr1LpNx3bp17nGs4GHXrl0iwTYfcAu78MKm9vvfv2QXXHCBffDBh9asWUvr1OnfrUOH9nb33cNc/XTfBxvDdYjObMzIaGUHDhS69ZQkIKdMSa1T25Cfn++2wQcm589f4La/Zs1Uu/LKK2zp0mV25MgRmzVrdvBqO1mHq2zChHtt8+a/uWW88cYm97ht27bBHOYyPJVdevXV3V3AMNq+ffts4sQH7OOPP7YnnphreXmnArOibW7ZsoWrR3hfqJ2j20H7fuzYe0++5hEX/Ny0abNbt259nfz+UZs/+OCv3X0AZ4dgJQAAAAAAAAAAgaKiIissLAweneq6VMGuHTt2um5H165dZ0eOFLnnOnbsaHv27HXBsTVr1tpHHx105U2aNLGGDRu6DL0lSxZbo0aN3Lxy/Pgxy88vcPc3btzoApG7d3/o7sfrFjW6G9hwN6f79+8P7p2ya9cud6s6+Lpp0n2VSbgO0cLdwDZu3KREATm/Tl+XZs3S7YsvvnBtpTZTV7LqqjUWtVONGjVsw4YNbtvVDnpcu3Zt97xfpl9Hafl9of0Qa18UFLzv7ovf9+E6iW5j1QlA+SBYCQAAAAAAAABAOYse+zEcYPQUwNNzyqocPXqU64ZUwUuUL+0Lvx/8vogVFAaQGAQrAQAAAAAAAACIQ12MKqtS2ZXqglTdmfruXpUFqG5g1e3pVVddaWlpdV25sgDT09Nt7NifRMY5VJZlNHXnqm5Ks7IG2bPPzg9Ky4fq4OumSffLmp2obENlHSpLUdujtiiOsjbVJa3aSvMrCBtr+0XLPnbsmF1++eWui1VlPerxJ598Esxxdvy+UHe24X0Rq7tdL1wn0W151gnA6QhWAgAAAAAAAABQDI1hqEw8Bbk0bqLvBlaZkepedc6cWTZ06C2R8pEjR0eyJdX1aFHRERs4MNs9FzZz5iw3tqPGiMzOzrYFC55zXb5Gix6zUmNJXn/9oODZ2FQHjf84e/ZMVz+NuxivK9YzUVeuCtiqHrm5z9nx48eDZ2JbtGixzZ37G8vKynLbL2pDBX6rV69hOTl3uzJZvXqNTZo02dq3/7Zrh8su6+Aeb9myJZjj7GibNS5o9L4oLrNS26sxMDXOp9pbt75OZGQC5a9aWlr9hJ9Z3bt3t6ZNm9jTTz8TlAAoizZt2liPHtfYtGmnBusGkFi6CF6+/OVyu7gGcLoJE8bbwoULbefO94ISlEVmZqb16tXTpk6dFpQAVcuttw51P6zF+tEPQHJo3TrD+vXra5MnTwlKgOSk68+8vDz3uYLy17NnD6tVq6bl5uYFJclLmZAKMI4de68bC9JT5t7tt99mTzwxt0TjPAIlpWDzmDFj7ejRT4MSVBbdunW15s2b2ZNPzgtKEAuZlQAAAAAAAAAAFGPx4rxIVuOQIYNt6dJlLlCpwKUv15+Wlb04ZcrU4FUAgJIgWAkAAAAAAAAAQDHUbWjdug0ik+9OVbfh8gEDsugmFABKiWAlAAAAAAAAAABAkrj//vssJ+cu+8pXvhKUAFUbY1YCVQhjVgLJhTErgYrFmJXlgzErUdUxZiWQ/BizEpUFY1ZWLI1ZecUVnfjMBk4aPPgG++EPe9uhQ4fsD3/4ozVt2tSGDPnfdvTo0WAOVBaMWVkyBCuBKoRgJZBcCFYCFYtgZfkgWImqjmAlkPwIVqKyIFhZsRSs1PTXv24ISoDz1w9/eK1dffXV7v7atessNTXlZFlfgpWVEMHKkiFYCVQhBCuB5EKwEqhYBCvLB8FKVHUEK4HkR7ASlQXByoqlQGWtWjUtNzcvKAHOX+oGtmbNVHvssScsPz/f5syZZWPGjLWjRz8N5kBlQbCyZBizEgAAAAAAAAAAIEnMmzfPfvKTsS5QCZwPCFYCAAAAAAAAAAAkiV27dgf3gPMDwUoAAAAAAAAAAAAACUGwEgAAAAAAAAAAAEBCEKwEAAAAAAAAAAAAkBAEKwEAAAAAAAAAAAAkBMFKAAAAAAAAAAAAAAlBsBIAAAAAAAAAAABAQhCsBAAAAAAAAAAAAJAQBCsBAAAAAAAAAAAAJATBSgAAAAAAAAAAAAAJQbASAAAAAAAAiGPVqhV28OC+06bnn18UPFty2dlZlp+/w2bMeCgoqTrURmqTatWqBSWntnfbtrdt3LgxQUnZPPzwdCso2OmWF8/ixXm2evXK09YPAAAqD4KVAAAAAAAAQDG2b3/X6tVraHXrNrDp0x+yDh3an3UQrqro0qWz1ayZGjxKjPr16wf3AABAZUSwEgAAAAAAACihNWvW2uHDh61BgwYum/Cttza7gJ0y/7Zvf8cFMTXt2bPLZWHqNhzY7Nix45fKw/Mri3DQoGxXroxBn82p9XTt2sWVe8rS1Do1KbPQZ28Wt3zN5+scXf9wJmQ4o9RnkoaX45c/YsRwa9SokXXq1MnGjv2Jmy9s4MABxdbHL19ZkeFyv73hbEnNF16OKPOydesMy8ho5e5rW958c9OX1hkWnkfr8fvNt4fWG96fonYbMWKYrV27OlJf7Z/w/OH20zx++/RaAAAQH8FKAAAAAAAAoISuuupKq1mzpu3bty8o+bLevXvb+vXrXTbmunXr3OMwZWgWFBS4cgW5hg69xWbNmuXK33hjk+Xk3O3K27TJdJmc/fsPtBMnTpy87Rcs4V9SUlLtqafm2b33jrcJE+61ZctedOvNy8uzwYNvsDvvvMPdqj5afkn4YJyWc9ddOZaZeYkLwvnt0nJ0q8czZjxie/fudY+nTJkaLOGU6tWr2+efH4vMr3ooUJiammrXX3+DK3/22fnWsmULu+OO/4zUU+s9dOiwDR8+LFiS2XXX/dDNp9c9+OCvg1KzkSNH27Zt203Zr7r/wAOTrKjoSKQNbr/9NteWYQqwavsGDMiyV199zbVhcdQeMmPGTPvlL3/l9osCs+FAapiCyKqr9psmZZ5Wxe5/AQAoLwQrAQAAAAAAgGIoa+/AgUKXJTd69CjbtGnzaQGzaBs3bnTZdrt3f+jud+7cNXjm1HOyf/9+d9usWboLlmm5Wn63bl2tceNGLhD20Ucfu/I5c2ZZTs5wGzFilHtN2PHjxyw/v8AaNmzogoBDhgx2db3xxiFWp06a9ezZw5Vv2LDBze/XXxx1q+q3WeuuU6eOXX755ZHtUsailhfernj8+jR/jRo1XD0nTLjfBX21HNVTateu7Z7XfArMdunSzQUTdT8lJcW6d+9uCxY8Z6tWrXbzx9K581UuMOjXuW7d+pPtc9y1sadgqQKJO3bsdMtau3adFRUdDp6NzbeHMit/+tP7XV3VHvE0adLEbeeSJYvdpPvKqAUAALERrAQAAAAAAACKER6zUpOCaMVRUFHzKatSwUZ1FdqqVau4mXhHjhS5DEa//PT0FrZwYZ4LBvqsSmX3+Qy/eBSYUyamX07jxk1szZo1wbOls3Llqi9ts98uZT/67Wrbtm3c7YpH3aIq43HkyFE2f/6CoDS+I0eO2GuvvRbJzEwEtYcyK6+8snOkPbRf4tEx49tOU0kCuwAAnK8IVgIAAAAAAABlsGvXLpe1qMy5K6+8ItKdqIJx6vYzK2uQ6+a0OMqKVHep4XEqFQS8774J7lbLvvTSDq6r0+IUFhbasWPHXNesCh5q/EaNf/mVr1xgRUVFkUzAcIZfdP1TU2u6cmV9dujQ3nWfqknjYGp7/HYpUFeSIKP49Wn9qp/qKcpOzctbZJdddpl7/Mknn7jnNZ/qrzEztT4fCFX3tocPF7kuXONZvXqNm8ev84orOrm2VRt7yqZUVqWyKxX4DG93vP3p2+Nb32ptPXpc49pV7bB79+6Y7aflpKenu65ztQ7txzMFmgEAOJ8RrAQAAAAAAADKQF2IirpKvfrq7i5DUmbOnOXGWFQ3qtnZ2a770nfffTdmJp4Cdk88Mdc6derkuoG97LIONmnSZJs4cZK98sqrbtkqr1Wrpj3yyMzgVV+mIJxe16hRw8h6tVwtR+v3yw+LV38FI3fv3mOzZ890z23e/DeXVant6tPnOrecrKwst9xHH33MjS+p5Wscx1g0v5733bj67mRVri5Y1f3rRx99dLKuD1j79t929b/wwsY2a9bsYAmn/P73v3dBQwUBwxRMVDetCtCOHz/BUlNTTmsDtXGYxtn02arh7VZ7qFzbHd0ee/bstWuu+YHrBlaBVo2PGW9+tZXPPlU3sAqgahkAACC2amlp9eP3V3COqM/5pk2b2NNPPxOUACiLNm3auH/4TZs2PSgBkEj6Yrp8+cu2ZcuWoARAeZowYbwtXLjQdu58LyhBWWRmZlqvXj1t6tRpQQlQtdx661CXQaPu+wAkp9atM6xfv742efKUoAQVSRmBCqyp29nixn88Xyhz9Je//LnNm/d0seOQiq4/8/Ly3OcKyp/GV1VQPjc3LygB4OmPI2PGjLWjRz8NSlBZaCzq5s2b2ZNPzgtKEAuZlQAAAAAAAAAAAAASgmAlAAAAAAAAcJ5QF6Xt2rUnqzKgLmJbt848Y1YlAACoOAQrAQAAAADnBQ2ZsHTp76xatWpBCQAAAAAg0RizEqhCGLMSSC6MWQlULMasLB+MWYmqbtiwu9118iWXXGIZGa3s//7f/2v/8R//aSdOJPyrMIBA48aN7N///Tu2ZMkLQQmQnAYM6Gdr166zwsJ9QQnKU/v237avf/3rtmbN2qAEgHfbbT+2G24YYkePHg1KUFkwZmXJEKwEqhCClUByIVgJVCyCleWDYCWqOgUrO3bsePJYv+Tk986mLliZkzOcYCWQRBo1amiXXXaZvfji74MSIDn16XOdvf7667Zv3/6gBOXp0kvb2de+9jVbv/71oASAN3TozZadfQPBykqIYGXJEKwEqhCClUByIVgJVCyCleWDYCWqultvHWo7duy0lStXWf/+/eyOO/7TfvCDHgQrgSTSunWG9evX1yZPnhKUAMlJ1595eXnucwXlr2fPHlarVk3Lzc0LSgB4c+bMsjFjxtrRo58GJagsCFaWDGNWAgAAAADOC0uW/M6+//1rCFQCAAAAQBIhWAkAAAAAAAAAAAAgIQhWAgAAAAAAAAAAAEgIgpUAAAAAAAAAAAAAEoJgJQAAAAAAAAAAAICEIFgJAAAAAAAAAAAAICEIVgIAAAAAAAAAAABICIKVAAAAAAAAAAAAABKCYCUAAAAAAAAAAACAhCBYCQAAAAAAAAAAACAhCFYCAAAAAAAAAAAASAiClQAAAAAAnIVx48ZYQcFOd+vp/vbt71h2dlZQUrwuXTrbW29tthkzHgpKYlu1aoU9//wiq1atWlBSNn59q1evDErKRnUpbhmLF+e557W+N9/cdMbtK47adM+eXXbw4L7IpG3QsuXhh6ef9pwmrbu0baXlaLldu3aJbJ9vLz0ujt/es90/Z0PHSPQ+0WPV3e+HeO1U0u0sjl4b3i/JxO8fHYd+H8fi20HzRe/LZNjHAAAAVQ3BSgAAAAAAKgEFUGrWTA0enZ2rrrrS3X71qzVKHFAti/r167vb1avX2KWXdrARI0a5x2V1/Pgxmz79Iatbt4GbDh8usjlzZrmgk4JHR44csbvvHuaeu+uuHEtLq2Njx/4keHXJjBw52tq1a28rV66yevXqBaUlM3BgtnXu3NVOnDgRlCSnU9vW0LWT2rNx40albqfKqLLsHwAAgPMNwUoAAAAAACqQz+LauPF1l8UWzuhShpbKfvvbuVajRg1XJnpNOPNNj0eMGG6NGjWyTp06ucBSONNQmZ0+6OiXqSleBtjll19uO3bstA8++NAGDcp2ZT6bLPx6n1kWndUYnXmn16jMz6us0qVLf2etW2dYRkYre+65+ZFMNT9/eB2ijDVfFm6j4sycOcu125VXXhGUnJnqqfWL1u3XFa63ynJzF0Tqf9ddd7r5L7qoaaQdfNuERWfuhff53LmPu/t6vdYl0dmgfpm+XPNqGb6+0fvc77uzsWbNWjt8+LA1aNAgKIlPx4jPkFU9w5m+fttF+0THtOrpyyS8j1Xut/XFF5fZHXf8pytXW8XKytS6/Gv9tvt29vNrmZpiHa/hOuq+F2ter2PHjnbgQKErj7W/Na9/XXg7AQAAUDoEKwEAAAAAqGANGzY0ZRf27z/QZXUNHz7MBT+U0aYMwKeemmcpKadnTfrMtxUrVrqgyYwZj9jevXtt/fr1lp9fYEOH3mKzZs1y82zatNmGDctxgZe6ddPcMuNlFiqwo4zHhQvzbMOGDS4AFx0c0rq13quv7u6eS01Nteuvv8Gta/78BdayZYvTXrNx48ZIFqXqevDgR9a3b3/btm27bd/+rs2Z82gkmy283crq69mzh02b9mtr27aNe+zbqH//fl8KDkUrLCy0Y8eORQJtKSkpNnv2TBc8Usbln/70Z5syZap7ztM2q40U3E1LS3PZmQp2ahla1meffebme/TRx06rv1SvXt21gzITfdvE4/e5tlPtd8kll7ht+/jjj1yw2G9b9H7Oyhpoffpc59pZ69I6RfUN7/M33thkOTl3n7GNzkRZtjVr1rR9+/YFJfGtWrXaBblVz86dr3Lt9c1vftPd1/7fv3+/m0/Hso5pn7Wp41L7vVWrljZgQJZrh9TUFBeoVP2/8Y2v25tvvhVpqwED+rvleNr23//+92679VoFV6+4opOtXbvOtY+2QftCmcKaL3y8Pvvs/MjxGqutYh3bbdu2dc8pk1n1Vbn2ierhl6G6a17VR5Pm1TYCAACg9AhWAgAAAABQwRRUW7Lkd5FgjwI7Cvjs2bPX8vIWuew2BbE8dZf60EPTXNCtW7euQem/NGuW7gJCo0ePcvMoM1BBoa985QIXQFKgTsHLb32rjT344K+DV52iwI7m8ev1ZZ4POO3atcvdyoQJ97t5lIE2ZMjgoPRfFDRSsEaBNgX9FLyMp0mTJpHtVt0yMi6xe+4ZYwcOHHTbo7rn5Ax3bVDa7jqju4G97rofuqBSmAK9cuml7eziiy+2999/39VZ9dK+KS5op+e1D8NtE4/qonbRvi8qKnJtotcqOOqpy9no/azAqQJieq0/XiR6n2t+7XOfUVsaOl58xqCWp2B3dFA3Hm279nWPHte4en7++WeWmZlpX/vaV10gWHQs69hSWx8/ftyVqX0VwFU24pIli12WsM4B+eKLL+y///u/I20VTceK6qfsSv9aWbRo8clt+MjtP38Ma73h4/XGG4e48niKO7b9/ta+0DmTnn5x8My/tkf10aT7fnsAAABQOgQrAQAAAAA4C+GATHlQBpi6tvzud692WV3K4ovlyJEiF5BTYE5TenoLmzhxkhtvUeWNGjV0ASlle4Uzyq699tqT87R1gSoFWS666CKX6VccBYluv/02GzVqtMsyi6ZgkoJwCg4qkKXgTmkDjV26dHMZanqdAlq+687iKECkLkdjBRhVJwVFFVQKU7kCXNruQ4f+YVu3bnVBJmWY+mDbuaBsRHWpeqb9HBZrnytDNswHm4vjx6xU5qOCqtruku6vdevWu3nVflu2bLHPPz92cr/3ds/54Hc8ylL1maSaSjp+pO+q9cCBA+4YUYaxpyCw9p+OYXVrrOCiumTV8Tpy5KiYx2tYaeaNpu3x2+K3BwAAAKVHsBIAAAAAgLPguyINB/x69+7tynwQrU6dNJcxp0Ckuo5UQElBFp8Zp8wuzRP26quvuUBOixbNg5J/UYBU3V/6MQsV2FOAU1mJGuNQ67355qGnBXVE61IXqApS+QCL7rdpk2ndunUL5opN2XcK9MXLHlP3mwqCKmipjLd4lJnnt1tBKI0/+Mwz81z9FXy89NIOrvvVklD2qNpZwdFoWr7WEysLUu2v/aVAmwJsamd1B+qzLs+l6P3sA73h40XC+1xBXI2/qDaLHtsz3L6iNk5PT4/ZDspsfeGFpS5YV9LxL3W8Kziv9tNxpkDnhRde6NpSgcJ4tH7VQ90Sa7sUqC1JQNpToFaBWZ0raWl1g9JTwVMd023atDkt2OyP18suuywoiS/ese27j9W+UFC8oOD94Jl/bY/a1//BQNsDAACA0iNYCQAAAADAWVCAZuLEB6xDh/YuW1GTgkUqUwabzxxTQEiZjArOPPLITNfNqTL/FGDUWIQKxojv+lNdUubmPndynj0uW1GvUyCwU6dOrkvQJ56Y6+5rfVq31qesO2WXKWiidRUVHXFdjfo6aJw/BZrCGXC6r4CfApbxvPHGG5GuQw8fPuQCNwoshvmgX7gLWAUFMzJanazXnZGglLZbwSFtt++C9KabbrFXXnnVlWl7atWq6drI19urXr1GpBtUTWoXbbNv5+gxK/fuLXTbH01BLc2rgJPGlRRlWyrIGl6nMvl8/cub1htrPysAuGzZi5Fyn7WrYJrf59oPl13WwSZNmvyljExtr29ftYPaS+Ocqt1j0fy7d++xBx98IBKw1r72bayMRgXkPB2fOsaqV7/ABe8URFVbFtf1r2j969atc/Xxx+bAgdlf2sex6Nj6/PPP3TYNHnyDFRb+K2NW7bJ169snj+HPI8e16uK3oajosDte/bim0cLz+mO7du3a7jm1/XPPLXD7YunSZW5dvr5qN7Wr3x6dm8qQBQAAQOlVS0urf+arwgrWvXt3a9q0iT399DNBCYCy0D9JNW7ItGmnj8kCIDH0w8Xy5S+77rEAlL8JE8bbwoULbefO94ISlIXGGevVq6dNnTotKAGqlltvHeoCQiXpYrOiaMzEvn372Lhxet86vcvOqkQBLQVd77//Zy6og7OnjD0F6HQMV+VAWOvWGdavX1+bPHlKUAIkJ11/5uXluXMS5a9nzx7uzyq5uVX3sxIoK10PjBkz1o4e/TQoQWWhccabN29mTz45LyhBLGRWAgAAAACAs6JxMfVHLWW4FdcFLM5M3bfm5+9wmX7K2JMZMx5xtwAAAEBVRLASAAAAwGm++c1awT0A5UHdRaant6jSWZXq4lPjXyr7ryTdeiI+ZaU2a9YyMqZou3btix0LEgAAAKjsCFYCAAAAcNq1a2uPPTbHunTpEpQAAAAAAABULMasBKoQxqwEkgtjVgIVizEry4fGrPzVr35hNWpUt+985zuu7De/+a1t2rTZ3Qcqu27dutm+ffts+/btQQmAZNOoUUO77LLL7MUXfx+UAMmpT5/r7PXXXz/5ubI/KEF5uvTSdic/r9+1Z5+dH5QA8BizsvJizMqSIVgJVCEEK4HkQrASqFgEK8uHgpX33z/B/tf/+l/2//6/3VzZo48+Zhs2vOHuA5Xdd7/b3QoLC+2dd7YFJQCSTePGjezf//07tmTJC0EJkJwGDOhna9euO/m5si8oQXlq3/7bVlBQQLASiIFgZeVFsPL/b+9OoKSqzr3/P9wVwCQN3AvNbKPNICioATVBmS6aGwGJjI0DRiU4xCiKkICKSUyCImEQGRzvq0CUoRkE1GskVw0zvjKoOICQbpVRUCM0DoD/lz+/zdnt6aKqu7qppqqa72ets6pq15lqn7HOc5594kOwEqhACFYCqYVgJVC+CFYmhoKV3bp1tTFjxlrTpk3sllt+Zf/4xxKyW1BhDBw4wDZv3mJLly4LSgCkmhYtmluvXj1t1KjRQQmQmnT+mZub644rSLyuXbtYjRrVbdasivuMZ6CsCFamL4KV8eGZlQAAAAAcBX6HDv2tvfTS34ISAAAAAACA8kWwEgAAAEAR3377bfAOAAAAAACgfBGsBAAAAAAAAAAAAJAUBCsBAAAAAAAAAAAAJAXBSgAAAAAAAAAAAABJQbASAAAAAAAAAAAAQFIQrAQAAAAAAAAAAACQFAQrAQAAAAAAAAAAACQFwUoAAAAAAAAAAAAASUGwEgAAAAAAAAAAAEBSEKwEAAAAAAAAAAAAkBQnZbBy2bIltnz5UqtUqVJQYu7zvHlzgk8Vz113DbNNm96zfv1ygpKjJkwYb/n5W1y53u/Zs6tIF1lPXqzxJcpDD42zt99eb7/+9S3uVfMWSfPm5zFRtG5oPYj2m72Kvq4AAAAAAAAAAACcKGRWniTq1q1rVapUKTYIJ/v377dbbx1ktWvXs969+1q1ahkugBc5XL169dz4kkVB0tq1M23cuPHWvn3HoPT4dOjQ3qpXrxZ8ii6efgAAAAAAAAAAABAfgpVR+Iy9yKw9Be18uc++U4bh9u1bXZle9TlMQbWNG9+1NWtedxmMV1zRzw0bbfx+uspYVKdsQp/5qOEUKHvrrXWuLHLaPjsyPB4/fpX36HG5ZWRk2KBBt5UYsPSWLVtuM2fOckHBnJy+QenR3+THd/vtg1xZ+DdFy0z0mZKqB/Wj9/o9Es7o1PyWNH8a7t5777GaNWvazTff5OYn2jg0TV+XKguLttwGD77DGjRoYG3btrXhw39bZJzq9Fn91K9f3/UzffpUV+9+ecydm1s4bb33w4V/KwAAAAAAAAAAAL5DsDKCglYKzim78GiGYaYr8wG4OnXqu/KWLc9yAa3u3bvb6tWrXSaiXvU5kjIQP/roY2vcuJm1bfsTa9asqfXpk+MyF5Wlp2CXuoYNG7hxP/30VMvIKD57T8HDAQOut0mTJrlpr1u33gUOI+c/M7PWkelm26JFz7usyUmTJtvhw4eDsZQsLy/f9a9xeLm5c2zhwkVufBMnTnLz3qZN68Jptm79IxcojAw6Ksi3fPkK97tFgT/NrwKfypD0mZwK9EUOG6Yg6siRD9jnn39ujz/+hJu3WONQPao+I7Mvoy23CRMeth07drjPo0ePcb9by1v9LF26zM4//3zXz86dO10/L7zwYjC2orRsWrVqWTg/0qdPb/cKAAAAAAAAAACA7xCsjLBixUo7cOCATZkyyQX/mjc/yx588C9Wp06dI+/PsN27d7rvatWqZRdccIGtWbPGOnbs4LLz3njjjZhNkm7dutW9ZmVluaCdgp/z58917xUEU7d9+w4XCNQ8fPbZp67/WBSgUyBu6NAhLntP86Bg5/e+V7nI/J95Zis3/6UJUJaWfpOfd3V6r7JICvLNmzffBRs3b97imqZVc7IFBQXuN4fLS8OPY+XKVceM4+DBA5af/6F7HxbPcrvzzqE2fvzYwvqN15w5c48M86lbNloOCuAOHjwk+BYAAAAAAAAAAADeSRms/OSTT4J3x1Kw65xzjmYJKvjnm/9Ulp6y63ymnTplRyoI5bPzFJyKp8nPTZs+KDKesj5zcf/+AjeffjzZ2U1t5Mj7C+e/QYP6Lrjq578sFBTVsMqwrEiiLbezzz67sJ7at2/nmty95JKLXXakln1pdOjQqTCrUkFpBacBAAAAAAAAAABQ1EkZrFSWowKR/hmPaoo0Ozvbleu9nquoLMBrr73evYoCnGrqVMOoy8vb7IKAekahXhW4fPbZGa7f4mgampaakFVQU0EyBbKU6efnqV27i6xWrUzX/65du9xrdvbprjwzs7b7rOChmpfVsyxF49C4lMnn5/+66wa4Zk3LSvN31VVXuixBZQvGEq5PdXrvM0nD9Jv0GzReNYWrOtXvq1at2jHlpeHHcdFFF8Y9jniX26uvvuZeNc5IqmNldCqLVMFN34+agVWgU1mzChwrOA0AAAAAAAAAAIBjnZTBSjXvuXbtOps8eaLLnFRmnTLslG2nJlP1fEllw6nbt6/AlSuotW3bdjeMAoLr17/pxqNnNup5iRpPTk6OzZgx02VnxqJhVq1a5abpx+8zNNV8qsatZ1Eqa1LUPOq+fftc/+FyBQ/1vMa2bdu6aSuQquc4KqMyPP8FBfvdNBXQq1Klqg0adFuxWZYZGRluHjROP7yyBCObkfXjU1Ozmnc9M1PDhesmWtOzN998kxuv6PmPqm89/9LXh6bXt2+/UjVbW5ZxRFtujzzyqO3du8/VqYKnW7b80/r3v9pmzZp5ZNlvc88XFS0z34+anFUTsern0KFD7nstGwU5fT0efS7pw+47AAAAAAAAAAAAfKdSZmbd8nuYYZw6d+5sjRpl2bRp04OSk5uyAxXoUsArVtAv3Tz00Djr2bOHDR9+t3uuJcpHq1atrEuXS23s2HFBCYBk0k0Uixf/3TZs2BCUAEikESPusdmzZ7sbjFB2LVu2tG7dutqYMWODEqBiGThwgLvJsLSPdgBw4rRo0dx69eppo0aNDkqA1KTzz9zcXHdcQeJ17drFatSobrNm5QYlADzFC4YNG25ffvlVUIJ00alTR2vSpLE99dTUoATRnJSZlQAAAAAAAAAAAACSj2BlClIzsnrWoZpXrQhZlaIM0ezspmRVAgAAAAAAAAAAoBDBSiDNrV37f92zQAEAAAAAAAAAANJNyjyzMienj61cuSooARCv3/3uXqtZ8z/siy/22vr16+3DDz+0YcPuCr4FkEw8sxIoXzyzMjF4ZiUqOp5ZCaQ+nlmJdMEzK8sXz6wEYuOZlemLZ1bGJ2WClT/72X/ZK6+8EpQAiNfDDz9kderUsfff32hr1qyxAwcO2N13jwi+BZBMBCuB8kWwMjEIVqKiI1gJpD6ClUgXBCvLF8FKIDaClemLYGV8UiZY2ahRlk2bNj0oARCvhQufs8cee9xeeulv1qpVK+vS5VIbO3Zc8C2AZCJYCZQvgpWJQbASFR3BSiD1EaxEuiBYWb4IVgKxEaxMXwQr48MzK4E016NHLxeoBAAAAAAAAAAASDcEKwEAAAAAAAAAAAAkBcFKAAAAAAAAAAAAAElBsBIAAAAAAAAAAABAUhCsBAAAAAAAAAAAAJAUBCsBAAAAAAAAAAAAJAXBSgAAAAAAAAAAAABJQbASAAAAAAAAAAAAQFIQrAQAAAAAAAAAAACQFAQrAQAAAAAAAAAAACQFwUoAAAAAAAAAAAAASUGwEgAAAACQcHfdNcy2b99qe/bsKuzy87fYFVf0C/oom379cmzjxnfd+NOdfsOmTe+53xQWq7y05s7NteXLl1qlSpWCkmPNmzfH9XO8JkwYn7BlLOE6SNQ8AgAAAEhNBCsBAAAAAOXi4MEDNm7ceKtdu57rtm/fYYMG3VZs8KwkublzrEWLlvbgg38JStJX3bp1rUqVKsGn79SrV8+VH089icZfknj6icf5559vS5cus8aNm9ns2blBadn5ulEd9OmTY+3bdwy+AQAAAFDREKwEAAAAAJwQa9asserVq9mIEfe4rLk1a14vzMRT9pzPwNR7UTadz6hT5p4yNadPn+qG9ZmVy5YtOWY4feezOu+/f6RdeeUVRQJ/Pjsz1vTDWXx6rzJNU53mQ8Pn5W127zXecOZfeNrhLMPwfKpfjaNHj8stIyPDbr99kOtHwuU+sKsMST+sphUZxNQwmpbvR/OlrkWL5ta8+Rn20EPjisyXH4/60ffqZs2aYW+/vb5w/BpGnzt27FBkWL36uvc0jMahfhcsmO/mxdeNz+4M13nkeNSvn6/IulEdhOs3/Fv1qs/FjRsAAABA6iNYCQAAAAA4IZR9t29fgX3wwQdWuXJl++ijj10mXtu2P7E2bVrbbbfdbrfeOsi9VwDr7rvvsVNOqWr33/9na9++nU2aNMleeOFFO3z4sBufD6zVqVPfDdeqVUsXpOrevbutXr3aZXPm5394ZPxtXf9hytoLT79Zs6bWu3df1ymgqumra9iwgZuvp5+eahkZ1YKho1PQbMCA6918atrr1q13wTbNU506td08qsvMrHVkutm2aNHztn//fps4cVIwhqOZowsXLnLlkyZNdkHD885rU1g3rVv/yJWFA5YKiCprVdN89tkZdvHFnW3+/Ods48ZNtmnTB3bnnUNd4O/KK69y/TzzzLPu986bN999r27KlEeCsR3rsssuc/Wpel61apWr3zBlPmocyqzU9P3yieTr/OhyyXfj8YFJDae6r1Ytwy666MLCulEdeB06tLd7773H1auvX30+44wzrGrVqm7cmse8vDw37sigLgAAAIDURLASAAAAAFAuqlSpakOHDinMmlPgLxx82rp1q3vNyspywTYF6tTpvcqWLVtuf/nLWLv66qtcIGr06DGuf09NhSqjb/funTZlyiSrWbOmXXDBBS6DU1l+yrD76KOPbPDgO6MG0MLTr1+/vs2fP9d1eq/Aqjo/XytWrLRPP93j+o9FAUgFNP1v1jzoN3/ve5XtwIEDbh6VRXnmma1cM7axgnphseom7I033rDs7Gw3TTnnnNYucBh2772/t3btLnJ1cs01/YPS+Kxdu9b9lm3bPnZ1ezxNsvo6/+STT9yr6uzgwYO2cuUqt7zPPbfNkeU1JGrdaLkoKKnfK3rV53//9xruc+S4AQAAAKQHgpUAAAAAgHIR+czK7OympX6eoYJZCnrGeraignLKpvPTUJafgl16r2zASy652J588nEXbCuOMgP9ONSVNSC3f3+By4D049FvHjnyfhdAVHmDBvVdcFVZm4nK/FPgs2HDLJed2L//1a55VGVbhsevZmhvvvkmGzJkqOuvNHx9KqtSgVg1D6ssRwAAAABIBIKVAAAAAICkUkacMhD98wf1XmUKiPXt28c1qypq/jRMGXRqMtYP55+VqOcb6lWByzfeWBP0HZumpcxENdeqafpnNyqL0M+XshIzM2u7/nfu3GkFBQUuw1HN06pJVcnLy3dNnfrnVGocGpcyKvU8xV27dtl11w2wHTt2uO/jEatuwjQddQoqKjisTMVomYlqNlXZmeedd15Q8h1lNaqJXh8UVlapp0Cn6jMn5wrXhGxxYtVNLL7O1PSr6v6tt9a53xItkKtxK0NV2bOiV33+4ou97jMAAACA9ESwEgAAAACQVHqm4tq162zy5IkusKegmp6nqPdq/lWZgy+88IJ7tmH37pcVBrIUjNy2bXuR4RSw0zMg1a+aRVUw85VXXnXBuFg0fWVhKmtQzcAqaOczNNXsqsavZ1Eqa1KWL19hmzdvcdmas2bNdMFBUSDw8cefcM/I9NO+//5RLqPyww8/ckE4jb+gYL+bpoKXyhpV07BhvlzPu4ysm/Xr33Rl4WDkhAkPu6Cgpqnf8NJLf7M5c+a68aiZXAV5fVOuyuosKNjnmk9Vs6oK+KofBSMVnPXN6oaDhWq69/LLf+7K+/XrZzNmzIxZn5F1c+jQoeCb6Hyd5eTkuLrRdB9+eGKROvA0zZEjH3D16utXn/UM1Hia1AUAAACQmiplZtZN+hl9586drVGjLJs2bXpQAqAsWrVqZV26XGpjxxa94xxAcuhi4eLFf7cNGzYEJQASacSIe2z27Nm2Zcs/gxKURcuWLa1bt642ZszYoASoWAYOHOCCZ5HPcCwtZf0pYPjaa/84JlgI4Pi0aNHcevXqaaNGjQ5KgNSk88/c3Fx3XEHide3axWrUqG6zZpWuyXjgZKCb1oYNG25ffvlVUIJ00alTR2vSpLE99dTUoATRkFkJAAAAAAAAAAAAICkIVgIAAAAAUAI1QXruuW1c07BkVQIAAABA4hCsBAAAAAAAAAAAABJg3bo1dtNNNwafEA+eWQlUIHpm5YgRd9srr7wSlABIposvvtjef3+j7dy5IygBkEiXXnqprV271j799NOgBGVRr159a9nyLM4fUGFdeOGFtnv3HvvnP3m+GJCq6tata+eee4573juQyn72s5/Z+vXrbc+ePUEJEumss86yU045xdatWxeUAPD69etnzz23wA4dOhiUIJXdf/9I+7d/+zf74ou9tnHjRnv55Zdt8uRHgm8RDcFKoAJRsPLmm2+03Nw5QQmAZOrXL8feeGON5efnByUAEumaa/rba6+9Ztu3c0PA8Tj99NPtxz/+8ZHzh9ygBKhYunbt4vYTb7/9dlACINVkZWVZ+/btbObMWUEJkJr697/a/vGPJUeOK9uDEiSSzkl/8IMfHKnjfwQlALw77rjdHnvscTtw4EBQglQ2d26uC1auWLHS3n//fXfcIFhZPIKVQAWiYGWXLpfa2LHjghIAyTR06BB3d/iGDRuCEgCJNGLEPTZ79mzbsuWfQQnKomXLltatW1cbM2ZsUAJULAMHDrDNm7fY0qXLghIAqaZFi+bWq1dPGzVqdFACpCadf+oGLx1XkHi6wahGjeo2axY30QGRpkyZZMOGDbcvv/wqKEEqe/LJx11wee3addapU0dr0qSxPfXU1OBbRMMzKwEAAAAAAAAAAIAEuPHGm12gEvEjWAkAAAAAAAAAAAAgKQhWAgAAAAAAAAAAAEgKgpUAAAAAAAAAAAAAkoJgJQAAAAAAAAAAAICkIFgJAAAAAAAAAAAAICkIVgIAAAAAAAAAAABICoKVAAAAAAAAAAAAAJKCYCUAAAAAAAAAAACApCBYCQAAAAAAAAAAACApCFYCAAAAAAAAAAAASAqClQAAAAAAAEgpy5cvtT17dhXp5s2bY5UqVQr6OJa+13D9+uXYpk3v2V13DQu+KT0/ruKmp/FrOpre8ZgwYbz7ffn5W457XOWpQ4f29vbb6938xrJs2RJXd/odGze+e1zL4KGHxh2zDmiZeNHWEc1bccsMAACkJoKVAAAAAAAASDmbNn1gtWvXc924ceOtTZvWNnz4b4Nvy1fdunWDd7HVq1fPqlSpEnwqu/PPP9+WLl1m2dlNLTd3TlCafhTMrF69mns/Z85ca9GipT344F/c57Lav3+/3Xbb7W4d6N27rxt/OGCpdaROnfru+2eeedYuvrizmw8AAJBeCFYCAAAAAAAgpa1YsdL27dvnAoTK3FOGX8eOHUrMolS/PuvODxOm4ZXRGM7MU9e8+RmuU3afxr19+9bCfnzmYI8el1tGRobdfvugwnlSoCycVRgeVq+R86nhNB3N18KFz7nfsmbN626erriiX2HWpTqf6akyTUv9qVzvn3jisZjTkMgsRY3D150fT3jYaP17Wgaapi/z83PffX+wBg0aWNu2bW3atKcLl4vPyIycRjgz0v+24ixbttxmzJhptWtnunkHAAAVB8FKAAAAAAAApLR27S6y6tWr265du4KSkp111lnWqlVLl5WprLzDhw8fee1VJCimgOD27TtcZt6zz85wmXnz5s13GXvq7rxzqAtIXnnlVYXZe82aNXXzsXDhIpf5N3HipGBsx+revbutXr3aZf+tWrXKfQ5Pv08fBQw/cJmVmr4yNT/66GNr3LiZZWef7gKifv6rVcuwuXNz3XD169e35ctX2K23DjpSXs39VvXz6ad77IILLoga+PMZiJqWsjnFT0/leXl5RebP979kydLC/kW/ffPmLZaVleU+6zt9vu++P9qOHTvc733hhRddfcvgwXe4V83fnDlz7Oqrr7IpUyYdGXemm391mZm14sqazcvLd6+NG2e7VwV6d+/e6QKePXv2sPvvH+V+HwAASC8EKwEAAAAAAJByFIjymXdDhw6xdevW2+jRYwqDYCV57733jgz7qRtWwbFBg+6wwYOHFBn+jTfesOzsbDcNOeec1i6DL+zee3/vgqXKCrzmmv5BaXzWrFnjsia3bfvYvW/fvmOJ879161b3qqZoCwoKbOXKVW6eFBD0zdMqSKrynTt3un40bvWzb1+B+z6Sgq7jx491vzMyu9RP75NPPnGvEu6/U6eOQel3VG+nndbIZTieckpV9zkWzbPmXfOn+lcdz5o12w4cOOCWizJTzzyzVZmajA03A7tgwcIj43jABaABAEB6IVgJAAAAAACAlKNAlIJQvlMWYryBSk/BQZ9VqSZX1YWzDhUga9gwy2U19u9/tWt+NbKJ0WXLltjNN99kQ4YMdf2VhoJzmndlVSpoquZQI4OF5U3NsL711jq75JKLXV2UlHnYvn27wv5V59H6V7O8cvnlP3evCpyWhgKXCloqq7JBg/ouO1LNyUbLCA3zGZU+wzJs1arVLgCqjFQAAJBeCFYCAAAAAAAgbSgTUE2fqinUiy660DIyqgXfFKWmURUcVH/nntvGNm7cFHzzHR/AVFBRza0ePHgw+KYoZXXm5s6x8847LygpKnKeqlWr7sr1LEYF4XJyrnBNyJaGMh01To1PAUc1PxvOfiytV199zb1qPPFQ/wryNm3aJCj5joKNaoZWTc6qGVl9jkXzrGnqN6guFBCePn2qe1amMkOvu26Aaz62JBpeTcgqW1bLItKFF7a1qlWrHhn/h0EJAABIFwQrAQAAAAAAkDaUQacg2uTJE90zJvfvj970qZqBVcBNTY2qOdMaNarbww9PLJKdOWHCwy6Q5puafemlv7lAmAJsaob2oYfG2dq1a102pLL/Cgr2uYBYvXr13LMbq1Sp6pox9ZmFmlZ4nvQ8S2Ufath+/frZjBkz436morI+1bSp5mv+/LlHpr3f+vYtfROnCiSqGVZljs6aNdO2bdtm1atXszPOOCPooygFIcP9b9++3fV/9tlnB30cdfQ3H3ZNwKpONR01Q9u2bVvr3v2ywixJZWeqXL9B49SzPq+99noX5FSZ/21qeja8bETPC9Vy1vJRfxqPsmW98DMr1USvxh0tkAkAAFJbpczMuqVrP6McdO7c2Ro1yrJp06YHJQDKolWrVtaly6U2duy4oARAMumiwuLFf7cNGzYEJQASacSIe2z27Nm2Zcs/gxKURcuWLa1bt642ZszYoASoWAYOHOAuuscbHABw4rVo0dx69eppo0aNDkqQDpQlqcCsmnItLrOyItH5Z25urjuuIPG6du3ibiqYNSs3KAHg6WaYYcOG25dffhWUIF3o2c9NmjS2p56aGpQgGjIrAQAAAAAAAMRNTecqS1KZqydLoBIAAJQfgpUAAAAAimjTpnXwDgAA4Fhq2rV27XruWZ8AAADHi2AlAAAAAKd79+72P//zvDVs2DAoAQAAAAAAKF88sxKoQHhmJZBaeGYlUL54ZmVi6JmVU6ZMtOrVa1hW1qmuLDd3jr3//vvuPZDuLrjgAvv0008tPz8/KAGQamrXru3+z7722mtBCZCaLrnkEnvrrbfccQWJ17x5CzvllKqujgEU1atXL3vhhRft0KGDQQnSRePGjS0vL88mT34kKEE0BCuBCoRgJZBaCFYC5YtgZWIoWHnzzTfa119/Y71797J///cadv/9o2zFihVBH0B66979Mtu6dRsXPoEU1qhRI/vP/+xk06f/NSgBUtN1111rr7zyqm3bti0oQSK1bfsTy8jIsP/931eCEgDeb3871CZNmmLffPNNUIJ08aMf/ciqVq1CsLIEBCuBCoRgJZBaCFYC5YtgZWIoWNmtW1cbM2asVa5c2W655WbLz//Qnn/+haAPIL0NHDjANm/eYkuXLgtKAKSaFi2aW69ePW3UqNFBCZCadP6Zm5vrjitIvK5du1iNGtVt1qzcoASAN2XKJBs2bLh9+eVXQQnSRadOHa1Jk8b21FNTgxJEwzMrAQAAADiHDh2yiRMnE6gEAAAAAAAnDMFKAAAAAAAAAAAAAElBsBIAAAAAAAAAAABAUhCsBAAAAAAAAAAAAJAUBCsBAAAAAAAAAAAAJAXBSgAAAAAAAAAAAABJQbASAAAAAAAAAAAAQFIQrAQAAAAAAAAAAACQFAQrAQAAAAAAAAAAACQFwUoAAAAAAAAAAAAASUGwEgAAAAAAAAAAAEBSEKwEAAAAgCiWLVtie/bsKtK9/fZ669ChfdBHdHPn5try5UutUqVKQcmJp3mfN29O8Cm6RMxnv345tnHju3bXXcOCktJTfb711jqbMGG86+Kp42j87wEAAAAApBeClQAAAAAQw6ZNH1idOvWtdu16duutg6xatWrWp0/v4Nvo6tatG7xLDgX6qlevFnyKLRHz2bhxtlWtWjX4dPzuvHOonXNOa1u2bHlQEr9k1zsAAAAAoGwIVgIAAABAHHJz59j27TssKyvLfVZWYX7+FpdxuX37VpddqMzAFi2aW/PmZ9jMmc+6LEGf4eizBn/961vcq7IANdz06VNt06b3bM2a14uMS8LZndGyBtWf+g8PN3jwHdagQQNr27Zt4Tz5cajzGYzR5lNZlg89NK4wu1Flfjhf5un9VVddaRkZGXb11VdZx44dikwrVpajxh+rn/C0o9WvypWFqeH8OCJ/j94DAAAAANIHwUoAAAAAiIOCZw0bNrCtW7e6oNm9995jCxcuclmXubm5LmA3f/5ztnHjJpeROWXKI3b48OFg6OgaNsyyF1540SpXrmwfffSxy+LMy8uz7t27u+BcnTq1XUanutq1M11Z2GWXXWarV692w61atcoNN2HCw7Zjxw5X/uCDf3H9aR7VLV26zM4//3wbPHhIifPZqVMna9WqpY0bN9569+7rysJZpcp+nDlzlu3fv99mzJhpF110ofXocXlh/8rujGyKVnWofp59dobrp1q1jCO/7dfHNEV79tlnF6nfOXPmuPpVue9Xv3nJkqV28cWdi9S7fhsAAAAAIH0QrAQAAACAGJSpt3v3TpfBN2XKJFNmpYJh9evXd03C9u9/tfvummv6W61amS5gF+8zID/55JPg3VEKgoovX7FipX3zzTduurffPujIvJxVGHz01qxZ4zIat2372L1v375j8M13NL8+41H9xmvJEmV1fmpDhw5x86CAaXGBwHr16llBQYGtXLnKBTI3b95yTNOsajb20KFDhf2ce26bqMHSmjVrFqlfvap+W7Y8y33v68jXGQAAAAAgfRGsBAAAAIAY/DMrFahTBqECgt7BgwddFqHPWlSWpIKJJWVTxmv58hUumKdpK6PTN3kapmc8atrKqlRQUU2ohrMPlQGqMmUfKpNRmZWloeCnz6qcP3/uMZmS5Sla/c6aNTth9QsAAAAASA0EKwEAAACgBHpe5eOPP+GaMFVTrDt37rQDBw64ZldFz1rU8xWvuKJfYaBQwcZ9+woKswvV/GppDB/+W/ccS03r2muvd6+R9ExLBTBzcq6wZ555Nig91quvvuZemzVr6l7DYs2nmoFVoFNZpOec09oFbouza9culw2p7FIFSTWtyOzRvLx81+St70fPn7zvvj8ck436+eefF6lf/UbVr+Yp3sxVAAAAAEB6IFgJAAAAAHFQ1uS6dett0KBB1q7dRTZy5AOFGY/9+vVzwczZs3Nd0E7NxyqAuXbtWvde/ZTW6NFj7MMPP3IZjeoUUIxshnXSpMl2+eU/d03Vah707MhHHnnU9u7dZ23btnXzqeZY1YzqrFkzbdu2be5ZkgoU7t69+5j51Hh8MFDNwCrIqSZgNf8aTs/DDFPwUZmOep6kmnbVMyaV4ennt0+fnKDPoxT0feKJJy0nJ8f1o2nNmzc/+PY7GzZsKFK/6l/1q3mKlVnpf48CmwAAAACA9FEpM7Nu0tvQ6dy5szVqlGXTpk0PSgCURatWraxLl0tt7NhxQQmAZNLF2sWL/+4uuAJIvBEj7rHZs2fbli3/DEpQFi1btrRu3bramDFjgxKgYhk4cIAL2Ja2CVwAJ06LFs2tV6+eNmrU6KAESE06/8zNzXXHFSRe165drEaN6jZrVm5QAsDTDYTDhg23L7/8KihBuujUqaM1adLYnnpqalCCaMisBAAAAAAAAAAAAJAUKRusVHM/AAAAAAAAAAAAACqulAtW3njjDbZu3Rr7j/+oGZQAAAAAAAAAAAAAqIhS5pmV9933e5dNWaNGDVem9nt3797t3gOIT506daxZs6a2YsXKoARAMrVrd5Ft2bLFPvmE4xlQHv7zPzu5Z8J+9tnnQQnKQucPZ5zRzJYvXxGUABXLeee1ObKf+Mw+/PCjoARAqsnMzLSzzjqTZ8si5em5Y++88w7nn+VE17SqVq16pI7fDUoAeD//+WX28suL7eDBQ0EJ0sXpp59umzZttMmTHwlKEE3KBCs7dGhvP/zhDy0np49Vq1bNbrrpV7Zlyz+DPgDEo2nTJnbRRRfa9OnPBCUAkukXv+hvq1e/bps3bwlKACTSjTcOdH/WPv54a1CCstCD/tu3b2fTpv01KAEqlh49LretW7faunXrgxIAqeb000+ziy/u7G5cB1LZDTf80hYv/jvnn+VEN/xmZGS4c3wARd1zz102fvwE++abb4ISpAvdPJmR8UOClSVImWBlo0ZZNm3adPv+979vt9zyK3fg151KAOLXqlUr69LlUhs7dlxQAiCZhg4d4o5nyvwCkHgjRtxjs2fP5ga349SyZUvr1q2rjRkzNigBKpaBAwe4G4fI2AJSV4sWza1Xr542atTooARITTr/zM3N5YbUctK1axerUaO6zZqVG5QA8KZMmWTDhg23L7/8KihBulBWvm4S5qas4qXcMyu//vprGz/+IQKVAAAAAAAAAAAAQAWXcsFKAAAAAAAAAAAAACcHgpUAAAAAAAAAAAAAkoJgJQAAAAAAAAAAAICkIFgJAAAAAAAAAAAAICkIVgIAAAAAAAAAAABICoKVAAAAAAAAAAAAAJKCYCUAAAAAAAAAAACApCBYCQAAAAAAAAAAACApCFYCAAAAAAAAAAAASAqClQAAAAAAAAAAAACSgmAlAABIKR06tLe3315ve/bsKtItX77UKlWqFPQVnfqZN29O8Ok7Dz00zo2zY8cOQUn50m946611NmHC+BLnuTzpd6vu8vO3WL9+OUFp4micGze+a3fdNSwoOfFuvPFG9/vC86D3mza95+ZP77dv33rM+uSXjepIw19xRb9g6BNj7tzcqOu01l+Vx8uPJ8xvQ/qNiRJrfsNKO++xaL79epuI5RJeHxI1jwAAAAAAIHEIVgIAgJS0dOkyq1OnvtWuXc/GjRtvDRs2sOHDfxt8eywFaKpXrxZ8KurOO4faOee0duM8EZYtW27nntvGBg8eYocPHw5KT7zzzz/f/ebGjZtZbu6xQdzjpXG2aNHSHnzwL0FJajp48IBbh7QuqVuyZKldfHFnt84kK5jct28/a9++Y1LXj9KoW7du8C62ePqJR3i9nT07NygtO81XlSpV3LLu0yfH1TsAAAAAAEgdBCsBAEDKW7Fipe3bt8/q1avnAg7hbDmfNTh48B1Wv359a9u2rU2fPtVlUq1Z87r7fuHC5wozK9VvXt5mN6zGoXGFM69EWWS+f2Vi+Ww8n1mm/jReXx6ZwRbOrFSncWle1K/eP/HEY+69n75o3H584Ywynx2pfjUOnxUWWQeRGWj6DS1aNHe/YcGC+UXqQ/Pvs9fU+d/lM1BLmldP4/GZlaonDadh/Dh93flp+ow/lfnxa/58ffkyzaufVmT9J8KaNWusatWqbn0qiZ/n//mf5wvrW3Xn51nz5OsmvF6E61nDq39ZtmxJYd2E613DaDynndbI9SexlnG4/9NPP82VRaOgn/pTp/nQ+MLrueZF8xEW/g1+OHVal5o3P8NNOzxf6jQO9aPv1c2aNcP9ZpWH1yst6/CwetXnMA2jcfj1VvOicWs8PrtT8+jX58jxqF8/X77fHj0ut4yMDBs06LbCepfwb/XLK7xc/Xj89AEAAAAAQPkgWAkAAFJeu3YXWfXq1W3Xrl2Wk9PXrr/+Ops0aZLLklu3br3dfvsgmzDhYdu5c6etXr3aXnjhRatcubJ99NHHLjsrLy/PjadVq1Z277332KJFz7th58yZY1dffZXt21dgBw4csIsuutD1p0ysV199zXr37mXNmjV12Vi9e/e1atUyXOBFQaPt23e4cTz77IzCLL1YFERdvnyF3XrroCPjqGZnnXWWG99nn31qF1xwgQuSPP/80XlSuQKzF17YtjDQomlceeVVLjtMVD5gwPVF6kCBmHBARZl7GzduchlqGl7Dqj6ys5seqZNsN15lG/rfpUCQhg/PqwI8kfNanPr1G9iMGTPdeLOzs12ZxiOq25YtW9ojjzzm5lnlmieVK9CsaaueVe8ZGUczZBUkUv1r+uqUOauy46Ugnpa31qd4nXrqqW4ZqC5Vd506dSqs71NPbeQC6iNG3O2WhV8mWtc+/fQzFxjVOqx15JRTqh5ZP19ww4nW53iW8dq169wyjlwntJ7HovpSvfl5/t73KltBQYFb/hpP7dqZ9sYbbwR9HxVt3Z4//zm3Lm3a9IHLUtZ6oWn7frSM5s1TQPwD102Z8kgwtmNddtllbhtV1rReu3fvHnxzlNYBjcOvt7EyT/36rHnIz8934wnXjV+vtX5pe9+/f/+RupwcDH00CK3lE7m8zj777MLlqnkMZ+ECAAAAAIDyQbASAACkJGVW7d6902U2DR06xAUTRo8e4wIt1apVd2X6Tv2piVgFjyJt3bo1eHdUzZo1XbCwf/+r3bB6rVUr0wV1Nm/eYllZWS7goc8rV65ynxW8UzbW/PlzrUGDBi7QpQCPgnEah6iJWTX9GosCJatWrXbBVAWLlNmn/hUkFTWnqt+mTDc/HVGgRYETDav+NY+iOlBAL7IONO/F8fWhjELNhwJsfry+Cc+S5rU4Cmiq3vLy8o8Mu8/Vkx+PPPbY4/buu++6LLspUya55ag6VrBL86DpaHgNK77+VSfq9F71X1pVqlQtrCt1F154oQuqKiAWbzOsCqL6+VOgs379o1mZn3zyiXvVvCko6YN/etXnDz744Mg0P3V1roCllqfG4cW7jDt16uiWsdbZaP1HE65TzfO33x5yAT4FnTV+LevwvEjkuq3mjFVPYffe+3v3W5TRqPkpjbVr17r1ddu2j920jqdJVr8++2Wg33Tw4EH3m/S7i2uKOdby0j5C/Dgj9yEAAAAAACDxCFYCAICUpACJMpuUpaegioIJPuiwf3+By8xTRpQ6ZQsuWbLEfVcSBTPCzy9s2DDLPXNR41cTnD/96SVWULDf5syZ66anLC//7Ex1Cq6ofw2nDC4Fa3wTkmXlm8bcvXu3ywjbsWNH8E1s0eogEc/3K0/KilTQUYE/zbsPShZH9e9/o6//sG3btrplWpzwMyu1Xvmg6omigK+CrAoSKlioQFo8QdJoy9hnCZeVX88VMPTzEha5bqvJZGVb+mxDUVD95ptvsiFDhrr+SkPBQ/2WVatWuUBsuIlcAAAAAABwciJYCQAAUpqCJwsWLHTBEQVNlLWnpi/98/uU9aiAh5pvLMnnn3/uMsx805MKnvlAo7IM5b/+66cuuCTKqlKW2fDhv3UBFT3LTtPznQIvCoKVFCyLhwJTCjYqYy0zs7YrU0BNQS01CavpKwNRVAdqBjOyDhSAioeaP1WGqW+aVOP1mWTlTZmWajJUGYXKrFQdKwNQ86B58eXi61/BXH2n36jfGrZnzx775ptvXCDQB9TU1KiWs6YVSc2M7t27zx544P4iAbiS+IxOLQtl4O3cWbQJWU1L0/RN5erVz4OWo5pcVTPE4aC7xLuM/XNUP/vsc/c5sv9ownWqec7P/9BtT198sdeaNGl6zLxItHU7WmBVmc7KCI6W6aoAqDJxfbZuuB8FOrXd5eRcUWKg02flKsO2fft2xf5W8XWm36vf7bfXaMs51vLSPgIAAAAAAJxYBCsBAEDK03Pytm3bbg8++IALPDzxxJPWtm1b11RlmzatbeTIB+yRRx51ARKVd+9+WdQAxTvvvOP6bdCgvhs2JyfHHn/8CRd0UYBFz2oUNbGpAI2m6zPAlBGojEs9C1LPx1TgROPQdy+99Dc3jrJSoFSBEjWNqmdo7ty5wwVolN25cOEil+E2a9bMwqCopqX5DtfB/fePOqa5zlgUsNJ4I39XtKBUIikwpyCppqngkzIc1Tyq6lPTVmBJzwdU4FYUMNNzDf18avkq2Bi2Zs1a99tbt/5RYbPBp57a0C3nyKxBT88u1DqgwJnWEz2DcfLkiW5YdcuXLw36/E7t2rXdd9dc09/VnTJ5w/WlaWk+tCz8MvHzoOX1zjvvHlnG3xyT0RnvMj7vvDZu/CNH3u+C977/Q4cOuf6j0bjUj/rVNPw6umHDhqjzItHWbc2jAtzNm5/hntnqm3JVfe/bt9cFQtWsqgLe6kfBSAX89V79hLdF1f3ll//clWv7U3O8sZaTtkcFsjWtkn6r+DrTeLW+aLoPPzzRzbuaAtYzPz1NU8sncnmpbsp7OwAAAAAAAEVVysysm/R/4507d7ZGjbJs2rTpQQmAslDGRpcul9rYseOCEgDJpAv9ixf/3V38Bo6XMsUUzFTwJjJgV5EoGNazZw+76657SmzWdsQI9TPbtmz5Z1CSeBWx3hWkVZPDPkDdsmVL69atq40ZMzboA6hYBg4c4LbheG/oAHDitWjR3Hr16mmjRo0OSoDUpPPP3Nxcd1xB4nXt2sVq1Khus2al9uMtgGTQ/9Jhw4bbl19+FZQgXXTq1NGaNGlsTz01NShBNGRWAgAApCg1T6tnBirzS5liosy3ikZNnOo3qvOZiz4LEInjm0ZV5qnqlwxCAAAAAACQCghWAgAApCgFlBo3bma1a9dz3TnntI7ZZGY6U4af/43q1PxrqgTSVN+q94qQVanfcu65bSw7u2mJWasAAAA4+jx7AABQ/ghWAgAAAAAAAECEmjVr2sqVy+0Xv7gmKAEAAOUhZZ5Z+atf3Whvv/1OUAKgLOrUqW2NGze21atfD0oAJNNPfvJjy8/Pt9279wQlABKpXbuL7P3337fPP/9XUIKyqF0705o0acL5Ayqsc889x/71r3/Zxx9vDUoApJpatWpa8+Zn2MqVq4MSIDWcddaZ9rOf/Zd7r3POL774l11zzbU8s7Kc8MxKIDaeWZm+eGZlfFImWHn++efZggULghIAZdGsWTP3PKqnnno6KAGQTAMGXG8rVqy0Dz74ICgBkEi33PIre/HF/7GPP/44KEFZHD1/6HDk/OGpoASoWPr06W0ffviRrV27NigBkGqys7Ptpz+9xJ588r+DEiA1KHj2u9/d64KTM2fOtNNPP90ee+xxgpXlhGAlEBvByvRFsDI+KROsbNQoy6ZNmx6UACiLVq1aWZcul9rYseOCEgDJNHToEFu8+O+2YcOGoARAIo0YcY/Nnj3btmz5Z1CCsmjZsqV169bVxowZG5QAFcvAgQPcReWlS5cFJQBSTYsWza1Xr542atTooARIDVdc0c89S13Pkhedf+bm5hKsLCcEK4HYCFamL4KV8eGZlQAAAAAAAAAQYfbs3MJAJQAAKD8EKwEAAAAAAAAAAAAkBcFKAAAAAAAAAAAAAElBsBIAAAAAAAAAAABAUhCsBAAAAAAAAAAAAJAUBCsBAAAAAAAAAAAAJAXBSgAAAAAAAAAAAABJQbASAAAAAAAAAAAAQFIQrAQAAAAAAAAAAACQFAQrAQAAAAAAAAAAACRFpczMuoeD9zHVrl07eFc+2rdvZw0bNrDZs+cEJeVjz549wTsg+cpjuzrzzBbWuXNne+SRR4OSxDl48KDt3bs3+ASkvvI+dsXjllt+ZUuWLLH33ns/KEkejoE4UU7ktjdkyGCbP3+Bffjhh0FJ+SvttpQK+6KStGjR3C655GKbMiXx5w/lgf1ZxVYe28zVV19peXn5tnr160FJ4rA+oqJJ1nGradMm1q1bV5s4cXJQcmKxLVcMVapUtho1/j34VD7uvPMOW7BgkeXn5wcl5aMinnPG45JLOltGRjVbuHBRUJLe2LeklnTfTh588AH74x//bF9//XVQkn5O1n3bhRe2tdNPP81mzpwdlKS38tq3xRWs/MMffm8tW54ZfEq8//iPmu71X//63L2Wh6+//sauv/6XdvhwiT8XOCHuumuYtWnTOviUGBkZGVa5cpWEb0tVq55i1157PcFKpJU//ek+dwE+mXR8O3TokO3fXxCUJMcDDzxob775VvAJKF+LFi2wb745MX+etI0dOPCNffXVV0FJ+Xr66Wn20kt/Cz7F58UXF9mXX34ZfEpN5XX+UB6eeWbGkXXs+eATKqKXXnrRCgr2BZ8So7z+b27dus1+85th/MdEhaKbyW+//bbg04nzwx/+0KpUqZqUY9G+fQV2ww03BZ+QzhSsfP75RbZ37xdBSeKdiPPP559/0f7612eCT/GZOvUp+8EPvh98Sl8n4hrxifL97//ALr+8J+cJKaRXr5521VVXBJ/Sj7YPXZv9f//v/wtK0strry2xRx99LPgUn8mTJ1qdOukfsKxI+zYFkDt3/mnwKbHiDlYqM+Qf/1gSlKSXrKwsGznyTwQrkVIUrFy//k17+eXFQUnqWrjwOYKVSDsKVi5e/HdbvnxFUHJyeuihcTZt2nSClThhFKzs3/8XVlCQ3CB9og0b9hvbsOGdMgUr+/a9Iq3vfk0VgwffYXl5eQQrKzgFK3v06OVa9Uhluumwf/+rCVaiwlGw8tJLf2a/+90fgpKKrUmTJnb33cMJVlYQPljZpUu3tN03//KX19uhQ9+WKVip7Xbr1q1BCZJJNwPOmPGMO6fhPCF1KFiZlXVq0rL4T2b9+uVYrVq1yhSsVAtA77+f/BbLcNRrr/1vuQUreWYlAAAAAAAAAAAAgKQgWAkAAAAAAAAAAAAgKQhWAgAAAAAAAAAAAEgKgpUAAAAAAAAAAAAAkoJgJQAAAAAAAAAAAICkIFgJAAAAAAAAAAAAICkIVgIAAAAAAAAAAABIinILVi5fvtT27Nnluvz8LdavX44rnzBhvL399nr79a9vca/6XKlSJfddvDSujRvftbvuGhaUABWH1uvt27e6bcPr0KG92178NuU7v/0sW7bEbXN+W/Lj8P2Ft0H1N2/enMJ+H3poXJFx+WmFpw9UZNo28vI2F9lerriiX/DtsbRtlNRPLOHtK9axT/OzadN7HONwUtDxK95tryy0rWmb07anY5+OgenA7yuOd379b461v5k7N9d9n4hjf+S5hzqNs2PHDsV+r2kD8Ypcj4pbvwGUL+2/33prXZH9ut8uE8Ufx/y0ijuHBuKl9Si8zoavjySaP26Fz7H8+lye041XtPMzdcdzThgpvP3Gup5b3Hwkqo7C573sT1BasdbR8tiOtY7qf1LktBJ53htte6hoirvW539/cXw/x1Pnvn7Dy1FdSdMujYp2rpTwYKXfoKR27XquW7hwkY0ePaowWCLvvPOOnXNOaxs8eIgdPnw4KI1P48bZVrVq1eATULGcf/75tnPnDjv77LODku8sXbqscLt65plnrUePy912Fd4J6QA6aNAgmzNnTmG/69att3vvvcdtn5988onVrVs36Pvo9DZt+sCysrLc5/r167vta9euXe4zUNENGnSb7dix0+rUqe+2l23bttuIEXcXXmAHkHj+fFHHL7/tLViw0B588IGEBix1nqnzzWXLlhc59qW6du0ucq+nnFK1yPlzovk6Uf348/LjcfDgARs3bnzh+cfevfts8uSJhfvT8Pe9e/d1ZX369HavQEn0x1vnuJMmTSpch6pVy3B/yjlmA8mj/6j+WK6uffuOwTfHL3ycOvfcNmW6fgSE6ViSk5NTeD5y662DrHXrH7mL0uVxcfeCCy6IeX0nVUSev2mbvvjizu58PdGKu54bOR/qErnN+/3J8uUr2J+gTKKto3365JTbehS+BqxOx9fy3B4qmuKu9cVzbSCefuJ1Is6VKsq+LeHBSl1c0YFn4sRJQcnRC0WPP/5E8OmoVq1auYtUPtobvrNeEWHRd8ouUady9a+MzKuvvsoyMjLcK39MUZHoZPC00xrZyy8vtho1qh9zt1nYqlWr7cCBA5adfXpQctRll11mq1evLnKgmT07170qEPnGG2+4i5+ali6AVq9ezdasWeOmqzKdPBYUFNiKFSvdMEBFpnVe24CC+F6HDp3cRXudTITvntMxKPyHTSc5vtwfi/Qn1x/LwndK6b3K/vu/nyj8c5aT09fd5eWPg7Hu7PLDqvN37alfTVd3hqXCHblAaYXPF/2J9J13DnXni/5zeHvy54baBrXuq0yvPgs52jmj+lW53s+aNcOaNz/DdSrTd/4OR23jxR1vk0EXtjZv3mIfffRxYfDWz3N4n+D3H+F9lTpfX57Os/2+Qv2qnhYufM5atGju6kT1o3rS+CTaNMLLQ/3Gcw4+adJkq1Klil100YVBCVA2Wv914VTnuKNHj3FlCl7cf/+ownVM66qOizq/9fsKv05r/ffrr9ZvrdNqXcTfYe23L99/eJvy4wQQv1jbo7rI47U/noSvCfl+/bE7fJzy26/v12/T0cataQNe+Fjy4IN/cWW5uXNcgkWbNq3d+qrjxZo1r7v1x69fXvj8yJ9Xhf+XhddH0fTivb6TSnTNSOfpun4k0Y6hqqtwxpK2P7+tq39RmT4rUKth6tWrV6brub6O1b+m6zMzNZ3IuvfCy0rzoc6f986c+awbTmWar/DvC897rH0VEMmvl9p3aH3U/yy//mhd9NuG1iX/31Nl/r9daf6Pxjp/jbbO6nuJd3sQvfp+/TalaUaOO9W3B/32WNf6evXqWfj79XvD5/3qtB+IVkcq1z5D9eHrNzxsaZaj+H2YxhPet2naseo72rLUPEbbt0WeK0lx404VCQ9WKktLAZSdO3cGJUfpREAnAdHowKNKVIRZdzW1atWycOFmZFSzp5+e6sqrVatmZ5zRzGbMmGn79+93r7qYDFQUuni7b1+B3Xvv7+3DDz9yFytjufDCtu4EMj//w6DErH37dm5nvHXr1qDkKG172iHrVUFIXQjWRR0FJj/99LMjO8j5hWWapi6O6gIQUNFpPZ85c5a1bdvWdu/eWeRArRMG/YnSn1nd+aRtc/DgO9x3+oP16quvuWOT3vfu3csd9HWM0p11yvbQtqgydQ0bNnD96nim41q8/J8lTd8fH4cP/607ZuqYeNdd95TrnXxAedGxRueLkVn8/nxRJ9bnndfGrffqdAFJ25LfBrWNaRsMb0/hc0Ztl+GMvSlTHjlyQv6B63QzzwMP3G8FBfvduWdubq7dfPNNCc3oPB7a9+juSN1opItF/maiMM33kiVLC+961/7gyiuvcvuKZ5+dYc2aNS0yjG5K8ndc6lx9z55PrWfP3kf+EG1ydaL68cL7LN053LVrFxszZrSdfXYr91l1r32O9nvaFxVH/we0nHVxSqpUqWpDhw5xf4zmz5/rArIV8S5eJJ5v+UPbRPiY59ex4s6ZtU5rm9C667MxtY+Jtf7qYsGAAdcXZnCqhZLbbx9U4voOnKx07qzzaO3bfYCyOJHHa38efeqpDYsce1auXFV47NZxym/7Ohfu2bNH4TFJ27SuKUnk9SOy9xGmY4nWi8jrJZE3gtev38Bdb9R61KBBfbd+xvO/TOukzqFULrq+o1YmRoz4nbvGUtyxKpX483QdY2MdQ3Xe7DOW1OqXzklLyh7VeX9x13PD54nhi+vFiax7f6E/8lw21v5Ev0X/M9SvOv+fQ6LtqzgXOLlFrqPq/Pqim+e0nTdu3Mzy8vIK1x9l0I0a9YC7nqT9h//v2alTp8L16dRTGxXeQBGm46ufjg9QFrcORjsG+u3htttuL3F70PajFvz88VXXtHyALt22h+Ku9ekmaf8/WP9FVVeR/6Xnz3+uyH/l8P+PsO7duxdeM9SrPkerl0SdK8W7b4t2ruSPY5HrSaoty4QHKyMP+vHQxRNFgLXQpkyZZDVr1iw8iCvFOi8v3x0kle0FVGS6gLhhwwb3Ppzt6IUPVNdc09/dAaiLurF2mtr5aSfoh9GOTTvsb745euFQ29kXX3xx5CRwRWGZtseybMdAutJJYcOGWe7kQn8mdQDXH6PwhVHRSaYCg6I/WPpTGz42qSllDaPhdRFe77VNq9u+fUfhzQKfffap6z8e/vio7Tfy+KjpavpAOirpOKPtyW836vReF0D0x0EBLh3LdGJeULAvGOLoOaNu4CnpnFHHVf3x0nFWYrVUkCy6sKX58fsMX+b5u0PDdaiLYOpHd3P27391UPod1ZX+oCijW8d6/9ujCde99o/Nm59lv/nNsCPn6Xvcn3PtiwYNusP9sYt1/hFLuOkk/WnS8vR/moDjUdw+xR+fdWxW16BBA3dsjkU38+lPvL8YpfNvXRgo6aICcLIKN22Wnd3UHT+KE+14He3YE2s8Oo5pOB3bdD6g8wJ/Qw7Xj5AI+fn5Lotf66DWS62f8fwv07qnczgvfH0n1g1oqSAyAKOL+womavuKdQzV78nOznbXcXWRW00P+t9aVuHzRHXxNJMYrvuDBw+6slj7k2jnreF+w8tb4v1vgZNH5DqqLnzjZfh81B+PYv33rF//6M2c4cy/SDq++uno+KqbWYv7/xXtGFia7cEfX/UfNNrxNd22h1jX+iIDcyX9ly6Olqv+K2hY7RdjNdXLuVL8Eh6s1EYWbi7A08pQ3MWI8EJT5y8IAycLXQDRXVzaMeqETyeLuqMvfIEyfKBSF3mhUEFH3a3jT66009JOUBcEtRPytDNVBphOlv0d6r5MtDMDTkZqFuLoyWem/fjHpb/zVXczhY9liWiHPnK7J5MSFYHurNb5ok6iw8LNlZ6sdDfmOeec7S4W6aLQaaedVngxLBbVm+7QvfPOIe5u0Ehz5sx15weXX/5z92dZx/nS7ke0f9T5hIbTMopnOen/gJZztOdgR/5pAoqj81hd2NG2oPVO5826Y7i4dSxMx+fwsTTWhQRv//4Cd7ex799fIAIApC9/YdZfL/GitVoVTWn+l4Wv7+icLtr1nVShC9c+AKOWO3RzbfixQNGOoT4IoKxK/UY1CatMMQBIReFrfbqBN/w/VjGr4v5LF0fX5bVfVFal9vOp2Kxqukl4sFIHNP2RVFM5nk9TjfUHTwFOHcR1MFenTDANA5xMdIKsbC2d8PqTQJ9CXhovvviiuxMuvA3phLhWrczg09Ftrk6dOi6b0p+E+rK9e78o8Q4PoKLQMUd/rCIvuutPrL8z1gcJdAKjLhbdRae7S3XxVHfP6SRF49WNAD4jI7wthv8sqwlnZRhFinV8PJkDOagYwueLfn1WM0xqAk7HIG1PfrtRp/e6W1vBLW0r2sbUdHm1atXdsKWhIJkCdz6zKt4LVCeCfqv+QIXv2NV7NTUWbiooGjVVqbqLlTGm8wMFQfXbFbyMJVz3agpI+53p06e6fZoCQ7pzXk3ixGPQoNtMd7lHuwlKy1DLUvs5oCTabtX0s85xdZxVRssvfznAZbe8++57LgPGByyVGRk+3vrjs9ZnrXd6to+Oz37dU1a1+s/MrO0+6/ivprx809DqlwsPQOnE2h5jiXbs0Ws0GreaLdN5AMcSlEb4WOLXL61zavbQn0cp+Bh5Dqr1s7T/y7R+6vqObvQ6nus7J1rfvv3cuaKarZRYx1DfDRnyG3euqvO9Dz74wA3rb0QrrhWD0tA8aJvXeWg85/+x9ifRllW43/DyBhIl1n/PnTuLv9Eulljnr7GUZnvwx1eNN92Pr/q9sa716XdG3mhS3H9pnxgUbd+ma4Q6FuhafmkDnYnat0WTzudKCQ9WaiPUXai6a9s3IaAD//Dhd8cMgOhguG3bdps8eaL7w6kVJJxGHUl/ILVSleaBzECq085u8+ajTdt5ynrURcvS3KGmO9x0N4i2O78N6u6OOXPmFG5XukhcuXJlt6PSTjdcpgAmcLLQcemJJ54sbMde24vuqBozZpw98sijNnLkA+5Pqcp1UjBx4qRgyGOp3ftVq1a57U3ZUDqZ0QmLtjs11aDjm56BpWwN0banbV7HsVmzZtqhQ4dceZiG98P646OmU1w2CJAO/Pmimib1256eqaBnzujmNm03a9euK7Luq2zChIfd8NrG9Gwcvz3FQ8c8Nd+lPxP33DOicNr9+vWzxx9/IiWypvRnQkFcfyOR+MCuApaxrF271u1LVI/79u11f4D1pydM49G+wzdBJL5Obr3110HJ0btDVd+qd+3P9P666wbYK6+86so0jRo1qtvDD088Zl8U2YyY+tPzUZSJEPm9lqH4ZQqUROumniM5aNAg+/Of/+iaan355cXuGK7sYq3j+/btc+tY+Hir4fzdzlrv9Lxa/f+M1b/ODbRP0Hi1ruo8QOcDfj0GUDJtX7ogGLl9xaLzW3/c1zA69uh/bfg45S826uaEBQsWHrNNA/EIH0u0j9c6t379m24dCp/XjB8/zn2n5zJqmNL+Lyvp+k6sIGcq0H9e/ffVRfhYx1CdvzVt2qSwVbCXXvqbuxlO55m+udxoynI9V81mahhdM47n/F/zHHku629qityfaBn6fv1y1fBANNGeWakb2s4444xit+m7776nME7i/3suWbIk5v6jOLHOX2Px24O2n5K2Bx139bgx9aft3V/TKst8Jltx1/p0Th++NqD9VuR/abUAtXv3btePbqrW/22917jCy1r7S3/9PScnJ+rzeGPxN/Rq3xPPvi28v/LLsjTnSlqW6aBSZmbdEte4P/zh924j+sc/lgQl6UVZKyNH/smuv/6XabmBoWLS3Q86KdZFllS3cOFzdu2119vevXuDEiD1/elP99nixX8vDMifrHRiNW3adHvzzbeCEqB8LVq0wPr3/4W7SFmetG6HA5zlbdiw39iGDe+4izGl8eKLi6xv3yvs66+/DkqSQ+cd+kP7u9/9IeYNhKlu8OA7LC8v78g69nxQgoropZdePPKnv5fL0khlCmKq6Ts905X/mKhI1OLHpZf+zB0vTgZNmjSxu+8ebjfccFNQgnRWpUple/75RdalS7cy7Zvnzs11j8cJ32x1ov3yl9fboUPf2l//+kxQEp+pU59y2y2ZgakhIyPDZsx4xp3TcJ6QOnr16mlZWafaxImTgxKcKMoIrFWrlj366GNBSXyOJrc9au+//35QgmR77bX/tc6dfxp8SqyEZ1YCAAAA5UHNuOiuRXXXXNPf3fmZroG3E0mBXd1V+c477xbbBCwAAAAAAEAyEKwEAABAWlDTJf65P+rUrA13KpdMTcaovtK1GR8AAIATQU2cnnNOa5r+BgAgCQhWAgAAAAAAAAAAAEgKgpUAAAAAAAAAAAAAkoJgJQAAAAAAAAAAAICkIFgJAAAAAAAAAAAAICkIVgIAAAAAAAAAAABIikqZmXUPB+9j+sMffm9LliyxvLz8oCT9/PnPf7Trr/+lHT5c4s8FToi77hpm69e/ae+/vzEoSV2TJj1s1157ve3duzcoAVLfn/50ny1e/Hf7+OOtQcnJ6c4777Bp06bbm2++FZQA5WvRogU2aNAdFe6c68or+9mGDe/YSy/9LSiJz4svLrJbbrkt+ITj0bt3ryP/R/KOrGPPByWoiF566UW7+eZbgk+pKzOzlvXvf7X95jfD+I+JCqV9+3Z26aU/syef/D9BScVWuXJlu/vu4XbDDTcFJUhnVapUtuefX2Q33fSrtN03//SnF9uhQ9/aX//6TFASn6lTn7Lf//6+4BNSweTJE61Hj16cJ6SQXr16WlbWqbZgwaKgBCdK27Y/sVq1atmjjz4WlMRH29GUKY/al19+GZQg2aZNe8o6d/5p8Cmx4g5WZmefHnxKXwMGDOQAgZShYGWLFi2CT6nvjjvuJFiJtKJgZaNGjYJPJ7cJEx4mWIkT5umn/49VqlQp+FSxzJ6dW+pgpS4cIXHmz3+OYGUFl077kM8++4xgJSocBStvuGFg8Onk8O233xKsrCAUrHz88cfS/lz0lVdeLXWwsiKfg6czrkWnFgUre/S4PPiEE+311/9vmYKVGRkZwSekCiUFloe4gpUAAAAAAAAAAAAAkGg8sxIAAAAAAAAAAABAUhCsBAAAAAAAAAAAAJAUBCsBAAAAAAAAAAAAJAXBSgAAAAAAAAAAAABJQbASAAAAAAAAAAAAQFIQrAQAAAAAAAAAAACQFAQrAQAAAAAAAAAAACQFwUoAAAAAAAAAAAAASUGwEgAAAAAAAAAAAEBSEKwEAAAAAAAAAAAAkBQEKwEAAAAAAAAAAAAkBcFKAAAAAAAAAAAAAElBsBIAAAAAAAAAAABAUhCsBAAAAAAAAAAAAJAUBCsBAAAAAAAAAAAAJAXBSgAAAAAAAAAAAABJQbASAAAAAAAAAAAAQBKY/f/wJHlTa7SrQAAAAABJRU5ErkJggg==;" parent="1" vertex="1">
                    <mxGeometry x="30" y="730" width="1263" height="389.57" as="geometry"/>
                </mxCell>
                <mxCell id="0tJ8A37jzqX78EIoZ7ju-93" value="" style="rounded=0;whiteSpace=wrap;html=1;labelBackgroundColor=#808080;fillColor=#808080;" parent="1" vertex="1">
                    <mxGeometry x="1290" y="-50" width="430" height="660" as="geometry"/>
                </mxCell>
                <mxCell id="0tJ8A37jzqX78EIoZ7ju-94" value="&lt;font color=&quot;#000000&quot; style=&quot;--darkreader-inline-color: #e8e6e3;&quot; data-darkreader-inline-color=&quot;&quot;&gt;1. Client application collects image information along with necessary extra&lt;br&gt;data needed for request. Makes an image request to the api.&lt;br&gt;&lt;/font&gt;" style="text;html=1;align=left;verticalAlign=middle;resizable=0;points=[];autosize=1;strokeColor=none;fillColor=none;" parent="1" vertex="1">
                    <mxGeometry x="1293" y="-45" width="420" height="40" as="geometry"/>
                </mxCell>
                <mxCell id="0tJ8A37jzqX78EIoZ7ju-95" value="2. ApiGW proxies the request to the Scheduler function." style="text;html=1;align=left;verticalAlign=middle;resizable=0;points=[];autosize=1;strokeColor=none;fillColor=none;" parent="1" vertex="1">
                    <mxGeometry x="1293" width="320" height="30" as="geometry"/>
                </mxCell>
                <mxCell id="0tJ8A37jzqX78EIoZ7ju-96" value="3. The scheduler function checks cognito to see if the user is a premium or&lt;br&gt;free user. This assists in determining priority and expected elapsed time for&lt;br&gt;the request. It determines the queue the request should be pushed to. It&amp;nbsp;&lt;br&gt;pulls information from the queue to determine placement with respect to&lt;br&gt;priority of the request and the others in the queue. After information has&amp;nbsp;&lt;br&gt;been determined, it creates the record in the analytics queue and generates&lt;br&gt;the ID. It pushes the request to&lt;br&gt;the queue in the proper placement and updates the analytics db with the&amp;nbsp;&lt;br&gt;information. The request ID is then returned to the client." style="text;html=1;align=left;verticalAlign=middle;resizable=0;points=[];autosize=1;strokeColor=none;fillColor=none;" parent="1" vertex="1">
                    <mxGeometry x="1293" y="30" width="430" height="140" as="geometry"/>
                </mxCell>
                <mxCell id="0tJ8A37jzqX78EIoZ7ju-97" value="4. The updated queue continuously activates a stream filter to trigger&amp;nbsp;&lt;br&gt;corresponding downstream functions. These functions make requests to&lt;br&gt;OpenAI API for the image." style="text;html=1;align=left;verticalAlign=middle;resizable=0;points=[];autosize=1;strokeColor=none;fillColor=none;" parent="1" vertex="1">
                    <mxGeometry x="1293" y="172" width="410" height="60" as="geometry"/>
                </mxCell>
                <mxCell id="0tJ8A37jzqX78EIoZ7ju-99" value="5. The functions send information to the Result function about OpenAI status&lt;br&gt;and any errors." style="text;html=1;align=left;verticalAlign=middle;resizable=0;points=[];autosize=1;strokeColor=none;fillColor=none;" parent="1" vertex="1">
                    <mxGeometry x="1293" y="232" width="430" height="40" as="geometry"/>
                </mxCell>
                <mxCell id="0tJ8A37jzqX78EIoZ7ju-100" value="6. The Result function updates the analytics DB. In the case of a successful&lt;br&gt;Response from OpenAI, a url for the new image is returned and the Result&lt;br&gt;function will store that url in the analytics DB along with updating the state&lt;br&gt;of the record." style="text;html=1;align=left;verticalAlign=middle;resizable=0;points=[];autosize=1;strokeColor=none;fillColor=none;" parent="1" vertex="1">
                    <mxGeometry x="1293" y="272" width="420" height="70" as="geometry"/>
                </mxCell>
                <mxCell id="0tJ8A37jzqX78EIoZ7ju-101" value="7. In the case of an error to the Result function, The analytics DB is updated&lt;br&gt;with the current retry amount and any additional information needed. It&amp;nbsp;&lt;br&gt;triggers the Err function which then sends the request information to top of&lt;br&gt;the corresponding queue. These requests take top priority, no matter free or&amp;nbsp;&lt;br&gt;premium. There is a retry maximum and when that ceiling is hit, a permanent&lt;br&gt;state of failure will be marked on the record in the analytics DB and no more&lt;br&gt;retries will be performed." style="text;html=1;align=left;verticalAlign=middle;resizable=0;points=[];autosize=1;strokeColor=none;fillColor=none;" parent="1" vertex="1">
                    <mxGeometry x="1293" y="342" width="430" height="110" as="geometry"/>
                </mxCell>
                <mxCell id="0tJ8A37jzqX78EIoZ7ju-102" value="8. Client will retrieve the request ID from the initial request. Clients will show&amp;nbsp;&lt;br&gt;users progress information while polling the API with the request ID. The&amp;nbsp;&lt;br&gt;APIGW will use Cognito to protect the endpoint and ensure the user is making&lt;br&gt;the requestproxy these requests to the Status function. The Status function&lt;br&gt;returns the current state of the request, number of attempts, information&lt;br&gt;regarding those attempts, and a url if the request has completed." style="text;html=1;align=left;verticalAlign=middle;resizable=0;points=[];autosize=1;strokeColor=none;fillColor=none;" parent="1" vertex="1">
                    <mxGeometry x="1293" y="447" width="440" height="100" as="geometry"/>
                </mxCell>
                <mxCell id="0tJ8A37jzqX78EIoZ7ju-103" value="9. Clients retrieve the URL from the body of the status polling request. It uses&lt;br&gt;this URL to retrieve the image and display to the user with options for saving&lt;br&gt;and editing." style="text;html=1;align=left;verticalAlign=middle;resizable=0;points=[];autosize=1;strokeColor=none;fillColor=none;" parent="1" vertex="1">
                    <mxGeometry x="1293" y="539" width="430" height="60" as="geometry"/>
                </mxCell>
                <mxCell id="0tJ8A37jzqX78EIoZ7ju-104" value="" style="sketch=0;points=[[0,0,0],[0.25,0,0],[0.5,0,0],[0.75,0,0],[1,0,0],[0,1,0],[0.25,1,0],[0.5,1,0],[0.75,1,0],[1,1,0],[0,0.25,0],[0,0.5,0],[0,0.75,0],[1,0.25,0],[1,0.5,0],[1,0.75,0]];outlineConnect=0;fontColor=#232F3E;gradientColor=#60A337;gradientDirection=north;fillColor=#277116;strokeColor=#ffffff;dashed=0;verticalLabelPosition=bottom;verticalAlign=top;align=center;html=1;fontSize=12;fontStyle=0;aspect=fixed;shape=mxgraph.aws4.resourceIcon;resIcon=mxgraph.aws4.s3;" parent="1" vertex="1">
                    <mxGeometry x="580" y="30" width="78" height="78" as="geometry"/>
                </mxCell>
                <mxCell id="MRQ85Tfam6KHoVeZtCjc-15" style="edgeStyle=orthogonalEdgeStyle;rounded=0;orthogonalLoop=1;jettySize=auto;html=1;entryX=0;entryY=0.5;entryDx=0;entryDy=0;entryPerimeter=0;" parent="1" source="MRQ85Tfam6KHoVeZtCjc-1" target="MRQ85Tfam6KHoVeZtCjc-5" edge="1">
                    <mxGeometry relative="1" as="geometry"/>
                </mxCell>
                <mxCell id="MRQ85Tfam6KHoVeZtCjc-16" style="edgeStyle=orthogonalEdgeStyle;rounded=0;orthogonalLoop=1;jettySize=auto;html=1;entryX=0;entryY=0.5;entryDx=0;entryDy=0;entryPerimeter=0;" parent="1" source="MRQ85Tfam6KHoVeZtCjc-1" target="MRQ85Tfam6KHoVeZtCjc-6" edge="1">
                    <mxGeometry relative="1" as="geometry"/>
                </mxCell>
                <mxCell id="MRQ85Tfam6KHoVeZtCjc-17" style="edgeStyle=orthogonalEdgeStyle;rounded=0;orthogonalLoop=1;jettySize=auto;html=1;entryX=0;entryY=0.5;entryDx=0;entryDy=0;entryPerimeter=0;" parent="1" source="MRQ85Tfam6KHoVeZtCjc-1" target="MRQ85Tfam6KHoVeZtCjc-7" edge="1">
                    <mxGeometry relative="1" as="geometry"/>
                </mxCell>
                <mxCell id="MRQ85Tfam6KHoVeZtCjc-1" value="Polling fn" style="outlineConnect=0;dashed=0;verticalLabelPosition=bottom;verticalAlign=top;align=center;html=1;shape=mxgraph.aws3.lambda_function;fillColor=#F58534;gradientColor=none;" parent="1" vertex="1">
                    <mxGeometry x="734.5" y="307" width="69" height="72" as="geometry"/>
                </mxCell>
                <mxCell id="MRQ85Tfam6KHoVeZtCjc-8" style="edgeStyle=orthogonalEdgeStyle;rounded=0;orthogonalLoop=1;jettySize=auto;html=1;entryX=0;entryY=0.5;entryDx=0;entryDy=0;entryPerimeter=0;" parent="1" source="MRQ85Tfam6KHoVeZtCjc-3" target="MRQ85Tfam6KHoVeZtCjc-5" edge="1">
                    <mxGeometry relative="1" as="geometry"/>
                </mxCell>
                <mxCell id="MRQ85Tfam6KHoVeZtCjc-9" style="edgeStyle=orthogonalEdgeStyle;rounded=0;orthogonalLoop=1;jettySize=auto;html=1;entryX=0;entryY=0.5;entryDx=0;entryDy=0;entryPerimeter=0;" parent="1" source="MRQ85Tfam6KHoVeZtCjc-3" target="MRQ85Tfam6KHoVeZtCjc-6" edge="1">
                    <mxGeometry relative="1" as="geometry"/>
                </mxCell>
                <mxCell id="MRQ85Tfam6KHoVeZtCjc-10" style="edgeStyle=orthogonalEdgeStyle;rounded=0;orthogonalLoop=1;jettySize=auto;html=1;entryX=0;entryY=0.5;entryDx=0;entryDy=0;entryPerimeter=0;" parent="1" source="MRQ85Tfam6KHoVeZtCjc-3" target="MRQ85Tfam6KHoVeZtCjc-7" edge="1">
                    <mxGeometry relative="1" as="geometry"/>
                </mxCell>
                <mxCell id="MRQ85Tfam6KHoVeZtCjc-11" style="edgeStyle=orthogonalEdgeStyle;rounded=0;orthogonalLoop=1;jettySize=auto;html=1;entryX=0.5;entryY=1;entryDx=0;entryDy=0;entryPerimeter=0;" parent="1" source="MRQ85Tfam6KHoVeZtCjc-3" target="MRQ85Tfam6KHoVeZtCjc-1" edge="1">
                    <mxGeometry relative="1" as="geometry"/>
                </mxCell>
                <mxCell id="MRQ85Tfam6KHoVeZtCjc-3" value="" style="sketch=0;outlineConnect=0;fontColor=#232F3E;gradientColor=none;fillColor=#B0084D;strokeColor=none;dashed=0;verticalLabelPosition=bottom;verticalAlign=top;align=center;html=1;fontSize=12;fontStyle=0;aspect=fixed;pointerEvents=1;shape=mxgraph.aws4.alarm;" parent="1" vertex="1">
                    <mxGeometry x="730" y="562" width="78" height="78" as="geometry"/>
                </mxCell>
                <mxCell id="MRQ85Tfam6KHoVeZtCjc-5" value="" style="sketch=0;points=[[0,0,0],[0.25,0,0],[0.5,0,0],[0.75,0,0],[1,0,0],[0,1,0],[0.25,1,0],[0.5,1,0],[0.75,1,0],[1,1,0],[0,0.25,0],[0,0.5,0],[0,0.75,0],[1,0.25,0],[1,0.5,0],[1,0.75,0]];outlineConnect=0;fontColor=#232F3E;gradientColor=#FF4F8B;gradientDirection=north;fillColor=#BC1356;strokeColor=#ffffff;dashed=0;verticalLabelPosition=bottom;verticalAlign=top;align=center;html=1;fontSize=12;fontStyle=0;aspect=fixed;shape=mxgraph.aws4.resourceIcon;resIcon=mxgraph.aws4.sqs;" parent="1" vertex="1">
                    <mxGeometry x="870" y="307" width="78" height="78" as="geometry"/>
                </mxCell>
                <mxCell id="MRQ85Tfam6KHoVeZtCjc-6" value="" style="sketch=0;points=[[0,0,0],[0.25,0,0],[0.5,0,0],[0.75,0,0],[1,0,0],[0,1,0],[0.25,1,0],[0.5,1,0],[0.75,1,0],[1,1,0],[0,0.25,0],[0,0.5,0],[0,0.75,0],[1,0.25,0],[1,0.5,0],[1,0.75,0]];outlineConnect=0;fontColor=#232F3E;gradientColor=#FF4F8B;gradientDirection=north;fillColor=#BC1356;strokeColor=#ffffff;dashed=0;verticalLabelPosition=bottom;verticalAlign=top;align=center;html=1;fontSize=12;fontStyle=0;aspect=fixed;shape=mxgraph.aws4.resourceIcon;resIcon=mxgraph.aws4.sqs;" parent="1" vertex="1">
                    <mxGeometry x="870" y="403" width="78" height="78" as="geometry"/>
                </mxCell>
                <mxCell id="MRQ85Tfam6KHoVeZtCjc-7" value="" style="sketch=0;points=[[0,0,0],[0.25,0,0],[0.5,0,0],[0.75,0,0],[1,0,0],[0,1,0],[0.25,1,0],[0.5,1,0],[0.75,1,0],[1,1,0],[0,0.25,0],[0,0.5,0],[0,0.75,0],[1,0.25,0],[1,0.5,0],[1,0.75,0]];outlineConnect=0;fontColor=#232F3E;gradientColor=#FF4F8B;gradientDirection=north;fillColor=#BC1356;strokeColor=#ffffff;dashed=0;verticalLabelPosition=bottom;verticalAlign=top;align=center;html=1;fontSize=12;fontStyle=0;aspect=fixed;shape=mxgraph.aws4.resourceIcon;resIcon=mxgraph.aws4.sqs;" parent="1" vertex="1">
                    <mxGeometry x="870" y="511" width="78" height="78" as="geometry"/>
                </mxCell>
            </root>
        </mxGraphModel>
    </diagram>
</mxfile>